<?xml version="1.0" encoding="utf-8"?>
<!-- Generator: Adobe Illustrator 24.3.0, SVG Export Plug-In . SVG Version: 6.00 Build 0)  -->
<svg version="1.1" xmlns="http://www.w3.org/2000/svg" xmlns:xlink="http://www.w3.org/1999/xlink" x="0px" y="0px"
	 viewBox="0 0 481.9 244.6" style="enable-background:new 0 0 481.9 244.6;" xml:space="preserve">
<style type="text/css">
	.st0{fill:#2F455A;stroke:#2F455A;stroke-width:0.25;stroke-linecap:round;stroke-linejoin:round;stroke-miterlimit:10;}
	.st1{fill:none;stroke:#122333;stroke-width:0.8;stroke-linecap:round;stroke-linejoin:round;stroke-miterlimit:10;}
	.st2{fill:none;stroke:#122333;stroke-width:0.3;stroke-linecap:round;stroke-linejoin:round;}
	.st3{fill:#EFB180;stroke:#122333;stroke-width:0.4;stroke-linecap:round;stroke-linejoin:round;}
	.st4{fill:#EFB180;stroke:#122333;stroke-width:0.4336;stroke-linecap:round;stroke-linejoin:round;}
</style>
<g id="back">
	<g>
		<polygon class="st0" points="264.3,194.6 262.9,196.1 260.6,196.1 260.6,193.9 262.4,192.7 264.3,192.7 		"/>
		<polygon class="st0" points="135.8,58.3 145.3,58.3 143.3,55.2 141.5,54.8 141.5,52.5 		"/>
		<polygon class="st0" points="200.9,32.7 205.5,30.5 205.5,29.9 203.2,27.6 200.1,28.6 196.3,28.6 195.5,29.7 193.3,29.6 
			193.3,31.6 		"/>
		<polygon class="st0" points="241.3,80.7 241.4,78.5 238.9,78.5 238.9,80 		"/>
		<polygon class="st0" points="149.3,12.1 149.3,14.4 160.5,14.5 163.4,19.5 163.4,24 158,27.1 158.2,33.2 161.6,36.6 165.6,36.6 
			171.7,30.2 180.4,27.6 183.7,25.1 190.2,24.7 194.8,23.4 203.5,9.6 208.8,8.5 210.7,6.6 195.3,5.1 182,6.6 165.9,6.6 156.7,9.8 		
			"/>
		<polygon class="st0" points="410.9,99.1 409.6,97.8 407.4,100.8 409.6,102.8 		"/>
		<polygon class="st0" points="394,107.2 391.5,107.8 391.5,109.3 392.5,110.6 394,108.6 		"/>
		<path class="st0" d="M469.8,212.8l-1,3.2l7.3-5.2L474,208v-3.2l-1.2,0.5v4.5L469.8,212.8z M450.6,223.3l15.2-7.7v2l-11.7,7.7
			L450.6,223.3z M388.3,183.8l12.8-6l9.5-10.5l5.2,2.3l2.3-4.8l8.7-0.2l-2.2,4l7.2,6.2l4.8-4.8v-6.7l2.2,0.7l2.5,12l7.8,11l-0.8,8.3
			L434.1,210l-12.3-0.7l-1.5-8.3l-4.2,1.8l-4-3.5l-24.3,5.3l-1.5-1.8l2-4.8V183.8z"/>
		<polygon class="st0" points="427.8,68 430.8,68 432,65.8 425.5,63.1 425.6,68.5 426.9,69.3 		"/>
		<polygon class="st0" points="419.7,80.5 419.2,82.1 425.7,81.2 426.2,83.7 427.7,83.1 427.8,81.1 432.2,80 431.9,74.3 430,70.9 
			428,70.3 429.1,75.5 425.1,79.1 		"/>
		<polygon class="st0" points="418.6,83.7 420.9,83.4 421.7,84.5 420.8,87.2 		"/>
		<polygon class="st0" points="424.8,82.6 423.7,84.6 422.2,83 		"/>
		<polygon class="st0" points="417.7,117.6 414.2,117.3 412.9,115.7 414.2,112.7 412.9,109.9 410.5,109.8 410,114.8 413.3,118.8 
			417.2,119.3 		"/>
		<polygon class="st0" points="406.5,126.5 408.1,126.8 410.9,124.5 410.8,122.6 		"/>
		<polygon class="st0" points="418.8,130.1 418.8,132.3 421.1,131.6 420.3,130.2 422.2,129.7 420.6,124.7 419.4,127.8 415.6,127.8 
					"/>
		<polygon class="st0" points="411.9,119 413.6,120.6 413,121.6 411.7,120.3 		"/>
		<polygon class="st0" points="413.6,123 414.8,123.8 416,121.8 414.3,121.6 		"/>
		<polygon class="st0" points="418,120.9 419.6,123 421.4,123 419.7,120.3 		"/>
		<polygon class="st0" points="418,122.7 418.9,124.3 418.2,125.2 416.9,123.3 		"/>
		<polygon class="st0" points="416,124.3 416.9,125.5 416,126.5 415.1,125.4 		"/>
		<polyline class="st0" points="420.3,158.5 423.3,158.2 423.3,157 419.2,157 		"/>
		<polygon class="st0" points="389,150.7 389,147.4 376.2,134 371.7,132.3 386.7,152.7 		"/>
		<polygon class="st0" points="404.1,156.6 404.3,157.7 388.2,155 390.7,153 394.7,154.5 398.3,153.7 		"/>
		<polygon class="st0" points="414.4,156.6 411.9,156.6 412.4,158.2 414.8,158.2 415.8,157.4 		"/>
		<polygon class="st0" points="410.1,159.2 410.8,160.1 412.5,160.1 411.9,158.8 		"/>
		<polyline class="st0" points="419.2,157 416.7,159.8 418.6,160.1 420.3,158.5 		"/>
		<polygon class="st0" points="410.9,152.1 412.8,151.6 412.2,148.3 413.3,147.1 414.2,149.5 416.4,150.3 416.4,148.5 415.2,145.8 
			417.5,143.8 413.8,143.9 413,142.9 414.5,141.2 417.3,142.2 418.6,142.1 420.7,139.6 418.9,139.6 417.7,140.4 413.8,139.4 
			411.3,141.7 411.5,145.4 410,147.4 		"/>
		<polygon class="st0" points="424.8,146.9 424.4,148.4 428.6,148 428.6,146.9 		"/>
		<polygon class="st0" points="425.8,137.2 424.4,138.6 423.8,142 425.8,142.5 425.3,139.4 426.5,138 		"/>
		<polygon class="st0" points="435.3,146.3 434.7,143.4 430.1,144 		"/>
		<polyline class="st0" points="394.7,139.4 394.6,139.4 394.8,143.7 397.2,148 405,148 408.9,143.1 408.9,130.8 406,131.1 
			402.6,135.7 394.7,139.4 		"/>
		<polygon class="st0" points="447.8,158.7 451.6,155.2 456.6,160 461.1,160.9 455.5,155.3 455.8,152.4 441.4,144.8 437.2,148.2 
			432.9,146.5 432.4,148.9 434.9,148.8 441.3,151.5 442.5,154.8 440.4,156.1 		"/>
		<polygon class="st0" points="458.3,152.9 460.3,154.1 463.8,152.1 463.8,150.1 		"/>
		<polygon class="st0" points="461.1,147.2 465.1,150.1 466.8,149.6 462.7,147.1 		"/>
		<path class="st0" d="M448.9,30.5l4.1,0.1l-3.3-3.5l-21.1-4.2L395.8,22l-1.9-2.6l-11.4-1.8l-3.2,2.9H370l-3.8-2.9h-21l-1.3-4.6
			h-19.3l-17,7.6l3.7,4.6l-3.2,3.3l-2.9-9.5l-5.2-0.4l2.5,5.6l-19.9,0.6L264,32.4l-2.4-4.7l7.1,0.3l3.4-1.7L258.6,22l-11.5,0.5
			l-19.7,13.6l2,4.7l5.9-1l4.2,4.8l6.2-5.4l-2.9-3.6l6.5-7.2h2.4l-3.2,7.1l3.7,1.9h5.6l-1.7,1.5l-4.6,0.1l-0.4,1l1.7,1.2l-0.3,1.5
			l-3.2-1.5v5.7l-3.2,0.1l-0.8-0.7l-4.6,1.1h-6.3l-0.4-1.5l0.7-3.8l-1.9-0.1l-1.3,3l0.9,2.3l-15.7,9.5h-2.8v1.1l3.3,1.8l0.4,5.9
			l-11.4,0.1l-0.2,8.6l1.6,2.8l8,0.6l8.5-10.9h7.2l0.2-3h2.8l8,8l0.4,3.4l1.4-0.8l0.5-2.5l1.8-0.3l-9.7-8.5l2.7-0.2h1.2l3.4,3.9
			l1.8,0.4l2.2,4.3l1.7,1.9l2.7,0.8l-1.7,0.7l2.3,2.7l1.3-2.2l-1.5-3.3l3.1-1.6h5.6l-1.3-2.6l2.3-6.7h5.7l-1.2,1.3l1.7,1.1l2.4-0.2
			l-2.2-2.9l5.9-1.3l0.8,1.7l-1.8,0.5l0.3,2.8l6.4,2.3v3L263.2,70l-1.4,1.8h-3.4l2.8,5.5l12.6,0.7l-2.3,9.6l-20-2.7l-2.4,3.6l-5.4-1
			l-2.1-2.6l-6.3-1.5l0.3-5.8l-11-0.3l-7.9,3l-9.1,0.9l-16,20.9l-0.6,18.8l13.7,14.8l17.3-5l4.6,0.7l0.7,2.8h6.1l-0.2,10.7l6.4,8.6
			v11.7l-3,4.9l0.3,3.3l10.5,29.1H260l9.8-11.3l0.5-3.9l3.9-2.6l-0.3-8l8.9-7.4l-2-20.4l20.3-23.6l-0.7-3.5l-12.1,1.8l-2-3.5
			L268.8,90l3.5,2.8l1-2.4l12.5,21.8l2.5,8l16.3-7.3l8.2-10.2l-6.3-5.5l-2.6,3l-3.4-0.7l-1-0.7l0.9-0.9l-1.6-2.2l-0.7,2.2l-0.4-0.3
			l-5.5-8.8l1.9,0.1l2.4,0.3l5.5,5.7l10.1,3h11.6l2.6,3l3.2,1l-1.5,1.6l1.4,1.8l2.5,0.3l0.5-2.1h1l8.1,23.4l5.2-3.2l0.8-9.4l13-12.6
			l8.1,6.8l1,5l1.7,0.6l1.3-1.6l2.4,2.6l1.3,4.9l-0.5,7l3.6,3l1.7,5.6l5.7,4.8l0.4-1.7l-8.8-13l0.8-7.8l5.8,5.7l2.2-0.3l0.1,3.5
			l6.1-4.1l-0.2-6.1l-6.4-6.8l0.3-3.7l4.4-2.5l0.1,2l12.5-4.4l4.1-9.2l-7.3-11.9l3.7-4.1h-4.3l-1.4,0.9l-2.7-4.5l3.5-3l2.3,4.5
			l3.3-2.2l1.9,3.5l2.5,0.7l2.5,5.6l3.2-0.3l0.5-3.6l-4.3-3.5l-1.9-1.6l2.4-0.3l-0.4-4.9l4.6-0.8l2.5-3.7v-6.9l-7.1-8l-6.9-0.1
			l1.2-8.5l14.2,0.1l1.5-4.8l6,2.2v-2.2l1.5,0.2l2.6,2.4l-2.5,1.7L429,44l10.1,9.5v-9.2l-5.7-5.5l13.4-4.2l0.2-1.4l-6.8-1.9l2.7-2
			L448.9,30.5z M300.4,77.7h-4.9l-6.4-11.2v-5.3l5-2l3,2l-3.6,1.8l-0.1,2.6l7.3,6.1L300.4,77.7z M306.3,65.5h-2.8l-0.9-1.1l1.1-3.3
			l2.2,0.2l1.7,2.5L306.3,65.5z"/>
		<polygon class="st0" points="422.2,56.5 424.1,56.5 417.3,49.5 415.4,49.5 420.8,56.2 423.5,61.2 425.5,61.2 		"/>
		<polygon class="st0" points="237.6,45 236.4,43.8 235.3,44.2 235,45.9 237,45.9 		"/>
		<polygon class="st0" points="241.5,75 237.7,75 237.7,75.9 239.1,76.9 241.5,77.3 		"/>
		<polygon class="st0" points="231.4,69.5 231.4,73.5 233.2,73.5 233.2,70.1 		"/>
		<polygon class="st0" points="232.3,66.8 232.3,68.4 233.2,68.8 233.7,66.8 		"/>
		<polygon class="st0" points="216,45.7 216.1,48.2 214.4,49.1 215.9,51.3 212.8,54.1 216.8,53.4 220.9,52.8 221.1,51.3 222,51.3 
			222.2,49.6 219.5,49 216.2,41.5 213.7,41.4 213.7,45.5 		"/>
		<polyline class="st0" points="209.9,45.7 206.9,47.9 206.9,52.3 208.6,52.2 208.6,50.7 211.8,51.2 211.6,47.9 212.8,47.5 
			212.8,45.9 209.9,45.7 		"/>
		<polygon class="st0" points="224.2,73.4 224.2,71.5 222,73.4 		"/>
		<polygon class="st0" points="271,79.4 267.4,80.7 270,81.4 		"/>
		<polygon class="st0" points="286.6,182.7 288.3,186.7 292.4,186.9 299.3,164.6 296.9,164.6 288.8,173 288,178.8 		"/>
		<polygon class="st0" points="44.4,55 41.8,52.8 40.7,53.8 42.5,56.2 44.4,56.2 		"/>
		<polygon class="st0" points="145.2,58.3 143.3,55.2 141.5,54.7 141.5,52.5 135.8,58.3 		"/>
		<polygon class="st0" points="142.2,22 130.7,17.3 129,17.2 125,20.5 126.3,17.2 124.4,17.2 119.7,22.2 131.1,21.6 138,27.8 
			133.3,27.7 131,29.6 125.7,29.6 125.7,31.1 131.1,31.1 135.6,34.9 136.8,34.3 135.8,31.9 138.9,33.4 139.9,33 139.9,28.3 
			143.5,29.6 145.6,28.2 144.4,26 142.3,25.3 		"/>
		<polygon class="st0" points="117.3,29.6 114.4,32 120.2,32.6 120.8,31.1 		"/>
		<polygon class="st0" points="105.9,23.5 107,24.9 109.7,23.5 108.9,22.2 		"/>
		<polygon class="st0" points="108,18.8 109.7,20.5 113.5,19.3 114.5,16.6 		"/>
		<polygon class="st0" points="115.2,17.7 115.7,19.4 120.8,18 119.8,16.6 		"/>
		<polygon class="st0" points="128.3,14.2 125.5,13 122.8,15.4 133.9,16.2 136.8,14.2 		"/>
		<polygon class="st0" points="155.4,7.9 161.2,4.7 138.1,6.4 138.1,7.6 145.9,7.5 144.8,8.9 136.8,9.1 137.8,10.9 134.4,10.4 
			135.7,12.1 129.8,12.1 130.7,13 137.2,13 138.2,13.9 147.7,9.5 		"/>
		<polygon class="st0" points="127.2,9.3 131.5,10.1 133.9,8.5 132.2,7.2 		"/>
		<polygon class="st0" points="81.9,20.5 92,17.1 89.6,16 80.1,18.5 		"/>
		<polygon class="st0" points="93.3,17.7 87.8,19.6 91,20.9 86,22.2 92.2,24.6 96.5,22.8 101.3,23.9 104.8,23.1 101.3,21.5 104,18 
			101.3,18 99.7,20.1 99.1,18 96.2,19.1 		"/>
		<polygon class="st0" points="85.4,102.6 90.3,102.6 94.3,105.2 92.8,106.9 99.7,106.9 91.5,101 87.1,101 		"/>
		<polygon class="st0" points="92.3,110 93.4,110.9 96.3,110.9 96.3,109.8 95.3,108.8 92.3,108.8 		"/>
		<polygon class="st0" points="110.7,109.2 110.1,110.2 111.7,110.2 112.3,109.2 		"/>
		<polygon class="st0" points="123.3,236.5 125.5,238.5 132.3,238.8 125,234.9 		"/>
		<path class="st0" d="M125.3,131.4"/>
		<path class="st0" d="M153.8,147.3l-8-0.4l0.2-2.2l-3.7-1.7l-3.7,2.2l1.2-3.2l-2.5-1.1l-3.5,2.7l2.5-3.8l-3.5-7.7l-7.5-0.7
			l-6.8-6.4l-6.5-0.6l-3.7-2.6l-10.2-0.1l-3.5,4.8l-1.9,0.1l-0.5-1.8l-3.8,0.3l-1.4,1.2l-2.8-1.6l-0.3-10.8l-8,0.1l3.2-5.9l0.1-3.4
			l-3.4-0.1l-2.7,4.5h-7.6l-3.6-7.9l3-3.8l7.1-8.8h16.8l1.1,8.4l2.6,0.1l0.1-10.5l27.2-23.2l1.8-0.3V63l5.1-0.9l-3.4,1.7l0.3,1.3
			l9.2-3.2l-4.5-0.2l-2-1.9l2-3.2l-1-0.9l-6.5,2.9v-1.7l6.2-3l10-0.4l7.5-4v-1.8l-5.4-0.9l-0.7-9l-7.1,2.9v-4.2l-3.4-3h-4.7
			l-12.6,18.4h-3.1l0.1-6L96.7,40l10.9-8.1l6.1-1.1l-1.2-1.9l9.5-1.1l3.8-4l-3.6-0.4l-5,3.3l0.6-2.8l-2.4-0.2l-0.5-3.5l-4.1,1.8
			l1.1,2.2l-5.4,2.6L97.1,25l-5,2.4L80,22.5L56.9,23l-3.6-1.5l-19.1,0.1l-7.8,3.1v3.5l-8.7-0.1l-1.6,2.3l7.3-0.3L14,33.6l-4.6,6.2
			h3.9l-7.5,4.9l2.8,0.2L23,38l16.6-0.5l5,5l-2,8.9l3.5,3.1v1.7h0.1L33.4,69.7v10.4l4.7,4.7l0.7,7.3l5,9.5l2-1.6l-3.9-8.4v-4.8h2.3
			l0.1,4.4l7.5,17.7L64,114l3.1-0.8l2.7,2.7h-0.1l7.6,3.6l5.4,7.3l5.3,1.9l1.1-1.6l2.5,0.3l1.4,4.8l-0.7,4.6l-5.1,6.5l-0.5,7.7
			l10.8,18.4l9.3,6.3l1.6,38.2l4.1,3.4l0.2,6.8l7.2,9.3l4.2,0.4l-1-20.1L134,209l-5-6.9l5.9,2.2l2.4-4.1l4.8-8.4l1.1-7.3l11.7-5.1
			l2.1-16.1l5.1-6.6v-4L153.8,147.3z M106.8,64.1h1.7l-2.4,1.7h-1.8L106.8,64.1z M96.8,68.9l2.5-1.7h3l-2.5,1.7H96.8z M89.5,58.3
			l7.7-1.7l1,3.5l1.5,1.1l2.7-0.2l1,3.1h-1.5l-2.1,1.7L97.6,66l0.5-3.7h-1.7l-1.9,1.3l-3.6,5.3h-2.2l4.1-6.6l4.8-1l-0.2-0.9
			l-3.2-0.1l-1.5-1l-1.9,1h-2.2L89.5,58.3z"/>
		<polyline class="st0" points="103.5,107.2 100.5,107.2 101.5,108.6 99.7,108.6 99.7,109.3 103.5,109.3 103.5,109.9 105.2,108.7 
			107.8,108.7 108.4,107.8 103.5,107.2 		"/>
		<polygon class="st0" points="89.7,119.8 89.7,118.2 87.8,119.8 		"/>
	</g>
</g>
<g id="border_1_">
	<g>
		<polygon class="st1" points="264.3,194.6 262.9,196.1 260.6,196.1 260.6,193.9 262.4,192.7 264.3,192.7 		"/>
		<polygon class="st1" points="135.8,58.3 145.3,58.3 143.3,55.2 141.5,54.8 141.5,52.5 		"/>
		<polygon class="st1" points="200.9,32.7 205.5,30.5 205.5,29.9 203.2,27.6 200.1,28.6 196.3,28.6 195.5,29.7 193.3,29.6 
			193.3,31.6 		"/>
		<polygon class="st1" points="241.3,80.7 241.4,78.5 238.9,78.5 238.9,80 		"/>
		<polygon class="st1" points="149.3,12.1 149.3,14.4 160.5,14.5 163.4,19.5 163.4,24 158,27.1 158.2,33.2 161.6,36.6 165.6,36.6 
			171.7,30.2 180.4,27.6 183.7,25.1 190.2,24.7 194.8,23.4 203.5,9.6 208.8,8.5 210.7,6.6 195.3,5.1 182,6.6 165.9,6.6 156.7,9.8 		
			"/>
		<polygon class="st1" points="410.9,99.1 409.6,97.8 407.4,100.8 409.6,102.8 		"/>
		<polygon class="st1" points="394,107.2 391.5,107.8 391.5,109.3 392.5,110.6 394,108.6 		"/>
		<path class="st1" d="M469.8,212.8l-1,3.2l7.3-5.2L474,208v-3.2l-1.2,0.5v4.5L469.8,212.8z M450.6,223.3l15.2-7.7v2l-11.7,7.7
			L450.6,223.3z M388.3,183.8l12.8-6l9.5-10.5l5.2,2.3l2.3-4.8l8.7-0.2l-2.2,4l7.2,6.2l4.8-4.8v-6.7l2.2,0.7l2.5,12l7.8,11l-0.8,8.3
			L434.1,210l-12.3-0.7l-1.5-8.3l-4.2,1.8l-4-3.5l-24.3,5.3l-1.5-1.8l2-4.8V183.8z"/>
		<polygon class="st1" points="427.8,68 430.8,68 432,65.8 425.5,63.1 425.6,68.5 426.9,69.3 		"/>
		<polygon class="st1" points="419.7,80.5 419.2,82.1 425.7,81.2 426.2,83.7 427.7,83.1 427.8,81.1 432.2,80 431.9,74.3 430,70.9 
			428,70.3 429.1,75.5 425.1,79.1 		"/>
		<polygon class="st1" points="418.6,83.7 420.9,83.4 421.7,84.5 420.8,87.2 		"/>
		<polygon class="st1" points="424.8,82.6 423.7,84.6 422.2,83 		"/>
		<polygon class="st1" points="417.7,117.6 414.2,117.3 412.9,115.7 414.2,112.7 412.9,109.9 410.5,109.8 410,114.8 413.3,118.8 
			417.2,119.3 		"/>
		<polygon class="st1" points="406.5,126.5 408.1,126.8 410.9,124.5 410.8,122.6 		"/>
		<polygon class="st1" points="418.8,130.1 418.8,132.3 421.1,131.6 420.3,130.2 422.2,129.7 420.6,124.7 419.4,127.8 415.6,127.8 
					"/>
		<polygon class="st1" points="411.9,119 413.6,120.6 413,121.6 411.7,120.3 		"/>
		<polygon class="st1" points="413.6,123 414.8,123.8 416,121.8 414.3,121.6 		"/>
		<polygon class="st1" points="418,120.9 419.6,123 421.4,123 419.7,120.3 		"/>
		<polygon class="st1" points="418,122.7 418.9,124.3 418.2,125.2 416.9,123.3 		"/>
		<polygon class="st1" points="416,124.3 416.9,125.5 416,126.5 415.1,125.4 		"/>
		<polyline class="st1" points="420.3,158.5 423.3,158.2 423.3,157 419.2,157 		"/>
		<polygon class="st1" points="389,150.7 389,147.4 376.2,134 371.7,132.3 386.7,152.7 		"/>
		<polygon class="st1" points="404.1,156.6 404.3,157.7 388.2,155 390.7,153 394.7,154.5 398.3,153.7 		"/>
		<polygon class="st1" points="414.4,156.6 411.9,156.6 412.4,158.2 414.8,158.2 415.8,157.4 		"/>
		<polygon class="st1" points="410.1,159.2 410.8,160.1 412.5,160.1 411.9,158.8 		"/>
		<polyline class="st1" points="419.2,157 416.7,159.8 418.6,160.1 420.3,158.5 		"/>
		<polygon class="st1" points="410.9,152.1 412.8,151.6 412.2,148.3 413.3,147.1 414.2,149.5 416.4,150.3 416.4,148.5 415.2,145.8 
			417.5,143.8 413.8,143.9 413,142.9 414.5,141.2 417.3,142.2 418.6,142.1 420.7,139.6 418.9,139.6 417.7,140.4 413.8,139.4 
			411.3,141.7 411.5,145.4 410,147.4 		"/>
		<polygon class="st1" points="424.8,146.9 424.4,148.4 428.6,148 428.6,146.9 		"/>
		<polygon class="st1" points="425.8,137.2 424.4,138.6 423.8,142 425.8,142.5 425.3,139.4 426.5,138 		"/>
		<polygon class="st1" points="435.3,146.3 434.7,143.4 430.1,144 		"/>
		<polyline class="st1" points="394.7,139.4 394.6,139.4 394.8,143.7 397.2,148 405,148 408.9,143.1 408.9,130.8 406,131.1 
			402.6,135.7 394.7,139.4 		"/>
		<polygon class="st1" points="447.8,158.7 451.6,155.2 456.6,160 461.1,160.9 455.5,155.3 455.8,152.4 441.4,144.8 437.2,148.2 
			432.9,146.5 432.4,148.9 434.9,148.8 441.3,151.5 442.5,154.8 440.4,156.1 		"/>
		<polygon class="st1" points="458.3,152.9 460.3,154.1 463.8,152.1 463.8,150.1 		"/>
		<polygon class="st1" points="461.1,147.2 465.1,150.1 466.8,149.6 462.7,147.1 		"/>
		<path class="st1" d="M448.9,30.5l4.1,0.1l-3.3-3.5l-21.1-4.2L395.8,22l-1.9-2.6l-11.4-1.8l-3.2,2.9H370l-3.8-2.9h-21l-1.3-4.6
			h-19.3l-17,7.6l3.7,4.6l-3.2,3.3l-2.9-9.5l-5.2-0.4l2.5,5.6l-19.9,0.6L264,32.4l-2.4-4.7l7.1,0.3l3.4-1.7L258.6,22l-11.5,0.5
			l-19.7,13.6l2,4.7l5.9-1l4.2,4.8l6.2-5.4l-2.9-3.6l6.5-7.2h2.4l-3.2,7.1l3.7,1.9h5.6l-1.7,1.5l-4.6,0.1l-0.4,1l1.7,1.2l-0.3,1.5
			l-3.2-1.5v5.7l-3.2,0.1l-0.8-0.7l-4.6,1.1h-6.3l-0.4-1.5l0.7-3.8l-1.9-0.1l-1.3,3l0.9,2.3l-15.7,9.5h-2.8v1.1l3.3,1.8l0.4,5.9
			l-11.4,0.1l-0.2,8.6l1.6,2.8l8,0.6l8.5-10.9h7.2l0.2-3h2.8l8,8l0.4,3.4l1.4-0.8l0.5-2.5l1.8-0.3l-9.7-8.5l2.7-0.2h1.2l3.4,3.9
			l1.8,0.4l2.2,4.3l1.7,1.9l2.7,0.8l-1.7,0.7l2.3,2.7l1.3-2.2l-1.5-3.3l3.1-1.6h5.6l-1.3-2.6l2.3-6.7h5.7l-1.2,1.3l1.7,1.1l2.4-0.2
			l-2.2-2.9l5.9-1.3l0.8,1.7l-1.8,0.5l0.3,2.8l6.4,2.3v3L263.2,70l-1.4,1.8h-3.4l2.8,5.5l12.6,0.7l-2.3,9.6l-20-2.7l-2.4,3.6l-5.4-1
			l-2.1-2.6l-6.3-1.5l0.3-5.8l-11-0.3l-7.9,3l-9.1,0.9l-16,20.9l-0.6,18.8l13.7,14.8l17.3-5l4.6,0.7l0.7,2.8h6.1l-0.2,10.7l6.4,8.6
			v11.7l-3,4.9l0.3,3.3l10.5,29.1H260l9.8-11.3l0.5-3.9l3.9-2.6l-0.3-8l8.9-7.4l-2-20.4l20.3-23.6l-0.7-3.5l-12.1,1.8l-2-3.5
			L268.8,90l3.5,2.8l1-2.4l12.5,21.8l2.5,8l16.3-7.3l8.2-10.2l-6.3-5.5l-2.6,3l-3.4-0.7l-1-0.7l0.9-0.9l-1.6-2.2l-0.7,2.2l-0.4-0.3
			l-5.5-8.8l1.9,0.1l2.4,0.3l5.5,5.7l10.1,3h11.6l2.6,3l3.2,1l-1.5,1.6l1.4,1.8l2.5,0.3l0.5-2.1h1l8.1,23.4l5.2-3.2l0.8-9.4l13-12.6
			l8.1,6.8l1,5l1.7,0.6l1.3-1.6l2.4,2.6l1.3,4.9l-0.5,7l3.6,3l1.7,5.6l5.7,4.8l0.4-1.7l-8.8-13l0.8-7.8l5.8,5.7l2.2-0.3l0.1,3.5
			l6.1-4.1l-0.2-6.1l-6.4-6.8l0.3-3.7l4.4-2.5l0.1,2l12.5-4.4l4.1-9.2l-7.3-11.9l3.7-4.1h-4.3l-1.4,0.9l-2.7-4.5l3.5-3l2.3,4.5
			l3.3-2.2l1.9,3.5l2.5,0.7l2.5,5.6l3.2-0.3l0.5-3.6l-4.3-3.5l-1.9-1.6l2.4-0.3l-0.4-4.9l4.6-0.8l2.5-3.7v-6.9l-7.1-8l-6.9-0.1
			l1.2-8.5l14.2,0.1l1.5-4.8l6,2.2v-2.2l1.5,0.2l2.6,2.4l-2.5,1.7L429,44l10.1,9.5v-9.2l-5.7-5.5l13.4-4.2l0.2-1.4l-6.8-1.9l2.7-2
			L448.9,30.5z M300.4,77.7h-4.9l-6.4-11.2v-5.3l5-2l3,2l-3.6,1.8l-0.1,2.6l7.3,6.1L300.4,77.7z M306.3,65.5h-2.8l-0.9-1.1l1.1-3.3
			l2.2,0.2l1.7,2.5L306.3,65.5z"/>
		<polygon class="st1" points="422.2,56.5 424.1,56.5 417.3,49.5 415.4,49.5 420.8,56.2 423.5,61.2 425.5,61.2 		"/>
		<polygon class="st1" points="237.6,45 236.4,43.8 235.3,44.2 235,45.9 237,45.9 		"/>
		<polygon class="st1" points="241.5,75 237.7,75 237.7,75.9 239.1,76.9 241.5,77.3 		"/>
		<polygon class="st1" points="231.4,69.5 231.4,73.5 233.2,73.5 233.2,70.1 		"/>
		<polygon class="st1" points="232.3,66.8 232.3,68.4 233.2,68.8 233.7,66.8 		"/>
		<polygon class="st1" points="216,45.7 216.1,48.2 214.4,49.1 215.9,51.3 212.8,54.1 216.8,53.4 220.9,52.8 221.1,51.3 222,51.3 
			222.2,49.6 219.5,49 216.2,41.5 213.7,41.4 213.7,45.5 		"/>
		<polyline class="st1" points="209.9,45.7 206.9,47.9 206.9,52.3 208.6,52.2 208.6,50.7 211.8,51.2 211.6,47.9 212.8,47.5 
			212.8,45.9 209.9,45.7 		"/>
		<polygon class="st1" points="224.2,73.4 224.2,71.5 222,73.4 		"/>
		<polygon class="st1" points="271,79.4 267.4,80.7 270,81.4 		"/>
		<polygon class="st1" points="286.6,182.7 288.3,186.7 292.4,186.9 299.3,164.6 296.9,164.6 288.8,173 288,178.8 		"/>
		<polygon class="st1" points="44.4,55 41.8,52.8 40.7,53.8 42.5,56.2 44.4,56.2 		"/>
		<polygon class="st1" points="145.2,58.3 143.3,55.2 141.5,54.7 141.5,52.5 135.8,58.3 		"/>
		<polygon class="st1" points="142.2,22 130.7,17.3 129,17.2 125,20.5 126.3,17.2 124.4,17.2 119.7,22.2 131.1,21.6 138,27.8 
			133.3,27.7 131,29.6 125.7,29.6 125.7,31.1 131.1,31.1 135.6,34.9 136.8,34.3 135.8,31.9 138.9,33.4 139.9,33 139.9,28.3 
			143.5,29.6 145.6,28.2 144.4,26 142.3,25.3 		"/>
		<polygon class="st1" points="117.3,29.6 114.4,32 120.2,32.6 120.8,31.1 		"/>
		<polygon class="st1" points="105.9,23.5 107,24.9 109.7,23.5 108.9,22.2 		"/>
		<polygon class="st1" points="108,18.8 109.7,20.5 113.5,19.3 114.5,16.6 		"/>
		<polygon class="st1" points="115.2,17.7 115.7,19.4 120.8,18 119.8,16.6 		"/>
		<polygon class="st1" points="128.3,14.2 125.5,13 122.8,15.4 133.9,16.2 136.8,14.2 		"/>
		<polygon class="st1" points="155.4,7.9 161.2,4.7 138.1,6.4 138.1,7.6 145.9,7.5 144.8,8.9 136.8,9.1 137.8,10.9 134.4,10.4 
			135.7,12.1 129.8,12.1 130.7,13 137.2,13 138.2,13.9 147.7,9.5 		"/>
		<polygon class="st1" points="127.2,9.3 131.5,10.1 133.9,8.5 132.2,7.2 		"/>
		<polygon class="st1" points="81.9,20.5 92,17.1 89.6,16 80.1,18.5 		"/>
		<polygon class="st1" points="93.3,17.7 87.8,19.6 91,20.9 86,22.2 92.2,24.6 96.5,22.8 101.3,23.9 104.8,23.1 101.3,21.5 104,18 
			101.3,18 99.7,20.1 99.1,18 96.2,19.1 		"/>
		<polygon class="st1" points="85.4,102.6 90.3,102.6 94.3,105.2 92.8,106.9 99.7,106.9 91.5,101 87.1,101 		"/>
		<polygon class="st1" points="92.3,110 93.4,110.9 96.3,110.9 96.3,109.8 95.3,108.8 92.3,108.8 		"/>
		<polygon class="st1" points="110.7,109.2 110.1,110.2 111.7,110.2 112.3,109.2 		"/>
		<polygon class="st1" points="123.3,236.5 125.5,238.5 132.3,238.8 125,234.9 		"/>
		<path class="st1" d="M125.3,131.4"/>
		<path class="st1" d="M153.8,147.3l-8-0.4l0.2-2.2l-3.7-1.7l-3.7,2.2l1.2-3.2l-2.5-1.1l-3.5,2.7l2.5-3.8l-3.5-7.7l-7.5-0.7
			l-6.8-6.4l-6.5-0.6l-3.7-2.6l-10.2-0.1l-3.5,4.8l-1.9,0.1l-0.5-1.8l-3.8,0.3l-1.4,1.2l-2.8-1.6l-0.3-10.8l-8,0.1l3.2-5.9l0.1-3.4
			l-3.4-0.1l-2.7,4.5h-7.6l-3.6-7.9l3-3.8l7.1-8.8h16.8l1.1,8.4l2.6,0.1l0.1-10.5l27.2-23.2l1.8-0.3V63l5.1-0.9l-3.4,1.7l0.3,1.3
			l9.2-3.2l-4.5-0.2l-2-1.9l2-3.2l-1-0.9l-6.5,2.9v-1.7l6.2-3l10-0.4l7.5-4v-1.8l-5.4-0.9l-0.7-9l-7.1,2.9v-4.2l-3.4-3h-4.7
			l-12.6,18.4h-3.1l0.1-6L96.7,40l10.9-8.1l6.1-1.1l-1.2-1.9l9.5-1.1l3.8-4l-3.6-0.4l-5,3.3l0.6-2.8l-2.4-0.2l-0.5-3.5l-4.1,1.8
			l1.1,2.2l-5.4,2.6L97.1,25l-5,2.4L80,22.5L56.9,23l-3.6-1.5l-19.1,0.1l-7.8,3.1v3.5l-8.7-0.1l-1.6,2.3l7.3-0.3L14,33.6l-4.6,6.2
			h3.9l-7.5,4.9l2.8,0.2L23,38l16.6-0.5l5,5l-2,8.9l3.5,3.1v1.7h0.1L33.4,69.7v10.4l4.7,4.7l0.7,7.3l5,9.5l2-1.6l-3.9-8.4v-4.8h2.3
			l0.1,4.4l7.5,17.7L64,114l3.1-0.8l2.7,2.7h-0.1l7.6,3.6l5.4,7.3l5.3,1.9l1.1-1.6l2.5,0.3l1.4,4.8l-0.7,4.6l-5.1,6.5l-0.5,7.7
			l10.8,18.4l9.3,6.3l1.6,38.2l4.1,3.4l0.2,6.8l7.2,9.3l4.2,0.4l-1-20.1L134,209l-5-6.9l5.9,2.2l2.4-4.1l4.8-8.4l1.1-7.3l11.7-5.1
			l2.1-16.1l5.1-6.6v-4L153.8,147.3z M106.8,64.1h1.7l-2.4,1.7h-1.8L106.8,64.1z M96.8,68.9l2.5-1.7h3l-2.5,1.7H96.8z M89.5,58.3
			l7.7-1.7l1,3.5l1.5,1.1l2.7-0.2l1,3.1h-1.5l-2.1,1.7L97.6,66l0.5-3.7h-1.7l-1.9,1.3l-3.6,5.3h-2.2l4.1-6.6l4.8-1l-0.2-0.9
			l-3.2-0.1l-1.5-1l-1.9,1h-2.2L89.5,58.3z"/>
		<polyline class="st1" points="103.5,107.2 100.5,107.2 101.5,108.6 99.7,108.6 99.7,109.3 103.5,109.3 103.5,109.9 105.2,108.7 
			107.8,108.7 108.4,107.8 103.5,107.2 		"/>
		<polygon class="st1" points="89.7,119.8 89.7,118.2 87.8,119.8 		"/>
	</g>
</g>
<g id="division">
	<g>
		<polygon class="st2" points="264.3,194.6 262.9,196.1 260.6,196.1 260.6,193.9 262.4,192.7 264.3,192.7 		"/>
		<polygon class="st2" points="268.4,188.3 268.4,190.4 266.6,189.3 266.6,187.7 268.4,187.7 268.4,181.7 263.8,181.7 252.8,189 
			250.2,186 250.2,192 243.5,192 247.4,202.6 260,202.6 269.8,191.3 270.2,188.3 		"/>
		<polygon class="st2" points="96.8,68.9 99.3,67.2 102.3,67.2 99.8,68.9 		"/>
		<polygon class="st2" points="119.8,59.8 116.5,62.6 109.1,62.6 106.8,64.1 108.5,64.1 106.1,65.8 104.3,65.8 106.8,64.1 
			101.9,64.1 99.8,65.8 97.6,66 98.1,62.3 96.4,62.3 94.5,63.6 90.9,68.9 88.7,68.9 92.8,62.3 97.6,61.3 97.4,60.4 94.2,60.3 
			92.7,59.3 90.8,60.3 88.6,60.3 89.5,58.3 85,56.2 46.2,56.2 33.4,69.7 33.4,80.1 38,84.7 54.4,86.8 56.5,90.1 61.1,90 64.9,97.4 
			72,88.6 88.8,88.6 89.9,97 92.5,97.1 92.6,86.6 119.8,63.4 121.6,63.1 122.7,59.8 		"/>
		<polygon class="st2" points="135.8,58.3 145.3,58.3 143.3,55.2 141.5,54.8 141.5,52.5 		"/>
		<polygon class="st2" points="65.5,109.1 61.9,101.2 64.9,97.4 61.1,90 56.5,90.1 54.4,86.8 38,84.7 38.1,84.8 38.8,92.1 
			43.8,101.6 45.8,100 41.9,91.6 41.9,86.8 44.2,86.8 44.3,91.2 51.8,108.9 64,114 67.1,113.2 69.8,115.9 71.1,113.5 73.9,113.5 
			73.5,110.4 75.9,110.4 79.1,108.1 79.2,104.7 75.8,104.6 73.1,109.1 		"/>
		<polygon class="st2" points="200.9,32.7 205.5,30.5 205.5,29.9 203.2,27.6 200.1,28.6 196.3,28.6 195.5,29.7 193.3,29.6 
			193.3,31.6 		"/>
		<polygon class="st2" points="241.3,80.7 241.4,78.5 238.9,78.5 238.9,80 		"/>
		<polygon class="st2" points="149.3,12.1 149.3,14.4 160.5,14.5 163.4,19.5 163.4,24 158,27.1 158.2,33.2 161.6,36.6 165.6,36.6 
			171.7,30.2 180.4,27.6 183.7,25.1 190.2,24.7 194.8,23.4 203.5,9.6 208.8,8.5 210.7,6.6 195.3,5.1 182,6.6 165.9,6.6 156.7,9.8 		
			"/>
		<polygon class="st2" points="410.9,99.1 409.6,97.8 407.4,100.8 409.6,102.8 		"/>
		<polygon class="st2" points="390.2,61.2 390.7,58.8 386.1,58.1 384.4,55.3 375.8,55.3 358.3,50.9 356.3,55.3 349.2,53.1 
			343.9,57.1 361.2,67.3 381.3,67.5 383.7,62.6 		"/>
		<polygon class="st2" points="394,107.2 391.5,107.8 391.5,109.3 392.5,110.6 394,108.6 		"/>
		<polygon class="st2" points="384.4,55.3 386.1,58.1 390.7,58.8 390.2,61.2 383.7,62.6 381.3,67.5 361.2,67.3 343.9,57.1 
			336.4,62.9 337.6,68.7 330.1,71.5 332.2,76.7 340.2,80.4 340.6,86.8 361.5,94.1 365.4,90.5 373.6,94.1 372.5,97.1 376.8,104.4 
			384.4,100.5 389.4,104.8 391.5,103.6 391.6,105.6 404.1,101.2 408.2,92 400.9,80.1 404.6,76 400.3,76 398.9,76.9 396.2,72.4 
			399.7,69.4 402,73.9 405.3,71.7 411.7,67.3 411.7,58.8 401.2,56.1 393.4,48.5 385.9,48.5 387.6,54.6 		"/>
		<path class="st2" d="M469.8,212.8l-1,3.2l7.3-5.2L474,208v-3.2l-1.2,0.5v4.5L469.8,212.8z M450.6,223.3l15.2-7.7v2l-11.7,7.7
			L450.6,223.3z M388.3,183.8l12.8-6l9.5-10.5l5.2,2.3l2.3-4.8l8.7-0.2l-2.2,4l7.2,6.2l4.8-4.8v-6.7l2.2,0.7l2.5,12l7.8,11l-0.8,8.3
			L434.1,210l-12.3-0.7l-1.5-8.3l-4.2,1.8l-4-3.5l-24.3,5.3l-1.5-1.8l2-4.8V183.8z"/>
		<polygon class="st2" points="427.8,68 430.8,68 432,65.8 425.5,63.1 425.6,68.5 426.9,69.3 		"/>
		<polygon class="st2" points="419.7,80.5 419.2,82.1 425.7,81.2 426.2,83.7 427.7,83.1 427.8,81.1 432.2,80 431.9,74.3 430,70.9 
			428,70.3 429.1,75.5 425.1,79.1 		"/>
		<polygon class="st2" points="418.6,83.7 420.9,83.4 421.7,84.5 420.8,87.2 		"/>
		<polygon class="st2" points="424.8,82.6 423.7,84.6 422.2,83 		"/>
		<polygon class="st2" points="417.7,117.6 414.2,117.3 412.9,115.7 414.2,112.7 412.9,109.9 410.5,109.8 410,114.8 413.3,118.8 
			417.2,119.3 		"/>
		<polygon class="st2" points="406.5,126.5 408.1,126.8 410.9,124.5 410.8,122.6 		"/>
		<polygon class="st2" points="418.8,130.1 418.8,132.3 421.1,131.6 420.3,130.2 422.2,129.7 420.6,124.7 419.4,127.8 415.6,127.8 
					"/>
		<polygon class="st2" points="411.9,119 413.6,120.6 413,121.6 411.7,120.3 		"/>
		<polygon class="st2" points="413.6,123 414.8,123.8 416,121.8 414.3,121.6 		"/>
		<polygon class="st2" points="418,120.9 419.6,123 421.4,123 419.7,120.3 		"/>
		<polygon class="st2" points="418,122.7 418.9,124.3 418.2,125.2 416.9,123.3 		"/>
		<polygon class="st2" points="416,124.3 416.9,125.5 416,126.5 415.1,125.4 		"/>
		<polygon class="st2" points="419.2,157 420.3,158.5 423.3,158.2 423.3,157 		"/>
		<polygon class="st2" points="394.6,139.4 394.8,143.7 397.2,148 405,148 408.9,143.1 408.9,134.1 406.1,134.4 403.9,138.7 
			396.3,140.4 394.7,139.4 		"/>
		<polygon class="st2" points="389,150.7 389,147.4 376.2,134 371.7,132.3 386.7,152.7 		"/>
		<polygon class="st2" points="404.1,156.6 404.3,157.7 388.2,155 390.7,153 394.7,154.5 398.3,153.7 		"/>
		<polygon class="st2" points="414.4,156.6 411.9,156.6 412.4,158.2 414.8,158.2 415.8,157.4 		"/>
		<polygon class="st2" points="410.1,159.2 410.8,160.1 412.5,160.1 411.9,158.8 		"/>
		<polygon class="st2" points="419.2,157 416.7,159.8 418.6,160.1 420.3,158.5 		"/>
		<polygon class="st2" points="410.9,152.1 412.8,151.6 412.2,148.3 413.3,147.1 414.2,149.5 416.4,150.3 416.4,148.5 415.2,145.8 
			417.5,143.8 413.8,143.9 413,142.9 414.5,141.2 417.3,142.2 418.6,142.1 420.7,139.6 418.9,139.6 417.7,140.4 413.8,139.4 
			411.3,141.7 411.5,145.4 410,147.4 		"/>
		<polygon class="st2" points="424.8,146.9 424.4,148.4 428.6,148 428.6,146.9 		"/>
		<polygon class="st2" points="425.8,137.2 424.4,138.6 423.8,142 425.8,142.5 425.3,139.4 426.5,138 		"/>
		<polygon class="st2" points="435.3,146.3 434.7,143.4 430.1,144 		"/>
		<polygon class="st2" points="434.9,148.8 441.3,151.5 442.5,154.8 440.4,156.1 445.8,158 445.8,147.2 441.4,144.8 437.2,148.2 
			432.9,146.5 432.4,148.9 		"/>
		<polygon class="st2" points="415.9,77.6 411.6,74.1 409.7,75.9 412.2,81.5 415.4,81.2 		"/>
		<polygon class="st2" points="411.6,74.1 409.7,72.5 412.1,72.2 411.7,67.3 405.3,71.7 407.2,75.2 409.7,75.9 		"/>
		<polygon class="st2" points="406,131.1 402.6,135.7 394.7,139.4 396.3,140.4 403.9,138.7 406.1,134.4 408.9,134.1 408.9,130.8 		
			"/>
		<polygon class="st2" points="379.7,131.1 381.1,135.6 386.8,140.4 387.2,138.7 381.9,130.8 		"/>
		<polygon class="st2" points="447.8,158.7 451.6,155.2 456.6,160 461.1,160.9 455.5,155.3 455.8,152.4 445.8,147.2 445.8,158 		"/>
		<polygon class="st2" points="458.3,152.9 460.3,154.1 463.8,152.1 463.8,150.1 		"/>
		<polygon class="st2" points="461.1,147.2 465.1,150.1 466.8,149.6 462.7,147.1 		"/>
		<polygon class="st2" points="376.8,104.4 372.5,97.1 373.6,94.1 371.1,93 367.7,95.4 366.1,106.4 368.6,108.5 369.6,113.5 
			371.3,114.1 372.6,112.5 375,115.1 376.3,120 376,125 378,121 374.3,107.9 376.8,106.1 		"/>
		<polygon class="st2" points="384.1,110.6 387,114.5 384.3,117.3 390.4,117.3 390.4,115.7 384.5,109.4 383.1,105.3 379,103.3 
			376.8,104.4 376.8,106.1 378.9,107.3 378.9,110.6 		"/>
		<polygon class="st2" points="378.9,110.6 378.9,107.3 376.8,106.1 374.3,107.9 378,121 376,125 375.8,127 379.4,130 379.7,131.1 
			381.9,130.8 378.4,125.7 379.2,117.9 383.1,121.7 383.1,118.5 387,114.5 384.1,110.6 		"/>
		<polygon class="st2" points="383.1,118.5 383.1,121.7 385,123.6 387.2,123.3 390.4,120.9 390.4,117.3 384.3,117.3 		"/>
		<polygon class="st2" points="384.5,109.4 390.4,115.7 390.4,120.9 387.2,123.3 387.3,126.8 393.4,122.7 393.2,116.6 386.8,109.8 
			387.1,106.1 389.4,104.8 384.4,100.5 379,103.3 383.1,105.3 		"/>
		<polygon class="st2" points="358.7,96.2 357.3,96.8 359.3,102.9 360.5,101.7 366.1,106.4 366.4,103.9 363.5,101.2 363,97.9 
			360.7,98.8 		"/>
		<polygon class="st2" points="360.7,95.7 357.3,94.9 357.8,92.8 356.8,92.4 354.7,95.7 343.4,91.4 343.4,87.8 340.6,86.8 
			340.2,80.4 337.8,79.3 335.5,79.3 332.1,81.7 332,83.7 334,84.9 335,88.9 330.6,93 327.7,93 327.7,96.1 329.8,96.9 329.8,99.5 
			326,100.5 326.3,100.9 329.5,101.9 328,103.5 329.4,105.3 331.9,105.6 332.4,103.5 333.4,103.5 341.5,126.9 346.7,123.7 
			347.5,114.3 359.3,102.9 357.3,96.8 358.7,96.2 360.7,98.8 363,97.9 363.5,101.2 366.4,103.9 367.7,95.4 371.1,93 365.4,90.5 
			361.5,94.1 		"/>
		<polygon class="st2" points="343.4,87.8 343.4,91.4 354.7,95.7 356.8,92.4 		"/>
		<polygon class="st2" points="357.8,92.8 357.3,94.9 360.7,95.7 361.5,94.1 		"/>
		<polygon class="st2" points="293.4,65.6 295.8,67.6 298.9,66.8 301.6,69 301.1,63.1 303.2,62.6 303.7,61 305.9,61.2 307.6,63.7 
			310.8,66 315.4,65.1 318.8,69.5 322.1,69.4 325.3,66.8 332.8,66.4 337.6,68.7 336.4,62.9 343.9,57.1 339.5,54.6 314.3,45.7 
			304.4,48 304.4,52.4 286.7,52.4 286.7,58.3 289.1,61.2 294.1,59.2 297.1,61.2 293.5,63 		"/>
		<polygon class="st2" points="312.7,79.5 311,76.8 304.4,74.7 300.5,76 300.4,77.7 295.5,77.7 292.7,72.9 286.2,73.5 286.2,75.4 
			294.1,88.9 296.5,89.2 302,94.9 312.1,97.9 314.9,97.9 316.9,94.4 314.6,91.6 311.4,82.2 		"/>
		<polygon class="st2" points="301.6,69 298.9,66.8 295.8,67.6 300.7,71.7 300.5,76 304.4,74.7 311,76.8 312.7,79.5 319,76.3 
			308.6,68 304.2,68 		"/>
		<polygon class="st2" points="327.7,93 330.6,93 335,88.9 334,84.9 332,83.7 332.1,81.7 335.5,79.2 337.8,79.2 333,77.1 
			327.9,77.8 326.3,84.8 320.4,90.2 314.1,90.1 314.6,91.6 316.9,94.4 314.9,97.9 323.7,97.9 326,100.5 329.8,99.5 329.8,96.9 
			327.7,96.1 		"/>
		<polygon class="st2" points="310.8,66 307.6,63.7 306.3,65.5 303.5,65.5 302.6,64.4 303.2,62.6 301.1,63.1 301.6,69 304.2,68 
			308.6,68 319,76.3 322.4,77.2 320.8,72.6 325.6,71.3 325.9,69.2 318.8,69.5 315.4,65.1 		"/>
		<polygon class="st2" points="312.7,79.5 311.4,82.2 314.1,90.1 320.4,90.2 326.3,84.8 327.9,77.8 326.9,74.9 322.4,77.2 319,76.3 
					"/>
		<polygon class="st2" points="326.4,73.5 322.4,72.2 320.8,72.7 322.4,77.2 326.9,74.9 327.9,77.8 333,77.1 332.2,76.7 330.8,73.1 
					"/>
		<polygon class="st2" points="325.3,66.8 322.1,69.4 325.9,69.2 325.6,71.3 322.4,72.2 326.4,73.5 330.8,73.1 330.1,71.5 
			337.6,68.7 332.8,66.4 		"/>
		<polygon class="st2" points="286.7,70.5 289.6,73.2 292.7,72.9 290.5,69 288.2,68.4 		"/>
		<polygon class="st2" points="280.5,69.5 284.8,70.5 286.7,70.5 288.2,68.4 282.7,66 280.5,66.4 		"/>
		<polygon class="st2" points="286.2,73.5 289.6,73.2 286.7,70.5 284.8,70.5 		"/>
		<polygon class="st2" points="253.6,40.8 252.5,41 252.8,41.2 252.5,42.7 249.3,41.2 249.3,43.1 253.6,44.2 256.7,45.7 257.9,44.6 
			257.5,41.6 255.9,42 		"/>
		<polygon class="st2" points="249.3,45.3 251.7,46.1 252.4,47.4 252.9,48.9 256.7,45.7 253.6,44.2 249.3,43.1 		"/>
		<polygon class="st2" points="261.6,44.6 257.9,44.6 252.9,48.9 253.7,51.1 260.9,52.3 265.4,51.3 262.7,50.2 264.3,49.2 		"/>
		<polygon class="st2" points="251.5,39 251.1,40 252.5,41 253.6,40.8 255.9,42 257.5,41.6 257,38.1 256.1,38.9 		"/>
		<polygon class="st2" points="260.9,52.3 253.7,51.1 254.2,52.4 251.6,55.6 251.6,57.4 261.3,57.4 262.3,59.2 260.6,61.8 
			262.1,62.4 262.5,61.2 268.2,61.2 267,62.5 268.7,63.6 271.1,63.4 268.9,60.5 274.9,59.2 276.4,55.7 265.4,51.3 		"/>
		<polygon class="st2" points="247.2,24.1 237.1,31.5 237.1,38.1 235.7,40.3 239.5,44.6 245.7,39.2 242.8,35.6 249.3,28.4 
			250.6,28.4 248.8,24.1 		"/>
		<polygon class="st2" points="229.4,40.8 235.3,39.8 235.7,40.3 237.1,38.1 237.1,31.5 247.2,24.1 252.8,24.1 252.8,22.3 
			247.1,22.5 227.4,36.1 		"/>
		<polygon class="st2" points="252.8,24.1 248.8,24.1 250.6,28.4 251.7,28.4 248.5,35.5 252.2,37.4 257.8,37.4 260.9,33.8 
			255.7,22.1 252.8,22.2 		"/>
		<polygon class="st2" points="422.2,56.5 424.1,56.5 417.3,49.5 415.4,49.5 420.8,56.2 423.5,61.2 425.5,61.2 		"/>
		<polygon class="st2" points="251.7,46.1 249.3,45.3 249.3,46.9 252.3,47.5 		"/>
		<polygon class="st2" points="395.8,22 393.9,19.4 382.5,17.6 379.3,20.5 370,20.5 366.2,17.6 345.2,17.6 343.9,13 324.6,13 
			307.6,20.6 311.3,25.2 308.1,28.5 305.2,19 300,18.6 302.5,24.2 282.6,24.8 264,32.4 261.6,27.7 268.7,28 272.1,26.3 258.6,22 
			255.7,22.1 260.9,33.8 257.8,37.4 257,38.1 257.5,41.6 257.9,44.6 261.5,44.6 264.3,49.2 262.7,50.2 265.4,51.3 276.4,55.7 
			274.8,59.2 275.6,60.9 273.8,61.4 274.1,64.2 280.5,66.5 282.7,66 288.2,68.4 290.5,69 289.1,66.5 289.1,61.2 286.7,58.3 
			286.7,52.4 304.4,52.4 304.4,48 314.3,45.7 339.5,54.6 343.9,57.2 349.2,53.1 356.3,55.3 358.3,50.9 375.8,55.3 384.4,55.3 
			387.6,54.6 385.9,48.6 393.4,48.6 401.2,56.1 411.7,58.8 411.7,67.3 416.3,66.5 418.8,62.8 418.8,55.9 411.7,47.9 404.8,47.8 
			406,39.3 420.2,39.4 421.7,34.6 427.7,36.8 427.7,34.6 429.2,34.8 431.8,37.2 429.3,38.9 429,44 439.1,53.5 439.1,44.3 
			433.4,38.8 446.8,34.6 447,33.2 440.2,31.3 442.9,29.3 448.9,30.5 453,30.6 449.7,27.1 428.6,22.9 		"/>
		<polygon class="st2" points="244.7,57.9 242.2,59.9 245.8,61.3 249.7,60.6 252.7,57.4 251.5,57.4 251.5,56.6 		"/>
		<polygon class="st2" points="242.8,56.1 244.7,57.9 251.5,56.6 251.5,55.6 245.3,54.8 245.1,54.7 		"/>
		<polygon class="st2" points="229.8,61.1 232,61.3 234,60.8 233.3,58.6 231.4,58.6 230.2,59.2 		"/>
		<polygon class="st2" points="238.3,56.1 242.8,56.1 245.1,54.7 240.7,53 236.8,54.2 		"/>
		<polygon class="st2" points="207.6,77.1 208.5,77.2 209.6,68.4 206.2,67.9 206,74.3 		"/>
		<polygon class="st2" points="260.5,61.8 262.2,59.2 261.3,57.4 258.4,57.4 		"/>
		<polygon class="st2" points="252.3,47.4 249.3,46.9 246.1,47 245.3,46.3 240.7,47.4 240.3,47.4 240.7,53 245.1,54.7 245.3,54.8 
			251.5,55.6 254.1,52.4 253.7,51.1 252.9,48.9 		"/>
		<polygon class="st2" points="252.7,57.4 249.7,60.6 252.4,65.2 259.3,64.4 261.2,64.9 262,62.4 260.5,61.8 258.4,57.4 		"/>
		<polygon class="st2" points="240.3,47.4 234.4,47.4 234.1,46.3 232,46.3 232.4,47.3 229.3,49.2 229,54.6 230.9,55.6 230.2,59.2 
			231.4,58.6 235.8,58.6 236.2,58.5 239.4,57.6 238.3,56.1 236.8,54.2 240.7,53 		"/>
		<polygon class="st2" points="232,46.3 234.1,46.3 234,45.9 234.7,42.1 232.8,42 231.5,45 		"/>
		<polygon class="st2" points="237.6,45 236.4,43.8 235.3,44.2 235,45.9 237,45.9 		"/>
		<polygon class="st2" points="239.4,57.6 235.8,58.6 233.3,58.6 234,60.8 237.8,59.9 242.2,59.9 244,58.4 244.7,57.9 242.8,56.1 
			238.3,56.1 		"/>
		<polygon class="st2" points="241.5,75 237.7,75 237.7,75.9 239.1,76.9 241.5,77.3 		"/>
		<polygon class="st2" points="231.4,69.5 231.4,73.5 233.2,73.5 233.2,70.1 		"/>
		<polygon class="st2" points="229.8,61.1 229.4,62.8 231.7,63.8 234.3,63.8 242.3,71.8 242.7,75.2 244.1,74.4 244.6,71.9 
			246.4,71.6 236.7,63.1 239.4,62.9 237.8,59.9 232,61.3 		"/>
		<polygon class="st2" points="232.3,66.8 232.3,68.4 233.2,68.8 233.7,66.8 		"/>
		<polygon class="st2" points="213.9,56.8 213.9,57.9 217.2,59.7 217.6,65.6 222.5,68.8 224.1,66.8 231.3,66.8 231.5,63.8 
			231.7,63.8 229.4,62.8 230.9,55.6 224.4,52.2 216.7,56.8 		"/>
		<polygon class="st2" points="226.2,51.1 224.4,52.2 228,54.1 229.1,53.5 229.1,52.6 		"/>
		<polygon class="st2" points="229.1,52.6 229.3,49.2 226.2,51.1 		"/>
		<polygon class="st2" points="228,54.1 229,54.6 229.1,53.5 		"/>
		<polygon class="st2" points="216,45.7 216.1,48.2 214.4,49.1 215.9,51.3 212.8,54.1 216.8,53.4 220.9,52.8 221.1,51.3 222,51.3 
			222.2,49.6 219.5,49 216.2,41.5 213.7,41.4 213.7,45.5 		"/>
		<polygon class="st2" points="212.8,47.5 212.8,45.9 209.9,45.7 211.6,47.9 		"/>
		<polygon class="st2" points="206.9,47.9 206.9,52.3 208.6,52.2 208.6,50.7 211.8,51.2 211.6,47.9 209.9,45.7 		"/>
		<polygon class="st2" points="208.5,77.2 215.6,77.7 222.5,68.8 217.6,65.6 206.2,65.7 206.2,67.9 209.6,68.4 		"/>
		<polygon class="st2" points="224.2,73.4 224.2,71.5 222,73.4 		"/>
		<polygon class="st2" points="249.9,71.2 254.4,69.8 253.4,67.4 249.7,68.1 		"/>
		<polygon class="st2" points="247.1,61.1 247.9,65.6 249.7,68.1 253.4,67.4 252.4,65.2 249.7,60.6 		"/>
		<polygon class="st2" points="239.4,62.9 239.8,62.9 241.9,61.8 242.9,60.2 242.2,59.9 237.8,59.9 		"/>
		<polygon class="st2" points="261.8,71.8 258.4,71.8 261.2,77.3 273.8,78 286.1,75.4 286.1,73.5 284.7,70.5 280.5,69.5 263.2,70 		
			"/>
		<polygon class="st2" points="258.4,70.5 261.5,70.5 260.2,67.9 258.4,68.5 		"/>
		<polygon class="st2" points="244.7,67 245.8,67.2 247.9,65.6 247.3,62.3 242.8,62.9 		"/>
		<polygon class="st2" points="248.3,71.7 249.7,73.4 252.4,74.2 250.7,74.9 253,77.6 254.3,75.4 252.8,72.1 255.9,70.5 258.4,70.5 
			258.4,68.5 		"/>
		<polygon class="st2" points="245.8,61.3 242.9,60.2 241.9,61.8 239.8,62.9 240.6,62.9 244,66.8 244.7,67 242.8,62.9 247.3,62.3 
			247.1,61.1 		"/>
		<polygon class="st2" points="247.1,67.6 248.7,66.7 247.9,65.6 245.8,67.2 248,71.5 248.3,71.8 249.9,71.2 249.7,68.1 248.7,66.7 
					"/>
		<polygon class="st2" points="254.4,69.8 260.2,67.9 261.2,64.9 259.3,64.4 252.4,65.2 		"/>
		<polygon class="st2" points="298.1,97.9 299.5,98.8 300.4,97.9 298.8,95.7 		"/>
		<polygon class="st2" points="271,79.4 267.4,80.7 270,81.4 		"/>
		<polygon class="st2" points="273.3,84 273.3,90.4 274.6,90.6 276.7,89.6 277.3,86 278.8,85.4 278.9,85.3 278.5,83.4 275.2,85.3 		
			"/>
		<polygon class="st2" points="297.7,97.6 294.1,91.8 292.6,91.8 291.5,90.4 288.4,90.4 278.8,85.4 277.3,86 276.7,89.6 274.6,90.6 
			273.3,90.4 285.8,112.2 286.1,113 287.4,110.7 291.8,111.3 291.4,113 297.7,109.7 306.5,107.3 306.5,102.7 301.9,102.1 
			300.5,99.5 		"/>
		<polygon class="st2" points="290.1,90.4 291.5,90.4 292.6,91.8 294.1,91.8 292.2,88.8 290.5,88.8 		"/>
		<polygon class="st2" points="281.1,81.8 278.5,83.4 278.9,85.4 288.4,90.4 290.1,90.4 290.5,88.8 294,88.7 286.1,75.5 282.5,76.2 
					"/>
		<polygon class="st2" points="303.9,100.2 300.5,99.5 301.9,102.1 304.5,102.4 308.2,98.7 306.5,97.2 		"/>
		<polygon class="st2" points="304.5,102.4 306.5,102.7 306.5,107.3 302.1,108.5 302.1,111.2 304.6,112.9 312.8,102.7 308.2,98.7 		
			"/>
		<polygon class="st2" points="274.8,81.3 273.3,84 275.2,85.3 281.1,81.8 282.5,76.2 273.8,78 273.2,80.7 		"/>
		<polygon class="st2" points="297.7,109.7 291.4,113 291.8,111.3 287.4,110.7 286.1,113 288.3,120.2 304.6,112.9 302.1,111.2 
			302.1,108.5 		"/>
		<polygon class="st2" points="273.3,84 274.8,81.3 273.2,80.7 272.6,83.5 		"/>
		<polygon class="st2" points="273.3,90.5 273.3,90.4 273.3,84 272.6,83.5 271.5,87.6 		"/>
		<polygon class="st2" points="286.6,182.7 288.3,186.7 292.4,186.9 299.3,164.6 296.9,164.6 288.8,173 288,178.8 		"/>
		<polygon class="st2" points="241.9,128.1 240.7,124.6 243.1,124.6 240.2,118.4 240.2,121.8 236,130.5 232.3,130.7 231.8,134.2 
			233.4,134.2 233.3,137.9 243.4,137.9 243.8,136.6 243.8,136.6 240.8,132.3 		"/>
		<polygon class="st2" points="236.1,140.5 233.3,140.5 233.2,144.9 236.8,149.7 236.8,145.6 241.5,145.6 239.1,137.9 236.1,137.9 
			236.1,137.9 233.3,137.9 233.3,140.5 		"/>
		<polygon class="st2" points="226.6,131.4 227.3,134.2 231.8,134.2 232.3,130.7 236,130.5 240.2,121.8 240.2,118.4 224.5,118.4 
			222,130.7 		"/>
		<polygon class="st2" points="203.6,129 204.7,130.3 204.7,135.7 213.2,133.2 213.2,125.3 204.9,123.7 204.9,127.8 		"/>
		<polygon class="st2" points="204.7,135.7 204.7,130.3 201.6,126.8 198.9,129.4 		"/>
		<polygon class="st2" points="256,160.7 253.1,159.3 253.1,153.9 249.7,153.9 249.1,156.3 245.8,156.4 244.9,153.4 239.6,153.5 
			239.6,165.2 236.6,170.1 236.9,173.4 255.4,173.4 252.4,169.6 252.4,165.4 256.1,165.4 		"/>
		<polygon class="st2" points="219,131.6 217.6,123.1 213.2,123.1 213.2,133.2 		"/>
		<polygon class="st2" points="239.1,137.9 241.5,145.6 236.8,145.6 236.8,149.7 238.6,152.1 243.1,150.1 247.7,142.4 248.5,136.6 
			243.8,136.6 243.4,137.9 		"/>
		<polygon class="st2" points="282.5,116.6 285.2,120.9 286.3,120.1 279.3,108.1 275.7,116.6 		"/>
		<polygon class="st2" points="198.9,129.4 201.6,126.8 198.8,123.7 196.1,126.4 		"/>
		<polygon class="st2" points="286,123.8 287.7,122.5 286.3,120.1 284.2,121.8 		"/>
		<polygon class="st2" points="273,162.8 273,165.4 275.3,166.9 275.3,170.1 273.1,172 273.1,168.3 271,166.5 270.9,166.5 
			266.9,169.4 270.9,172 270.9,175.7 268.4,181.7 268.4,188.3 270.2,188.2 270.3,187.3 274.2,184.7 273.9,176.7 282.8,169.3 
			281.9,161 		"/>
		<polygon class="st2" points="287.7,122.5 286,123.8 287.7,125.8 294.8,128.3 283.8,137.5 283.8,145.5 301.1,125.3 300.4,121.8 
			288.3,123.6 		"/>
		<polygon class="st2" points="243.5,192 250.2,192 250.2,175 259,175 257.9,173.4 236.9,173.4 		"/>
		<polygon class="st2" points="276.5,133.7 273.4,134.1 274.3,137.9 273.9,141 272.5,143.4 280.8,148.9 283.8,145.5 283.8,137.5 
			287,134.8 277.5,134.8 		"/>
		<polygon class="st2" points="272.5,143.4 272,144.4 269,144.4 269.8,143 268.4,143 265.4,150.6 270.9,158.4 273,158.4 273,162.8 
			281.9,161 280.8,148.9 		"/>
		<polygon class="st2" points="204.4,95.9 199.5,95.9 199.5,101.6 197.7,104.4 191.6,104.4 191.3,110.7 198.8,116.1 198.8,114.2 
			207.9,114.2 207,98.8 211.7,98.8 204.4,93.4 		"/>
		<polygon class="st2" points="267.2,146.1 268.4,143 265.8,143 264.9,146.6 		"/>
		<polygon class="st2" points="265.4,150.6 267.2,146.1 264.9,146.6 264.3,149.2 		"/>
		<polygon class="st2" points="193.2,123.3 196.1,126.4 198.8,123.7 201.6,126.8 203.6,129 204.9,127.8 204.9,123.7 204.3,120.8 
			195.7,120.8 		"/>
		<polygon class="st2" points="207.9,114.2 198.8,114.2 198.8,116.1 200.9,120.8 204.3,120.8 204.9,123.7 209.1,124.5 209.1,120.4 
			225,113.9 225,108.6 211.7,98.8 207,98.8 		"/>
		<polygon class="st2" points="263.4,161.9 266.6,163.2 265.5,165.4 256,160.7 256.1,165.4 252.4,165.4 252.4,169.6 255.4,173.4 
			261.1,173.4 270.9,166.5 270.9,158.4 269.7,156.7 264.3,157.5 		"/>
		<polygon class="st2" points="250.2,185.9 252.8,189 263.8,181.7 259,175 250.2,175 		"/>
		<polygon class="st2" points="209.1,124.5 213.2,125.3 213.2,123.1 217.6,123.1 222.7,121.2 217.9,116.8 209.1,120.4 		"/>
		<polygon class="st2" points="270.9,158.4 270.9,166.5 271,166.5 273.1,168.3 273.1,172 275.3,170.1 275.3,166.9 273,165.4 
			273,158.4 		"/>
		<polygon class="st2" points="285.2,120.9 282.5,116.6 275.7,116.6 270.9,127.9 277.5,134.8 287,134.8 294.8,128.3 287.7,125.8 
			284.2,121.8 		"/>
		<polygon class="st2" points="265.8,143 269.8,143 270.9,141 273.9,141 274.3,137.9 273.4,134.1 267.7,134.9 		"/>
		<polygon class="st2" points="225,108.6 225,113.9 217.9,116.8 222.7,121.2 224,120.8 224.5,118.4 240.2,118.4 243.7,111.1 
			242.3,101.6 235.3,101.6 		"/>
		<polygon class="st2" points="191.6,104.4 197.7,104.4 199.5,101.6 199.5,95.9 204.4,95.9 204.4,92.5 199,92.5 191.6,102.1 		"/>
		<polygon class="st2" points="191.1,116.9 196,118.4 191.1,118.4 191,120.8 200.9,120.8 198.8,116.1 191.3,110.7 		"/>
		<polygon class="st2" points="196,118.4 191.1,116.9 191.1,118.4 		"/>
		<polygon class="st2" points="243.7,111.1 240.2,118.4 243.1,124.6 240.7,124.6 241.9,128.1 253.6,122.5 253.6,116.5 256.2,114 
			256.4,108.1 246.3,101.6 242.3,101.6 		"/>
		<polygon class="st2" points="243.7,87.5 241.6,84.9 237,83.8 232.8,88.4 235.5,101.6 246.3,101.6 256.4,108.1 257.4,85.7 
			251.5,84.9 249.1,88.5 		"/>
		<polygon class="st2" points="203.6,92.5 204.4,92.5 204.4,91.8 216.7,85.1 216.7,80.3 207.6,81.2 199,92.5 		"/>
		<polygon class="st2" points="216.7,80.3 216.7,85.1 204.4,91.8 204.4,93.4 225,108.6 235.3,101.6 235.5,101.6 230.5,77.4 
			224.6,77.3 		"/>
		<polygon class="st2" points="230.5,77.4 232.8,88.4 237,83.8 235.3,83.4 235.6,77.6 		"/>
		<polygon class="st2" points="257.9,173.4 263.8,181.7 268.4,181.7 270.9,175.7 270.9,172 266.9,169.4 261.1,173.4 		"/>
		<polygon class="st2" points="260.6,196 262.9,196 264.3,194.6 264.3,192.7 262.4,192.7 260.6,193.9 		"/>
		<polygon class="st2" points="268.4,187.7 266.6,187.7 266.6,189.3 268.4,190.4 		"/>
		<polygon class="st2" points="273.2,90.6 273.3,90.5 271.5,87.6 257.4,85.7 256.7,102.7 272.1,102.7 275.2,100.9 268.8,90 
			272.3,92.8 		"/>
		<polygon class="st2" points="275.2,100.9 272.1,102.7 256.7,102.7 256.2,114 253.6,116.5 253.6,122.5 262.8,133.1 267.7,134.9 
			276.5,133.7 270.9,127.9 275.7,116.6 279.3,108.1 		"/>
		<polygon class="st2" points="264.3,149.2 267.7,134.9 262.8,133.1 248.9,133.5 247.7,142.4 243.1,150.1 238.6,152.1 239.6,153.5 
			244.9,153.4 245.8,156.4 249.1,156.3 249.7,153.9 253.1,153.9 253.1,159.3 265.5,165.4 266.6,163.2 263.4,161.9 264.3,157.5 
			269.7,156.7 		"/>
		<polygon class="st2" points="240.8,132.3 243.8,136.6 248.5,136.6 248.9,133.5 262.8,133.1 253.6,122.5 241.9,128.1 		"/>
		<polygon class="st2" points="224,120.8 219.7,122.4 221.1,131 222,130.7 		"/>
		<polygon class="st2" points="219.7,122.4 217.6,123.1 219,131.6 221.1,131 		"/>
		<polygon class="st2" points="193.2,123.3 195.7,120.8 191,120.8 191,120.9 		"/>
		<polygon class="st2" points="56.9,23 53.3,21.5 34.2,21.6 26.4,24.7 26.4,28.2 17.7,28.1 16.1,30.4 23.4,30.1 14,33.6 9.4,39.8 
			13.3,39.8 5.8,44.7 8.6,44.9 23,38 39.6,37.5 44.6,42.5 46.5,40.5 44.9,38.7 43,38.7 41.1,36.6 		"/>
		<polygon class="st2" points="44.4,55 41.8,52.8 40.7,53.8 42.5,56.2 44.4,56.2 		"/>
		<polygon class="st2" points="145.2,58.3 143.3,55.2 141.5,54.7 141.5,52.5 135.8,58.3 		"/>
		<polygon class="st2" points="142.2,22 130.7,17.3 129,17.2 125,20.5 126.3,17.2 124.4,17.2 119.7,22.2 131.1,21.6 138,27.8 
			133.3,27.7 131,29.6 125.7,29.6 125.7,31.1 131.1,31.1 135.6,34.9 136.8,34.3 135.8,31.9 138.9,33.4 139.9,33 139.9,28.3 
			143.5,29.6 145.6,28.2 144.4,26 142.3,25.3 		"/>
		<polygon class="st2" points="103.4,64.1 106.7,64.1 109,62.5 116.5,62.5 119.7,59.7 122.6,59.7 121.6,63 126.7,62.1 123.3,63.8 
			123.6,65.1 132.8,61.9 128.3,61.7 126.3,59.8 128.3,56.6 127.3,55.7 120.8,58.6 120.8,56.9 127,53.9 137,53.5 144.5,49.5 
			144.5,47.7 139.1,46.8 138.4,37.8 131.3,40.7 131.3,36.5 127.9,33.5 123.2,33.5 110.6,51.9 107.5,51.9 107.6,45.9 96.7,40 
			107.6,31.9 113.7,30.8 112.5,28.9 122,27.8 125.8,23.8 122.2,23.4 117.2,26.7 117.8,23.9 115.4,23.7 114.9,20.2 110.8,22 
			111.9,24.2 106.5,26.8 97.1,25 92.1,27.4 80,22.5 56.9,23 41.1,36.6 42.9,38.7 44.8,38.7 46.5,40.5 44.6,42.5 42.6,51.4 
			46.1,54.5 46.1,56.2 84.9,56.2 89.5,58.3 97.2,56.6 98.2,60.1 99.7,61.2 102.4,61 		"/>
		<polygon class="st2" points="117.3,29.6 114.4,32 120.2,32.6 120.8,31.1 		"/>
		<polygon class="st2" points="105.9,23.5 107,24.9 109.7,23.5 108.9,22.2 		"/>
		<polygon class="st2" points="108,18.8 109.7,20.5 113.5,19.3 114.5,16.6 		"/>
		<polygon class="st2" points="115.2,17.7 115.7,19.4 120.8,18 119.8,16.6 		"/>
		<polygon class="st2" points="128.3,14.2 125.5,13 122.8,15.4 133.9,16.2 136.8,14.2 		"/>
		<polygon class="st2" points="155.4,7.9 161.2,4.7 138.1,6.4 138.1,7.6 145.9,7.5 144.8,8.9 136.8,9.1 137.8,10.9 134.4,10.4 
			135.7,12.1 129.8,12.1 130.7,13 137.2,13 138.2,13.9 147.7,9.5 		"/>
		<polygon class="st2" points="127.2,9.3 131.5,10.1 133.9,8.5 132.2,7.2 		"/>
		<polygon class="st2" points="81.9,20.5 92,17.1 89.6,16 80.1,18.5 		"/>
		<polygon class="st2" points="93.3,17.7 87.8,19.6 91,20.9 86,22.2 92.2,24.6 96.5,22.8 101.3,23.9 104.8,23.1 101.3,21.5 104,18 
			101.3,18 99.7,20.1 99.1,18 96.2,19.1 		"/>
		<polygon class="st2" points="85.4,102.6 90.3,102.6 94.3,105.2 92.8,106.9 99.7,106.9 91.5,101 87.1,101 		"/>
		<polygon class="st2" points="92.3,110 93.4,110.9 96.3,110.9 96.3,109.8 95.3,108.8 92.3,108.8 		"/>
		<polygon class="st2" points="110.7,109.2 110.1,110.2 111.7,110.2 112.3,109.2 		"/>
		<polygon class="st2" points="73.9,113.5 71.1,113.5 69.7,115.9 73.7,117.9 76.4,113 75.9,110.4 73.5,110.4 		"/>
		<polygon class="st2" points="77,117.4 76.5,119.1 77.3,119.5 83.9,113.9 75.9,114 74.6,116.3 		"/>
		<polygon class="st2" points="76.5,119.1 77,117.4 74.6,116.3 73.7,117.9 		"/>
		<polygon class="st2" points="79,108 75.9,110.4 76.4,113 		"/>
		<polygon class="st2" points="79.8,122.9 84.1,123.3 83.9,113.9 77.3,119.5 		"/>
		<polygon class="st2" points="86.8,149.2 90.4,150.9 96.7,143.1 90.2,139.5 87.2,143.3 		"/>
		<polygon class="st2" points="123.3,236.5 125.5,238.5 132.3,238.8 125,234.9 		"/>
		<polygon class="st2" points="133.7,187.7 130.8,189.5 126.8,189.5 126.8,186 118.7,180.5 118.2,181.3 111.4,181.3 109.6,198.2 
			113.4,215 116.9,221.1 117,225.8 122.2,233.6 124.1,233.8 123.1,213.7 134,209 129,202.1 129,194.5 133.9,189.6 		"/>
		<polygon class="st2" points="134.9,204.3 137.3,200.2 129,194.5 129,202.1 		"/>
		<polygon class="st2" points="112,124.4 108.3,121.8 99.9,121.7 100.3,127.4 102.8,130.1 108.4,130.7 108.4,138.2 109.3,138.1 
			110.5,140.7 114.1,139.5 113.8,135.5 118.7,133.7 120.2,126.6 118.5,125 		"/>
		<polygon class="st2" points="79.8,122.9 82.7,126.8 83.7,127.2 85.2,125.3 84.2,124.7 84.1,123.3 		"/>
		<polygon class="st2" points="125.3,131.4 120.2,126.6 118.7,133.7 120.8,133 120.6,139.1 125.4,138.5 123.8,134.2 		"/>
		<polygon class="st2" points="112.6,160.9 107.6,162.3 107.6,173.8 111.4,181.3 118.2,181.3 120.8,176.5 125.9,176.5 125.8,172.6 
			117.1,165.5 		"/>
		<polygon class="st2" points="129.8,138 133.1,137.7 134.1,134.9 132.8,132.1 130.1,131.9 		"/>
		<polygon class="st2" points="125.9,176.5 120.8,176.5 118.6,180.5 126.8,186 126.8,189.5 130.8,189.5 133.7,187.7 133.5,184.9 
			126.1,181 		"/>
		<polygon class="st2" points="125.4,138.5 129.8,138 130.1,131.9 125.3,131.4 123.8,134.2 		"/>
		<polygon class="st2" points="146,144.7 142.3,143 138.6,145.2 139.8,142 137.3,140.9 133.8,143.6 136.3,139.8 134.1,134.9 
			133.1,137.7 120.6,139.1 120.8,133 118.7,133.7 113.8,135.5 114.1,139.5 110.5,140.7 109.3,138.1 105,138.4 105,149.6 
			100.6,150.1 98.6,156.5 106,162.8 112.6,160.9 117.1,165.5 125.8,172.6 126.1,181 133.5,184.9 133.8,189.6 129,194.5 137.3,200.2 
			142.1,191.8 143.2,184.5 154.9,179.4 157,163.3 162.1,156.7 162.1,152.7 153.8,147.3 145.8,146.9 		"/>
		<polygon class="st2" points="88.4,125.1 87,126.3 85.2,125.3 83.7,127.2 88,128.7 89.1,127.1 91.6,127.4 92.3,129.8 93.2,128.4 
			92.8,126.8 92.2,124.8 		"/>
		<polygon class="st2" points="100.6,150.1 105,149.6 105,147.9 96.7,143.1 90.3,150.9 86.8,149.2 86.7,151 97.5,169.4 106.8,175.7 
			107.6,173.8 107.6,162.3 106,162.8 98.6,156.5 		"/>
		<polygon class="st2" points="113.4,215 109.6,198.2 111.4,181.3 107.6,173.8 106.8,175.7 108.4,213.9 112.5,217.3 112.7,224.1 
			119.9,233.4 122.2,233.6 117,225.8 116.9,221.1 		"/>
		<polygon class="st2" points="108.4,107.8 103.5,107.2 103.5,109.9 105.2,108.7 107.8,108.7 		"/>
		<polygon class="st2" points="103.5,109.3 103.5,107.2 100.5,107.2 101.5,108.6 99.7,108.6 99.7,109.3 		"/>
	</g>
	<g>
		<polygon class="st3" points="99.9,121.7 98.1,121.7 94.6,126.5 92.7,126.6 93.2,128.4 92.3,129.8 93,132.2 92.3,136.8 90.2,139.5 
			105,147.9 105,138.4 108.4,138.2 108.4,130.7 102.8,130.1 100.3,127.4 		"/>
		<polygon class="st4" points="89.7,119.8 89.7,118.2 87.8,119.8 		"/>
	</g>
</g>
</svg>
