<?xml version="1.0" encoding="utf-8"?>
<!-- Generator: Adobe Illustrator 24.3.0, SVG Export Plug-In . SVG Version: 6.00 Build 0)  -->
<svg version="1.1" xmlns="http://www.w3.org/2000/svg" xmlns:xlink="http://www.w3.org/1999/xlink" x="0px" y="0px"
	 viewBox="0 0 508 265.7" enable-background="new 0 0 508 265.7" xml:space="preserve">
<g id="Layer_2">
	<g id="mundo2">
		<g>
			<polygon fill="none" stroke="#122333" stroke-width="1.5" stroke-linecap="round" stroke-linejoin="round" points="277.1,201.8 
				275.7,203.3 273.4,203.3 273.4,201.1 275.2,199.9 277.1,199.9 			"/>
			<polygon fill="none" stroke="#122333" stroke-width="1.5" stroke-linecap="round" stroke-linejoin="round" points="281.2,195.5 
				281.2,197.6 279.4,196.5 279.4,194.9 281.2,194.9 281.2,188.9 276.6,188.9 265.6,196.2 263,193.2 263,199.2 256.3,199.2 
				260.2,209.8 272.8,209.8 282.6,198.5 283,195.5 			"/>
			<polygon fill="none" stroke="#122333" stroke-width="1.5" stroke-linecap="round" stroke-linejoin="round" points="109.6,76.1 
				112.1,74.4 115.1,74.4 112.6,76.1 			"/>
			<polygon fill="none" stroke="#122333" stroke-width="1.5" stroke-linecap="round" stroke-linejoin="round" points="132.6,67 
				129.3,69.8 121.9,69.8 119.6,71.3 121.3,71.3 118.9,73 117.1,73 119.6,71.3 114.7,71.3 112.6,73 110.4,73.2 110.9,69.5 
				109.2,69.5 107.3,70.8 103.7,76.1 101.5,76.1 105.6,69.5 110.4,68.5 110.2,67.6 107,67.5 105.5,66.5 103.6,67.5 101.4,67.5 
				102.3,65.5 97.8,63.4 59,63.4 46.2,76.9 46.2,87.3 50.8,91.9 67.2,94 69.3,97.3 73.9,97.2 77.7,104.6 84.8,95.8 101.6,95.8 
				102.7,104.2 105.3,104.3 105.4,93.8 132.6,70.6 134.4,70.3 135.5,67 			"/>
			<polygon fill="none" stroke="#122333" stroke-width="1.5" stroke-linecap="round" stroke-linejoin="round" points="148.6,65.5 
				158.1,65.5 156.1,62.4 154.3,62 154.3,59.7 			"/>
			<polygon fill="none" stroke="#122333" stroke-width="1.5" stroke-linecap="round" stroke-linejoin="round" points="78.3,116.3 
				74.7,108.4 77.7,104.6 73.9,97.2 69.3,97.3 67.2,94 50.8,91.9 50.9,92 51.6,99.3 56.6,108.8 58.6,107.2 54.7,98.8 54.7,94 57,94 
				57.1,98.4 64.6,116.1 76.8,121.2 79.9,120.4 82.6,123.1 83.9,120.7 86.7,120.7 86.3,117.6 88.7,117.6 91.9,115.3 92,111.9 
				88.6,111.8 85.9,116.3 			"/>
			<polygon fill="none" stroke="#122333" stroke-width="1.5" stroke-linecap="round" stroke-linejoin="round" points="213.7,39.9 
				218.3,37.7 218.3,37.1 216,34.8 212.9,35.8 209.1,35.8 208.3,36.9 206.1,36.8 206.1,38.8 			"/>
			<polygon fill="none" stroke="#122333" stroke-width="1.5" stroke-linecap="round" stroke-linejoin="round" points="254.1,87.9 
				254.2,85.7 251.7,85.7 251.7,87.2 			"/>
			<polygon fill="none" stroke="#122333" stroke-width="1.5" stroke-linecap="round" stroke-linejoin="round" points="162.1,19.3 
				162.1,21.6 173.3,21.7 176.2,26.7 176.2,31.2 170.8,34.3 171,40.4 174.4,43.8 178.4,43.8 184.5,37.4 193.2,34.8 196.5,32.3 
				203,31.9 207.6,30.6 216.3,16.8 221.6,15.7 223.5,13.8 208.1,12.3 194.8,13.8 178.7,13.8 169.5,17 			"/>
			<polygon fill="none" stroke="#122333" stroke-width="1.5" stroke-linecap="round" stroke-linejoin="round" points="423.7,106.3 
				422.4,105 420.2,108 422.4,110 			"/>
			<polygon fill="none" stroke="#122333" stroke-width="1.5" stroke-linecap="round" stroke-linejoin="round" points="403,68.4 
				403.5,66 398.9,65.3 397.2,62.5 388.6,62.5 371.1,58.1 369.1,62.5 362,60.3 356.7,64.3 374,74.5 394.1,74.7 396.5,69.8 			"/>
			<polygon fill="none" stroke="#122333" stroke-width="1.5" stroke-linecap="round" stroke-linejoin="round" points="406.8,114.4 
				404.3,115 404.3,116.5 405.3,117.8 406.8,115.8 			"/>
			<polygon fill="none" stroke="#122333" stroke-width="1.5" stroke-linecap="round" stroke-linejoin="round" points="397.2,62.5 
				398.9,65.3 403.5,66 403,68.4 396.5,69.8 394.1,74.7 374,74.5 356.7,64.3 349.2,70.1 350.4,75.9 342.9,78.7 345,83.9 353,87.6 
				353.4,94 374.3,101.3 378.2,97.7 386.4,101.3 385.3,104.3 389.6,111.6 397.2,107.7 402.2,112 404.3,110.8 404.4,112.8 
				416.9,108.4 421,99.2 413.7,87.3 417.4,83.2 413.1,83.2 411.7,84.1 409,79.6 412.5,76.6 414.8,81.1 418.1,78.9 424.5,74.5 
				424.5,66 414,63.3 406.2,55.7 398.7,55.7 400.4,61.8 			"/>
			<path fill="none" stroke="#122333" stroke-width="1.5" stroke-linecap="round" stroke-linejoin="round" d="M482.6,220l-1,3.2
				l7.3-5.2l-2.1-2.8V212l-1.2,0.5v4.5L482.6,220z M463.4,230.5l15.2-7.7v2l-11.7,7.7L463.4,230.5z M401.1,191l12.8-6l9.5-10.5
				l5.2,2.3l2.3-4.8l8.7-0.2l-2.2,4l7.2,6.2l4.8-4.8v-6.7l2.2,0.7l2.5,12l7.8,11l-0.8,8.3l-14.2,14.7l-12.3-0.7l-1.5-8.3l-4.2,1.8
				l-4-3.5l-24.3,5.3l-1.5-1.8l2-4.8V191z"/>
			<polygon fill="none" stroke="#122333" stroke-width="1.5" stroke-linecap="round" stroke-linejoin="round" points="440.6,75.2 
				443.6,75.2 444.8,73 438.3,70.3 438.4,75.7 439.7,76.5 			"/>
			<polygon fill="none" stroke="#122333" stroke-width="1.5" stroke-linecap="round" stroke-linejoin="round" points="432.5,87.7 
				432,89.3 438.5,88.4 439,90.9 440.5,90.3 440.6,88.3 445,87.2 444.7,81.5 442.8,78.1 440.8,77.5 441.9,82.7 437.9,86.3 			"/>
			<polygon fill="none" stroke="#122333" stroke-width="1.5" stroke-linecap="round" stroke-linejoin="round" points="431.4,90.9 
				433.7,90.6 434.5,91.7 433.6,94.4 			"/>
			<polygon fill="none" stroke="#122333" stroke-width="1.5" stroke-linecap="round" stroke-linejoin="round" points="437.6,89.8 
				436.5,91.8 435,90.2 			"/>
			<polygon fill="none" stroke="#122333" stroke-width="1.5" stroke-linecap="round" stroke-linejoin="round" points="430.5,124.8 
				427,124.5 425.7,122.9 427,119.9 425.7,117.1 423.3,117 422.8,122 426.1,126 430,126.5 			"/>
			<polygon fill="none" stroke="#122333" stroke-width="1.5" stroke-linecap="round" stroke-linejoin="round" points="419.3,133.7 
				420.9,134 423.7,131.7 423.6,129.8 			"/>
			<polygon fill="none" stroke="#122333" stroke-width="1.5" stroke-linecap="round" stroke-linejoin="round" points="431.6,137.3 
				431.6,139.5 433.9,138.8 433.1,137.4 435,136.9 433.4,131.9 432.2,135 428.4,135 			"/>
			<polygon fill="none" stroke="#122333" stroke-width="1.5" stroke-linecap="round" stroke-linejoin="round" points="424.7,126.2 
				426.4,127.8 425.8,128.8 424.5,127.5 			"/>
			<polygon fill="none" stroke="#122333" stroke-width="1.5" stroke-linecap="round" stroke-linejoin="round" points="426.4,130.2 
				427.6,131 428.8,129 427.1,128.8 			"/>
			<polygon fill="none" stroke="#122333" stroke-width="1.5" stroke-linecap="round" stroke-linejoin="round" points="430.8,128.1 
				432.4,130.2 434.2,130.2 432.5,127.5 			"/>
			<polygon fill="none" stroke="#122333" stroke-width="1.5" stroke-linecap="round" stroke-linejoin="round" points="430.8,129.9 
				431.7,131.5 431,132.4 429.7,130.5 			"/>
			<polygon fill="none" stroke="#122333" stroke-width="1.5" stroke-linecap="round" stroke-linejoin="round" points="428.8,131.5 
				429.7,132.7 428.8,133.7 427.9,132.6 			"/>
			<polygon fill="none" stroke="#122333" stroke-width="1.5" stroke-linecap="round" stroke-linejoin="round" points="432,164.2 
				433.1,165.7 436.1,165.4 436.1,164.2 			"/>
			<polygon fill="none" stroke="#122333" stroke-width="1.5" stroke-linecap="round" stroke-linejoin="round" points="407.4,146.6 
				407.6,150.9 410,155.2 417.8,155.2 421.7,150.3 421.7,141.3 418.9,141.6 416.7,145.9 409.1,147.6 407.5,146.6 			"/>
			<polygon fill="none" stroke="#122333" stroke-width="1.5" stroke-linecap="round" stroke-linejoin="round" points="401.8,157.9 
				401.8,154.6 389,141.2 384.5,139.5 399.5,159.9 			"/>
			<polygon fill="none" stroke="#122333" stroke-width="1.5" stroke-linecap="round" stroke-linejoin="round" points="416.9,163.8 
				417.1,164.9 401,162.2 403.5,160.2 407.5,161.7 411.1,160.9 			"/>
			<polygon fill="none" stroke="#122333" stroke-width="1.5" stroke-linecap="round" stroke-linejoin="round" points="427.2,163.8 
				424.7,163.8 425.2,165.4 427.6,165.4 428.6,164.6 			"/>
			<polygon fill="none" stroke="#122333" stroke-width="1.5" stroke-linecap="round" stroke-linejoin="round" points="422.9,166.4 
				423.6,167.3 425.3,167.3 424.7,166 			"/>
			<polygon fill="none" stroke="#122333" stroke-width="1.5" stroke-linecap="round" stroke-linejoin="round" points="432,164.2 
				429.5,167 431.4,167.3 433.1,165.7 			"/>
			<polygon fill="none" stroke="#122333" stroke-width="1.5" stroke-linecap="round" stroke-linejoin="round" points="423.7,159.3 
				425.6,158.8 425,155.5 426.1,154.3 427,156.7 429.2,157.5 429.2,155.7 428,153 430.3,151 426.6,151.1 425.8,150.1 427.3,148.4 
				430.1,149.4 431.4,149.3 433.5,146.8 431.7,146.8 430.5,147.6 426.6,146.6 424.1,148.9 424.3,152.6 422.8,154.6 			"/>
			<polygon fill="none" stroke="#122333" stroke-width="1.5" stroke-linecap="round" stroke-linejoin="round" points="437.6,154.1 
				437.2,155.6 441.4,155.2 441.4,154.1 			"/>
			<polygon fill="none" stroke="#122333" stroke-width="1.5" stroke-linecap="round" stroke-linejoin="round" points="438.6,144.4 
				437.2,145.8 436.6,149.2 438.6,149.7 438.1,146.6 439.3,145.2 			"/>
			<polygon fill="none" stroke="#122333" stroke-width="1.5" stroke-linecap="round" stroke-linejoin="round" points="448.1,153.5 
				447.5,150.6 442.9,151.2 			"/>
			<polygon fill="none" stroke="#122333" stroke-width="1.5" stroke-linecap="round" stroke-linejoin="round" points="447.7,156 
				454.1,158.7 455.3,162 453.2,163.3 458.6,165.2 458.6,154.4 454.2,152 450,155.4 445.7,153.7 445.2,156.1 			"/>
			<polygon fill="none" stroke="#122333" stroke-width="1.5" stroke-linecap="round" stroke-linejoin="round" points="428.7,84.8 
				424.4,81.3 422.5,83.1 425,88.7 428.2,88.4 			"/>
			<polygon fill="none" stroke="#122333" stroke-width="1.5" stroke-linecap="round" stroke-linejoin="round" points="424.4,81.3 
				422.5,79.7 424.9,79.4 424.5,74.5 418.1,78.9 420,82.4 422.5,83.1 			"/>
			<polygon fill="none" stroke="#122333" stroke-width="1.5" stroke-linecap="round" stroke-linejoin="round" points="418.8,138.3 
				415.4,142.9 407.5,146.6 409.1,147.6 416.7,145.9 418.9,141.6 421.7,141.3 421.7,138 			"/>
			<polygon fill="none" stroke="#122333" stroke-width="1.5" stroke-linecap="round" stroke-linejoin="round" points="392.5,138.3 
				393.9,142.8 399.6,147.6 400,145.9 394.7,138 			"/>
			<polygon fill="none" stroke="#122333" stroke-width="1.5" stroke-linecap="round" stroke-linejoin="round" points="460.6,165.9 
				464.4,162.4 469.4,167.2 473.9,168.1 468.3,162.5 468.6,159.6 458.6,154.4 458.6,165.2 			"/>
			<polygon fill="none" stroke="#122333" stroke-width="1.5" stroke-linecap="round" stroke-linejoin="round" points="471.1,160.1 
				473.1,161.3 476.6,159.3 476.6,157.3 			"/>
			<polygon fill="none" stroke="#122333" stroke-width="1.5" stroke-linecap="round" stroke-linejoin="round" points="473.9,154.4 
				477.9,157.3 479.6,156.8 475.5,154.3 			"/>
			<polygon fill="none" stroke="#122333" stroke-width="1.5" stroke-linecap="round" stroke-linejoin="round" points="389.6,111.6 
				385.3,104.3 386.4,101.3 383.9,100.2 380.5,102.6 378.9,113.6 381.4,115.7 382.4,120.7 384.1,121.3 385.4,119.7 387.8,122.3 
				389.1,127.2 388.8,132.2 390.8,128.2 387.1,115.1 389.6,113.3 			"/>
			<polygon fill="none" stroke="#122333" stroke-width="1.5" stroke-linecap="round" stroke-linejoin="round" points="396.9,117.8 
				399.8,121.7 397.1,124.5 403.2,124.5 403.2,122.9 397.3,116.6 395.9,112.5 391.8,110.5 389.6,111.6 389.6,113.3 391.7,114.5 
				391.7,117.8 			"/>
			<polygon fill="none" stroke="#122333" stroke-width="1.5" stroke-linecap="round" stroke-linejoin="round" points="391.7,117.8 
				391.7,114.5 389.6,113.3 387.1,115.1 390.8,128.2 388.8,132.2 388.6,134.2 392.2,137.2 392.5,138.3 394.7,138 391.2,132.9 
				392,125.1 395.9,128.9 395.9,125.7 399.8,121.7 396.9,117.8 			"/>
			<polygon fill="none" stroke="#122333" stroke-width="1.5" stroke-linecap="round" stroke-linejoin="round" points="395.9,125.7 
				395.9,128.9 397.8,130.8 400,130.5 403.2,128.1 403.2,124.5 397.1,124.5 			"/>
			<polygon fill="none" stroke="#122333" stroke-width="1.5" stroke-linecap="round" stroke-linejoin="round" points="397.3,116.6 
				403.2,122.9 403.2,128.1 400,130.5 400.1,134 406.2,129.9 406,123.8 399.6,117 399.9,113.3 402.2,112 397.2,107.7 391.8,110.5 
				395.9,112.5 			"/>
			<polygon fill="none" stroke="#122333" stroke-width="1.5" stroke-linecap="round" stroke-linejoin="round" points="371.5,103.4 
				370.1,104 372.1,110.1 373.3,108.9 378.9,113.6 379.2,111.1 376.3,108.4 375.8,105.1 373.5,106 			"/>
			<polygon fill="none" stroke="#122333" stroke-width="1.5" stroke-linecap="round" stroke-linejoin="round" points="373.5,102.9 
				370.1,102.1 370.6,100 369.6,99.6 367.5,102.9 356.2,98.6 356.2,95 353.4,94 353,87.6 350.6,86.5 348.3,86.5 344.9,88.9 
				344.8,90.9 346.8,92.1 347.8,96.1 343.4,100.2 340.5,100.2 340.5,103.3 342.6,104.1 342.6,106.7 338.8,107.7 339.1,108.1 
				342.3,109.1 340.8,110.7 342.2,112.5 344.7,112.8 345.2,110.7 346.2,110.7 354.3,134.1 359.5,130.9 360.3,121.5 372.1,110.1 
				370.1,104 371.5,103.4 373.5,106 375.8,105.1 376.3,108.4 379.2,111.1 380.5,102.6 383.9,100.2 378.2,97.7 374.3,101.3 			"/>
			<polygon fill="none" stroke="#122333" stroke-width="1.5" stroke-linecap="round" stroke-linejoin="round" points="356.2,95 
				356.2,98.6 367.5,102.9 369.6,99.6 			"/>
			<polygon fill="none" stroke="#122333" stroke-width="1.5" stroke-linecap="round" stroke-linejoin="round" points="370.6,100 
				370.1,102.1 373.5,102.9 374.3,101.3 			"/>
			<polygon fill="none" stroke="#122333" stroke-width="1.5" stroke-linecap="round" stroke-linejoin="round" points="306.2,72.8 
				308.6,74.8 311.7,74 314.4,76.2 313.9,70.3 318.1,69.4 323.6,73.2 328.2,72.3 331.6,76.7 334.9,76.6 338.1,74 345.6,73.6 
				350.4,75.9 349.2,70.1 356.7,64.3 352.3,61.8 327.1,52.9 317.2,55.2 317.2,59.6 299.5,59.6 299.5,65.5 301.9,68.4 306.9,66.4 
				309.9,68.4 306.3,70.2 			"/>
			<polygon fill="none" stroke="#122333" stroke-width="1.5" stroke-linecap="round" stroke-linejoin="round" points="325.5,86.7 
				323.8,84 317.2,81.9 313.3,83.2 313.2,84.9 308.3,84.9 305.5,80.1 299,80.7 299,82.6 306.9,96.1 309.3,96.4 314.8,102.1 
				324.9,105.1 327.7,105.1 329.7,101.6 327.4,98.8 324.2,89.4 			"/>
			<polygon fill="none" stroke="#122333" stroke-width="1.5" stroke-linecap="round" stroke-linejoin="round" points="314.4,76.2 
				311.7,74 308.6,74.8 313.5,78.9 313.3,83.2 317.2,81.9 323.8,84 325.5,86.7 331.8,83.5 321.4,75.2 317,75.2 			"/>
			<polygon fill="none" stroke="#122333" stroke-width="1.5" stroke-linecap="round" stroke-linejoin="round" points="340.5,100.2 
				343.4,100.2 347.8,96.1 346.8,92.1 344.8,90.9 344.9,88.9 348.3,86.4 350.6,86.4 345.8,84.3 340.7,85 339.1,92 333.2,97.4 
				326.9,97.3 327.4,98.8 329.7,101.6 327.7,105.1 336.5,105.1 338.8,107.7 342.6,106.7 342.6,104.1 340.5,103.3 			"/>
			<polygon fill="none" stroke="#122333" stroke-width="1.5" stroke-linecap="round" stroke-linejoin="round" points="323.6,73.2 
				318.1,69.4 313.9,70.3 314.4,76.2 317,75.2 321.4,75.2 331.8,83.5 335.2,84.4 333.6,79.8 338.4,78.5 338.7,76.4 331.6,76.7 
				328.2,72.3 			"/>
			<polygon fill="none" stroke="#122333" stroke-width="1.5" stroke-linecap="round" stroke-linejoin="round" points="325.5,86.7 
				324.2,89.4 326.9,97.3 333.2,97.4 339.1,92 340.7,85 339.7,82.1 335.2,84.4 331.8,83.5 			"/>
			<polygon fill="none" stroke="#122333" stroke-width="1.5" stroke-linecap="round" stroke-linejoin="round" points="339.2,80.7 
				335.2,79.4 333.6,79.9 335.2,84.4 339.7,82.1 340.7,85 345.8,84.3 345,83.9 343.6,80.3 			"/>
			<polygon fill="none" stroke="#122333" stroke-width="1.5" stroke-linecap="round" stroke-linejoin="round" points="338.1,74 
				334.9,76.6 338.7,76.4 338.4,78.5 335.2,79.4 339.2,80.7 343.6,80.3 342.9,78.7 350.4,75.9 345.6,73.6 			"/>
			<polygon fill="none" stroke="#122333" stroke-width="1.5" stroke-linecap="round" stroke-linejoin="round" points="299.5,77.7 
				302.4,80.4 305.5,80.1 303.3,76.2 301,75.6 			"/>
			<polygon fill="none" stroke="#122333" stroke-width="1.5" stroke-linecap="round" stroke-linejoin="round" points="293.3,76.7 
				297.6,77.7 299.5,77.7 301,75.6 295.5,73.2 293.3,73.6 			"/>
			<polygon fill="none" stroke="#122333" stroke-width="1.5" stroke-linecap="round" stroke-linejoin="round" points="299,80.7 
				302.4,80.4 299.5,77.7 297.6,77.7 			"/>
			<polygon fill="none" stroke="#122333" stroke-width="1.5" stroke-linecap="round" stroke-linejoin="round" points="266.4,48 
				265.3,48.2 265.6,48.4 265.3,49.9 262.1,48.4 262.1,50.3 266.4,51.4 269.5,52.9 270.7,51.8 270.3,48.8 268.7,49.2 			"/>
			<polygon fill="none" stroke="#122333" stroke-width="1.5" stroke-linecap="round" stroke-linejoin="round" points="262.1,52.5 
				264.5,53.3 265.2,54.6 265.7,56.1 269.5,52.9 266.4,51.4 262.1,50.3 			"/>
			<polygon fill="none" stroke="#122333" stroke-width="1.5" stroke-linecap="round" stroke-linejoin="round" points="274.4,51.8 
				270.7,51.8 265.7,56.1 266.5,58.3 273.7,59.5 278.2,58.5 275.5,57.4 277.1,56.4 			"/>
			<polygon fill="none" stroke="#122333" stroke-width="1.5" stroke-linecap="round" stroke-linejoin="round" points="264.3,46.2 
				263.9,47.2 265.3,48.2 266.4,48 268.7,49.2 270.3,48.8 269.8,45.3 268.9,46.1 			"/>
			<polygon fill="none" stroke="#122333" stroke-width="1.5" stroke-linecap="round" stroke-linejoin="round" points="273.7,59.5 
				266.5,58.3 267,59.6 264.4,62.8 264.4,64.6 274.1,64.6 275.1,66.4 273.4,69 274.9,69.6 275.3,68.4 281,68.4 279.8,69.7 
				281.5,70.8 283.9,70.6 281.7,67.7 287.7,66.4 289.2,62.9 278.2,58.5 			"/>
			<polygon fill="none" stroke="#122333" stroke-width="1.5" stroke-linecap="round" stroke-linejoin="round" points="260,31.3 
				249.9,38.7 249.9,45.3 248.5,47.5 252.3,51.8 258.5,46.4 255.6,42.8 262.1,35.6 263.4,35.6 261.6,31.3 			"/>
			<polygon fill="none" stroke="#122333" stroke-width="1.5" stroke-linecap="round" stroke-linejoin="round" points="242.2,48 
				248.1,47 248.5,47.5 249.9,45.3 249.9,38.7 260,31.3 265.6,31.3 265.6,29.5 259.9,29.7 240.2,43.3 			"/>
			<polygon fill="none" stroke="#122333" stroke-width="1.5" stroke-linecap="round" stroke-linejoin="round" points="265.6,31.3 
				261.6,31.3 263.4,35.6 264.5,35.6 261.3,42.7 265,44.6 270.6,44.6 273.7,41 268.5,29.3 265.6,29.4 			"/>
			<polygon fill="none" stroke="#122333" stroke-width="1.5" stroke-linecap="round" stroke-linejoin="round" points="435,63.7 
				436.9,63.7 430.1,56.7 428.2,56.7 433.6,63.4 436.3,68.4 438.3,68.4 			"/>
			<polygon fill="none" stroke="#122333" stroke-width="1.5" stroke-linecap="round" stroke-linejoin="round" points="264.5,53.3 
				262.1,52.5 262.1,54.1 265.1,54.7 			"/>
			<polygon fill="none" stroke="#122333" stroke-width="1.5" stroke-linecap="round" stroke-linejoin="round" points="408.6,29.2 
				406.7,26.6 395.3,24.8 392.1,27.7 382.8,27.7 379,24.8 358,24.8 356.7,20.2 337.4,20.2 320.4,27.8 324.1,32.4 320.9,35.7 
				318,26.2 312.8,25.8 315.3,31.4 295.4,32 276.8,39.6 274.4,34.9 281.5,35.2 284.9,33.5 271.4,29.2 268.5,29.3 273.7,41 
				270.6,44.6 269.8,45.3 270.3,48.8 270.7,51.8 274.3,51.8 277.1,56.4 275.5,57.4 278.2,58.5 289.2,62.9 287.6,66.4 288.4,68.1 
				286.6,68.6 286.9,71.4 293.3,73.7 295.5,73.2 301,75.6 303.3,76.2 301.9,73.7 301.9,68.4 299.5,65.5 299.5,59.7 317.1,59.7 
				317.1,55.2 327.1,52.9 352.3,61.8 356.7,64.4 362,60.3 369.1,62.5 371.1,58.1 388.6,62.5 397.2,62.5 400.4,61.8 398.7,55.8 
				406.2,55.8 414,63.3 424.5,66 424.5,74.5 429.1,73.7 431.6,70 431.6,63.1 424.5,55.1 417.6,55 418.8,46.5 433,46.6 434.5,41.8 
				440.5,44 440.5,41.8 442,42 444.6,44.4 442.1,46.1 441.8,51.2 451.9,60.7 451.9,51.5 446.2,46 459.6,41.8 459.8,40.4 453,38.5 
				455.7,36.5 461.7,37.7 465.8,37.8 462.5,34.3 441.4,30.1 			"/>
			<polygon fill="none" stroke="#122333" stroke-width="1.5" stroke-linecap="round" stroke-linejoin="round" points="257.5,65.1 
				255,67.1 258.6,68.5 262.5,67.8 265.5,64.6 264.3,64.6 264.3,63.8 			"/>
			<polygon fill="none" stroke="#122333" stroke-width="1.5" stroke-linecap="round" stroke-linejoin="round" points="255.6,63.3 
				257.5,65.1 264.3,63.8 264.3,62.8 258.1,62 257.9,61.9 			"/>
			<polygon fill="none" stroke="#122333" stroke-width="1.5" stroke-linecap="round" stroke-linejoin="round" points="242.6,68.3 
				244.8,68.5 246.8,68 246.1,65.8 244.2,65.8 243,66.4 			"/>
			<polygon fill="none" stroke="#122333" stroke-width="1.5" stroke-linecap="round" stroke-linejoin="round" points="251.1,63.3 
				255.6,63.3 257.9,61.9 253.5,60.2 249.6,61.4 			"/>
			<polygon fill="none" stroke="#122333" stroke-width="1.5" stroke-linecap="round" stroke-linejoin="round" points="220.4,84.3 
				221.3,84.4 222.4,75.6 219,75.1 218.8,81.5 			"/>
			<polygon fill="none" stroke="#122333" stroke-width="1.5" stroke-linecap="round" stroke-linejoin="round" points="273.3,69 
				275,66.4 274.1,64.6 271.2,64.6 			"/>
			<polygon fill="none" stroke="#122333" stroke-width="1.5" stroke-linecap="round" stroke-linejoin="round" points="265.1,54.6 
				262.1,54.1 258.9,54.2 258.1,53.5 253.5,54.6 253.1,54.6 253.5,60.2 257.9,61.9 258.1,62 264.3,62.8 266.9,59.6 266.5,58.3 
				265.7,56.1 			"/>
			<polygon fill="none" stroke="#122333" stroke-width="1.5" stroke-linecap="round" stroke-linejoin="round" points="265.5,64.6 
				262.5,67.8 265.2,72.4 272.1,71.6 274,72.1 274.8,69.6 273.3,69 271.2,64.6 			"/>
			<polygon fill="none" stroke="#122333" stroke-width="1.5" stroke-linecap="round" stroke-linejoin="round" points="253.1,54.6 
				247.2,54.6 246.9,53.5 244.8,53.5 245.2,54.5 242.1,56.4 241.8,61.8 243.7,62.8 243,66.4 244.2,65.8 248.6,65.8 249,65.7 
				252.2,64.8 251.1,63.3 249.6,61.4 253.5,60.2 			"/>
			<polygon fill="none" stroke="#122333" stroke-width="1.5" stroke-linecap="round" stroke-linejoin="round" points="244.8,53.5 
				246.9,53.5 246.8,53.1 247.5,49.3 245.6,49.2 244.3,52.2 			"/>
			<polygon fill="none" stroke="#122333" stroke-width="1.5" stroke-linecap="round" stroke-linejoin="round" points="250.4,52.2 
				249.2,51 248.1,51.4 247.8,53.1 249.8,53.1 			"/>
			<polygon fill="none" stroke="#122333" stroke-width="1.5" stroke-linecap="round" stroke-linejoin="round" points="252.2,64.8 
				248.6,65.8 246.1,65.8 246.8,68 250.6,67.1 255,67.1 256.8,65.6 257.5,65.1 255.6,63.3 251.1,63.3 			"/>
			<polygon fill="none" stroke="#122333" stroke-width="1.5" stroke-linecap="round" stroke-linejoin="round" points="254.3,82.2 
				250.5,82.2 250.5,83.1 251.9,84.1 254.3,84.5 			"/>
			<polygon fill="none" stroke="#122333" stroke-width="1.5" stroke-linecap="round" stroke-linejoin="round" points="244.2,76.7 
				244.2,80.7 246,80.7 246,77.3 			"/>
			<polygon fill="none" stroke="#122333" stroke-width="1.5" stroke-linecap="round" stroke-linejoin="round" points="242.6,68.3 
				242.2,70 244.5,71 247.1,71 255.1,79 255.5,82.4 256.9,81.6 257.4,79.1 259.2,78.8 249.5,70.3 252.2,70.1 250.6,67.1 244.8,68.5 
							"/>
			<polygon fill="none" stroke="#122333" stroke-width="1.5" stroke-linecap="round" stroke-linejoin="round" points="245.1,74 
				245.1,75.6 246,76 246.5,74 			"/>
			<polygon fill="none" stroke="#122333" stroke-width="1.5" stroke-linecap="round" stroke-linejoin="round" points="226.7,64 
				226.7,65.1 230,66.9 230.4,72.8 235.3,76 236.9,74 244.1,74 244.3,71 244.5,71 242.2,70 243.7,62.8 237.2,59.4 229.5,64 			"/>
			<polygon fill="none" stroke="#122333" stroke-width="1.5" stroke-linecap="round" stroke-linejoin="round" points="239,58.3 
				237.2,59.4 240.8,61.3 241.9,60.7 241.9,59.8 			"/>
			<polygon fill="none" stroke="#122333" stroke-width="1.5" stroke-linecap="round" stroke-linejoin="round" points="241.9,59.8 
				242.1,56.4 239,58.3 			"/>
			<polygon fill="none" stroke="#122333" stroke-width="1.5" stroke-linecap="round" stroke-linejoin="round" points="240.8,61.3 
				241.8,61.8 241.9,60.7 			"/>
			<polygon fill="none" stroke="#122333" stroke-width="1.5" stroke-linecap="round" stroke-linejoin="round" points="228.8,52.9 
				228.9,55.4 227.2,56.3 228.7,58.5 225.6,61.3 229.6,60.6 233.7,60 233.9,58.5 234.8,58.5 235,56.8 232.3,56.2 229,48.7 
				226.5,48.6 226.5,52.7 			"/>
			<polygon fill="none" stroke="#122333" stroke-width="1.5" stroke-linecap="round" stroke-linejoin="round" points="225.6,54.7 
				225.6,53.1 222.7,52.9 224.4,55.1 			"/>
			<polygon fill="none" stroke="#122333" stroke-width="1.5" stroke-linecap="round" stroke-linejoin="round" points="219.7,55.1 
				219.7,59.5 221.4,59.4 221.4,57.9 224.6,58.4 224.4,55.1 222.7,52.9 			"/>
			<polygon fill="none" stroke="#122333" stroke-width="1.5" stroke-linecap="round" stroke-linejoin="round" points="221.3,84.4 
				228.4,84.9 235.3,76 230.4,72.8 219,72.9 219,75.1 222.4,75.6 			"/>
			<polygon fill="none" stroke="#122333" stroke-width="1.5" stroke-linecap="round" stroke-linejoin="round" points="237,80.6 
				237,78.7 234.8,80.6 			"/>
			<polygon fill="none" stroke="#122333" stroke-width="1.5" stroke-linecap="round" stroke-linejoin="round" points="262.7,78.4 
				267.2,77 266.2,74.6 262.5,75.3 			"/>
			<polygon fill="none" stroke="#122333" stroke-width="1.5" stroke-linecap="round" stroke-linejoin="round" points="259.9,68.3 
				260.7,72.8 262.5,75.3 266.2,74.6 265.2,72.4 262.5,67.8 			"/>
			<polygon fill="none" stroke="#122333" stroke-width="1.5" stroke-linecap="round" stroke-linejoin="round" points="252.2,70.1 
				252.6,70.1 254.7,69 255.7,67.4 255,67.1 250.6,67.1 			"/>
			<polygon fill="none" stroke="#122333" stroke-width="1.5" stroke-linecap="round" stroke-linejoin="round" points="274.6,79 
				271.2,79 274,84.5 286.6,85.2 298.9,82.6 298.9,80.7 297.5,77.7 293.3,76.7 276,77.2 			"/>
			<polygon fill="none" stroke="#122333" stroke-width="1.5" stroke-linecap="round" stroke-linejoin="round" points="271.2,77.7 
				274.3,77.7 273,75.1 271.2,75.7 			"/>
			<polygon fill="none" stroke="#122333" stroke-width="1.5" stroke-linecap="round" stroke-linejoin="round" points="257.5,74.2 
				258.6,74.4 260.7,72.8 260.1,69.5 255.6,70.1 			"/>
			<polygon fill="none" stroke="#122333" stroke-width="1.5" stroke-linecap="round" stroke-linejoin="round" points="261.1,78.9 
				262.5,80.6 265.2,81.4 263.5,82.1 265.8,84.8 267.1,82.6 265.6,79.3 268.7,77.7 271.2,77.7 271.2,75.7 			"/>
			<polygon fill="none" stroke="#122333" stroke-width="1.5" stroke-linecap="round" stroke-linejoin="round" points="258.6,68.5 
				255.7,67.4 254.7,69 252.6,70.1 253.4,70.1 256.8,74 257.5,74.2 255.6,70.1 260.1,69.5 259.9,68.3 			"/>
			<polygon fill="none" stroke="#122333" stroke-width="1.5" stroke-linecap="round" stroke-linejoin="round" points="259.9,74.8 
				261.5,73.9 260.7,72.8 258.6,74.4 260.8,78.7 261.1,79 262.7,78.4 262.5,75.3 261.5,73.9 			"/>
			<polygon fill="none" stroke="#122333" stroke-width="1.5" stroke-linecap="round" stroke-linejoin="round" points="267.2,77 
				273,75.1 274,72.1 272.1,71.6 265.2,72.4 			"/>
			<polygon fill="none" stroke="#122333" stroke-width="1.5" stroke-linecap="round" stroke-linejoin="round" points="310.9,105.1 
				312.3,106 313.2,105.1 311.6,102.9 			"/>
			<polygon fill="none" stroke="#122333" stroke-width="1.5" stroke-linecap="round" stroke-linejoin="round" points="283.8,86.6 
				280.2,87.9 282.8,88.6 			"/>
			<polygon fill="none" stroke="#122333" stroke-width="1.5" stroke-linecap="round" stroke-linejoin="round" points="286.1,91.2 
				286.1,97.6 287.4,97.8 289.5,96.8 290.1,93.2 291.6,92.6 291.7,92.5 291.3,90.6 288,92.5 			"/>
			<polygon fill="none" stroke="#122333" stroke-width="1.5" stroke-linecap="round" stroke-linejoin="round" points="310.5,104.8 
				306.9,99 305.4,99 304.3,97.6 301.2,97.6 291.6,92.6 290.1,93.2 289.5,96.8 287.4,97.8 286.1,97.6 298.6,119.4 298.9,120.2 
				300.2,117.9 304.6,118.5 304.2,120.2 310.5,116.9 319.3,114.5 319.3,109.9 314.7,109.3 313.3,106.7 			"/>
			<polygon fill="none" stroke="#122333" stroke-width="1.5" stroke-linecap="round" stroke-linejoin="round" points="302.9,97.6 
				304.3,97.6 305.4,99 306.9,99 305,96 303.3,96 			"/>
			<polygon fill="none" stroke="#122333" stroke-width="1.5" stroke-linecap="round" stroke-linejoin="round" points="293.9,89 
				291.3,90.6 291.7,92.6 301.2,97.6 302.9,97.6 303.3,96 306.8,95.9 298.9,82.7 295.3,83.4 			"/>
			<polygon fill="none" stroke="#122333" stroke-width="1.5" stroke-linecap="round" stroke-linejoin="round" points="316.7,107.4 
				313.3,106.7 314.7,109.3 317.3,109.6 321,105.9 319.3,104.4 			"/>
			<polygon fill="none" stroke="#122333" stroke-width="1.5" stroke-linecap="round" stroke-linejoin="round" points="317.3,109.6 
				319.3,109.9 319.3,114.5 314.9,115.7 314.9,118.4 317.4,120.1 325.6,109.9 321,105.9 			"/>
			<polygon fill="none" stroke="#122333" stroke-width="1.5" stroke-linecap="round" stroke-linejoin="round" points="287.6,88.5 
				286.1,91.2 288,92.5 293.9,89 295.3,83.4 286.6,85.2 286,87.9 			"/>
			<polygon fill="none" stroke="#122333" stroke-width="1.5" stroke-linecap="round" stroke-linejoin="round" points="310.5,116.9 
				304.2,120.2 304.6,118.5 300.2,117.9 298.9,120.2 301.1,127.4 317.4,120.1 314.9,118.4 314.9,115.7 			"/>
			<polygon fill="none" stroke="#122333" stroke-width="1.5" stroke-linecap="round" stroke-linejoin="round" points="286.1,91.2 
				287.6,88.5 286,87.9 285.4,90.7 			"/>
			<polygon fill="none" stroke="#122333" stroke-width="1.5" stroke-linecap="round" stroke-linejoin="round" points="286.1,97.7 
				286.1,97.6 286.1,91.2 285.4,90.7 284.3,94.8 			"/>
			<polygon fill="none" stroke="#122333" stroke-width="1.5" stroke-linecap="round" stroke-linejoin="round" points="299.4,189.9 
				301.1,193.9 305.2,194.1 312.1,171.8 309.7,171.8 301.6,180.2 300.8,186 			"/>
			<polygon fill="none" stroke="#122333" stroke-width="1.5" stroke-linecap="round" stroke-linejoin="round" points="254.7,135.3 
				253.5,131.8 255.9,131.8 253,125.6 253,129 248.8,137.7 245.1,137.9 244.6,141.4 246.2,141.4 246.1,145.1 256.2,145.1 
				256.6,143.8 256.6,143.8 253.6,139.5 			"/>
			<polygon fill="none" stroke="#122333" stroke-width="1.5" stroke-linecap="round" stroke-linejoin="round" points="248.9,147.7 
				246.1,147.7 246,152.1 249.6,156.9 249.6,152.8 254.3,152.8 251.9,145.1 248.9,145.1 248.9,145.1 246.1,145.1 246.1,147.7 			"/>
			<polygon fill="none" stroke="#122333" stroke-width="1.5" stroke-linecap="round" stroke-linejoin="round" points="239.4,138.6 
				240.1,141.4 244.6,141.4 245.1,137.9 248.8,137.7 253,129 253,125.6 237.3,125.6 234.8,137.9 			"/>
			<polygon fill="none" stroke="#122333" stroke-width="1.5" stroke-linecap="round" stroke-linejoin="round" points="216.4,136.2 
				217.5,137.5 217.5,142.9 226,140.4 226,132.5 217.7,130.9 217.7,135 			"/>
			<polygon fill="none" stroke="#122333" stroke-width="1.5" stroke-linecap="round" stroke-linejoin="round" points="217.5,142.9 
				217.5,137.5 214.4,134 211.7,136.6 			"/>
			<polygon fill="none" stroke="#122333" stroke-width="1.5" stroke-linecap="round" stroke-linejoin="round" points="268.8,167.9 
				265.9,166.5 265.9,161.1 262.5,161.1 261.9,163.5 258.6,163.6 257.7,160.6 252.4,160.7 252.4,172.4 249.4,177.3 249.7,180.6 
				268.2,180.6 265.2,176.8 265.2,172.6 268.9,172.6 			"/>
			<polygon fill="none" stroke="#122333" stroke-width="1.5" stroke-linecap="round" stroke-linejoin="round" points="231.8,138.8 
				230.4,130.3 226,130.3 226,140.4 			"/>
			<polygon fill="none" stroke="#122333" stroke-width="1.5" stroke-linecap="round" stroke-linejoin="round" points="251.9,145.1 
				254.3,152.8 249.6,152.8 249.6,156.9 251.4,159.3 255.9,157.3 260.5,149.6 261.3,143.8 256.6,143.8 256.2,145.1 			"/>
			<polygon fill="none" stroke="#122333" stroke-width="1.5" stroke-linecap="round" stroke-linejoin="round" points="295.3,123.8 
				298,128.1 299.1,127.3 292.1,115.3 288.5,123.8 			"/>
			<polygon fill="none" stroke="#122333" stroke-width="1.5" stroke-linecap="round" stroke-linejoin="round" points="211.7,136.6 
				214.4,134 211.6,130.9 208.9,133.6 			"/>
			<polygon fill="none" stroke="#122333" stroke-width="1.5" stroke-linecap="round" stroke-linejoin="round" points="298.8,131 
				300.5,129.7 299.1,127.3 297,129 			"/>
			<polygon fill="none" stroke="#122333" stroke-width="1.5" stroke-linecap="round" stroke-linejoin="round" points="285.8,170 
				285.8,172.6 288.1,174.1 288.1,177.3 285.9,179.2 285.9,175.5 283.8,173.7 283.7,173.7 279.7,176.6 283.7,179.2 283.7,182.9 
				281.2,188.9 281.2,195.5 283,195.4 283.1,194.5 287,191.9 286.7,183.9 295.6,176.5 294.7,168.2 			"/>
			<polygon fill="none" stroke="#122333" stroke-width="1.5" stroke-linecap="round" stroke-linejoin="round" points="300.5,129.7 
				298.8,131 300.5,133 307.6,135.5 296.6,144.7 296.6,152.7 313.9,132.5 313.2,129 301.1,130.8 			"/>
			<polygon fill="none" stroke="#122333" stroke-width="1.5" stroke-linecap="round" stroke-linejoin="round" points="256.3,199.2 
				263,199.2 263,182.2 271.8,182.2 270.7,180.6 249.7,180.6 			"/>
			<polygon fill="none" stroke="#122333" stroke-width="1.5" stroke-linecap="round" stroke-linejoin="round" points="289.3,140.9 
				286.2,141.3 287.1,145.1 286.7,148.2 285.3,150.6 293.6,156.1 296.6,152.7 296.6,144.7 299.8,142 290.3,142 			"/>
			<polygon fill="none" stroke="#122333" stroke-width="1.5" stroke-linecap="round" stroke-linejoin="round" points="285.3,150.6 
				284.8,151.6 281.8,151.6 282.6,150.2 281.2,150.2 278.2,157.8 283.7,165.6 285.8,165.6 285.8,170 294.7,168.2 293.6,156.1 			"/>
			<polygon fill="none" stroke="#122333" stroke-width="1.5" stroke-linecap="round" stroke-linejoin="round" points="217.2,103.1 
				212.3,103.1 212.3,108.8 210.5,111.6 204.4,111.6 204.1,117.9 211.6,123.3 211.6,121.4 220.7,121.4 219.8,106 224.5,106 
				217.2,100.6 			"/>
			<polygon fill="none" stroke="#122333" stroke-width="1.5" stroke-linecap="round" stroke-linejoin="round" points="280,153.3 
				281.2,150.2 278.6,150.2 277.7,153.8 			"/>
			<polygon fill="none" stroke="#122333" stroke-width="1.5" stroke-linecap="round" stroke-linejoin="round" points="278.2,157.8 
				280,153.3 277.7,153.8 277.1,156.4 			"/>
			<polygon fill="none" stroke="#122333" stroke-width="1.5" stroke-linecap="round" stroke-linejoin="round" points="206,130.5 
				208.9,133.6 211.6,130.9 214.4,134 216.4,136.2 217.7,135 217.7,130.9 217.1,128 208.5,128 			"/>
			<polygon fill="none" stroke="#122333" stroke-width="1.5" stroke-linecap="round" stroke-linejoin="round" points="220.7,121.4 
				211.6,121.4 211.6,123.3 213.7,128 217.1,128 217.7,130.9 221.9,131.7 221.9,127.6 237.8,121.1 237.8,115.8 224.5,106 219.8,106 
							"/>
			<polygon fill="none" stroke="#122333" stroke-width="1.5" stroke-linecap="round" stroke-linejoin="round" points="276.2,169.1 
				279.4,170.4 278.3,172.6 268.8,167.9 268.9,172.6 265.2,172.6 265.2,176.8 268.2,180.6 273.9,180.6 283.7,173.7 283.7,165.6 
				282.5,163.9 277.1,164.7 			"/>
			<polygon fill="none" stroke="#122333" stroke-width="1.5" stroke-linecap="round" stroke-linejoin="round" points="263,193.1 
				265.6,196.2 276.6,188.9 271.8,182.2 263,182.2 			"/>
			<polygon fill="none" stroke="#122333" stroke-width="1.5" stroke-linecap="round" stroke-linejoin="round" points="221.9,131.7 
				226,132.5 226,130.3 230.4,130.3 235.5,128.4 230.7,124 221.9,127.6 			"/>
			<polygon fill="none" stroke="#122333" stroke-width="1.5" stroke-linecap="round" stroke-linejoin="round" points="283.7,165.6 
				283.7,173.7 283.8,173.7 285.9,175.5 285.9,179.2 288.1,177.3 288.1,174.1 285.8,172.6 285.8,165.6 			"/>
			<polygon fill="none" stroke="#122333" stroke-width="1.5" stroke-linecap="round" stroke-linejoin="round" points="298,128.1 
				295.3,123.8 288.5,123.8 283.7,135.1 290.3,142 299.8,142 307.6,135.5 300.5,133 297,129 			"/>
			<polygon fill="none" stroke="#122333" stroke-width="1.5" stroke-linecap="round" stroke-linejoin="round" points="278.6,150.2 
				282.6,150.2 283.7,148.2 286.7,148.2 287.1,145.1 286.2,141.3 280.5,142.1 			"/>
			<polygon fill="none" stroke="#122333" stroke-width="1.5" stroke-linecap="round" stroke-linejoin="round" points="237.8,115.8 
				237.8,121.1 230.7,124 235.5,128.4 236.8,128 237.3,125.6 253,125.6 256.5,118.3 255.1,108.8 248.1,108.8 			"/>
			<polygon fill="none" stroke="#122333" stroke-width="1.5" stroke-linecap="round" stroke-linejoin="round" points="204.4,111.6 
				210.5,111.6 212.3,108.8 212.3,103.1 217.2,103.1 217.2,99.7 211.8,99.7 204.4,109.3 			"/>
			<polygon fill="none" stroke="#122333" stroke-width="1.5" stroke-linecap="round" stroke-linejoin="round" points="203.9,124.1 
				208.8,125.6 203.9,125.6 203.8,128 213.7,128 211.6,123.3 204.1,117.9 			"/>
			<polygon fill="none" stroke="#122333" stroke-width="1.5" stroke-linecap="round" stroke-linejoin="round" points="208.8,125.6 
				203.9,124.1 203.9,125.6 			"/>
			<polygon fill="none" stroke="#122333" stroke-width="1.5" stroke-linecap="round" stroke-linejoin="round" points="256.5,118.3 
				253,125.6 255.9,131.8 253.5,131.8 254.7,135.3 266.4,129.7 266.4,123.7 269,121.2 269.2,115.3 259.1,108.8 255.1,108.8 			"/>
			<polygon fill="none" stroke="#122333" stroke-width="1.5" stroke-linecap="round" stroke-linejoin="round" points="256.5,94.7 
				254.4,92.1 249.8,91 245.6,95.6 248.3,108.8 259.1,108.8 269.2,115.3 270.2,92.9 264.3,92.1 261.9,95.7 			"/>
			<polygon fill="none" stroke="#122333" stroke-width="1.5" stroke-linecap="round" stroke-linejoin="round" points="216.4,99.7 
				217.2,99.7 217.2,99 229.5,92.3 229.5,87.5 220.4,88.4 211.8,99.7 			"/>
			<polygon fill="none" stroke="#122333" stroke-width="1.5" stroke-linecap="round" stroke-linejoin="round" points="229.5,87.5 
				229.5,92.3 217.2,99 217.2,100.6 237.8,115.8 248.1,108.8 248.3,108.8 243.3,84.6 237.4,84.5 			"/>
			<polygon fill="none" stroke="#122333" stroke-width="1.5" stroke-linecap="round" stroke-linejoin="round" points="243.3,84.6 
				245.6,95.6 249.8,91 248.1,90.6 248.4,84.8 			"/>
			<polygon fill="none" stroke="#122333" stroke-width="1.5" stroke-linecap="round" stroke-linejoin="round" points="270.7,180.6 
				276.6,188.9 281.2,188.9 283.7,182.9 283.7,179.2 279.7,176.6 273.9,180.6 			"/>
			<polygon fill="none" stroke="#122333" stroke-width="1.5" stroke-linecap="round" stroke-linejoin="round" points="273.4,203.2 
				275.7,203.2 277.1,201.8 277.1,199.9 275.2,199.9 273.4,201.1 			"/>
			<polygon fill="none" stroke="#122333" stroke-width="1.5" stroke-linecap="round" stroke-linejoin="round" points="281.2,194.9 
				279.4,194.9 279.4,196.5 281.2,197.6 			"/>
			<polygon fill="none" stroke="#122333" stroke-width="1.5" stroke-linecap="round" stroke-linejoin="round" points="286,97.8 
				286.1,97.7 284.3,94.8 270.2,92.9 269.5,109.9 284.9,109.9 288,108.1 281.6,97.2 285.1,100 			"/>
			<polygon fill="none" stroke="#122333" stroke-width="1.5" stroke-linecap="round" stroke-linejoin="round" points="288,108.1 
				284.9,109.9 269.5,109.9 269,121.2 266.4,123.7 266.4,129.7 275.6,140.3 280.5,142.1 289.3,140.9 283.7,135.1 288.5,123.8 
				292.1,115.3 			"/>
			<polygon fill="none" stroke="#122333" stroke-width="1.5" stroke-linecap="round" stroke-linejoin="round" points="277.1,156.4 
				280.5,142.1 275.6,140.3 261.7,140.7 260.5,149.6 255.9,157.3 251.4,159.3 252.4,160.7 257.7,160.6 258.6,163.6 261.9,163.5 
				262.5,161.1 265.9,161.1 265.9,166.5 278.3,172.6 279.4,170.4 276.2,169.1 277.1,164.7 282.5,163.9 			"/>
			<polygon fill="none" stroke="#122333" stroke-width="1.5" stroke-linecap="round" stroke-linejoin="round" points="253.6,139.5 
				256.6,143.8 261.3,143.8 261.7,140.7 275.6,140.3 266.4,129.7 254.7,135.3 			"/>
			<polygon fill="none" stroke="#122333" stroke-width="1.5" stroke-linecap="round" stroke-linejoin="round" points="236.8,128 
				232.5,129.6 233.9,138.2 234.8,137.9 			"/>
			<polygon fill="none" stroke="#122333" stroke-width="1.5" stroke-linecap="round" stroke-linejoin="round" points="232.5,129.6 
				230.4,130.3 231.8,138.8 233.9,138.2 			"/>
			<polygon fill="none" stroke="#122333" stroke-width="1.5" stroke-linecap="round" stroke-linejoin="round" points="206,130.5 
				208.5,128 203.8,128 203.8,128.1 			"/>
			<polygon fill="none" stroke="#122333" stroke-width="1.5" stroke-linecap="round" stroke-linejoin="round" points="69.7,30.2 
				66.1,28.7 47,28.8 39.2,31.9 39.2,35.4 30.5,35.3 28.9,37.6 36.2,37.3 26.8,40.8 22.2,47 26.1,47 18.6,51.9 21.4,52.1 35.8,45.2 
				52.4,44.7 57.4,49.7 59.3,47.7 57.7,45.9 55.8,45.9 53.9,43.8 			"/>
			<polygon fill="none" stroke="#122333" stroke-width="1.5" stroke-linecap="round" stroke-linejoin="round" points="57.2,62.2 
				54.6,60 53.5,61 55.3,63.4 57.2,63.4 			"/>
			<polygon fill="none" stroke="#122333" stroke-width="1.5" stroke-linecap="round" stroke-linejoin="round" points="158,65.5 
				156.1,62.4 154.3,61.9 154.3,59.7 148.6,65.5 			"/>
			<polygon fill="none" stroke="#122333" stroke-width="1.5" stroke-linecap="round" stroke-linejoin="round" points="155,29.2 
				143.5,24.5 141.8,24.4 137.8,27.7 139.1,24.4 137.2,24.4 132.5,29.4 143.9,28.8 150.8,35 146.1,34.9 143.8,36.8 138.5,36.8 
				138.5,38.3 143.9,38.3 148.4,42.1 149.6,41.5 148.6,39.1 151.7,40.6 152.7,40.2 152.7,35.5 156.3,36.8 158.4,35.4 157.2,33.2 
				155.1,32.5 			"/>
			<polygon fill="none" stroke="#122333" stroke-width="1.5" stroke-linecap="round" stroke-linejoin="round" points="116.2,71.3 
				119.5,71.3 121.8,69.7 129.3,69.7 132.5,66.9 135.4,66.9 134.4,70.2 139.5,69.3 136.1,71 136.4,72.3 145.6,69.1 141.1,68.9 
				139.1,67 141.1,63.8 140.1,62.9 133.6,65.8 133.6,64.1 139.8,61.1 149.8,60.7 157.3,56.7 157.3,54.9 151.9,54 151.2,45 
				144.1,47.9 144.1,43.7 140.7,40.7 136,40.7 123.4,59.1 120.3,59.1 120.4,53.1 109.5,47.2 120.4,39.1 126.5,38 125.3,36.1 
				134.8,35 138.6,31 135,30.6 130,33.9 130.6,31.1 128.2,30.9 127.7,27.4 123.6,29.2 124.7,31.4 119.3,34 109.9,32.2 104.9,34.6 
				92.8,29.7 69.7,30.2 53.9,43.8 55.7,45.9 57.6,45.9 59.3,47.7 57.4,49.7 55.4,58.6 58.9,61.7 58.9,63.4 97.7,63.4 102.3,65.5 
				110,63.8 111,67.3 112.5,68.4 115.2,68.2 			"/>
			<polygon fill="none" stroke="#122333" stroke-width="1.5" stroke-linecap="round" stroke-linejoin="round" points="130.1,36.8 
				127.2,39.2 133,39.8 133.6,38.3 			"/>
			<polygon fill="none" stroke="#122333" stroke-width="1.5" stroke-linecap="round" stroke-linejoin="round" points="118.7,30.7 
				119.8,32.1 122.5,30.7 121.7,29.4 			"/>
			<polygon fill="none" stroke="#122333" stroke-width="1.5" stroke-linecap="round" stroke-linejoin="round" points="120.8,26 
				122.5,27.7 126.3,26.5 127.3,23.8 			"/>
			<polygon fill="none" stroke="#122333" stroke-width="1.5" stroke-linecap="round" stroke-linejoin="round" points="128,24.9 
				128.5,26.6 133.6,25.2 132.6,23.8 			"/>
			<polygon fill="none" stroke="#122333" stroke-width="1.5" stroke-linecap="round" stroke-linejoin="round" points="141.1,21.4 
				138.3,20.2 135.6,22.6 146.7,23.4 149.6,21.4 			"/>
			<polygon fill="none" stroke="#122333" stroke-width="1.5" stroke-linecap="round" stroke-linejoin="round" points="168.2,15.1 
				174,11.9 150.9,13.6 150.9,14.8 158.7,14.7 157.6,16.1 149.6,16.3 150.6,18.1 147.2,17.6 148.5,19.3 142.6,19.3 143.5,20.2 
				150,20.2 151,21.1 160.5,16.7 			"/>
			<polygon fill="none" stroke="#122333" stroke-width="1.5" stroke-linecap="round" stroke-linejoin="round" points="140,16.5 
				144.3,17.3 146.7,15.7 145,14.4 			"/>
			<polygon fill="none" stroke="#122333" stroke-width="1.5" stroke-linecap="round" stroke-linejoin="round" points="94.7,27.7 
				104.8,24.3 102.4,23.2 92.9,25.7 			"/>
			<polygon fill="none" stroke="#122333" stroke-width="1.5" stroke-linecap="round" stroke-linejoin="round" points="106.1,24.9 
				100.6,26.8 103.8,28.1 98.8,29.4 105,31.8 109.3,30 114.1,31.1 117.6,30.3 114.1,28.7 116.8,25.2 114.1,25.2 112.5,27.3 
				111.9,25.2 109,26.3 			"/>
			<polygon fill="none" stroke="#122333" stroke-width="1.5" stroke-linecap="round" stroke-linejoin="round" points="98.2,109.8 
				103.1,109.8 107.1,112.4 105.6,114.1 112.5,114.1 104.3,108.2 99.9,108.2 			"/>
			<polygon fill="none" stroke="#122333" stroke-width="1.5" stroke-linecap="round" stroke-linejoin="round" points="105.1,117.2 
				106.2,118.1 109.1,118.1 109.1,117 108.1,116 105.1,116 			"/>
			<polygon fill="none" stroke="#122333" stroke-width="1.5" stroke-linecap="round" stroke-linejoin="round" points="123.5,116.4 
				122.9,117.4 124.5,117.4 125.1,116.4 			"/>
			<polygon fill="none" stroke="#122333" stroke-width="1.5" stroke-linecap="round" stroke-linejoin="round" points="86.7,120.7 
				83.9,120.7 82.5,123.1 86.5,125.1 89.2,120.2 88.7,117.6 86.3,117.6 			"/>
			<polygon fill="none" stroke="#122333" stroke-width="1.5" stroke-linecap="round" stroke-linejoin="round" points="89.8,124.6 
				89.3,126.3 90.1,126.7 96.7,121.1 88.7,121.2 87.4,123.5 			"/>
			<polygon fill="none" stroke="#122333" stroke-width="1.5" stroke-linecap="round" stroke-linejoin="round" points="89.3,126.3 
				89.8,124.6 87.4,123.5 86.5,125.1 			"/>
			<polygon fill="none" stroke="#122333" stroke-width="1.5" stroke-linecap="round" stroke-linejoin="round" points="91.8,115.2 
				88.7,117.6 89.2,120.2 			"/>
			<polygon fill="none" stroke="#122333" stroke-width="1.5" stroke-linecap="round" stroke-linejoin="round" points="92.6,130.1 
				96.9,130.5 96.7,121.1 90.1,126.7 			"/>
			<polygon fill="none" stroke="#122333" stroke-width="1.5" stroke-linecap="round" stroke-linejoin="round" points="99.6,156.4 
				103.2,158.1 109.5,150.3 103,146.7 100,150.5 			"/>
			<polygon fill="none" stroke="#122333" stroke-width="1.5" stroke-linecap="round" stroke-linejoin="round" points="112.7,128.9 
				110.9,128.9 107.4,133.7 105.5,133.8 106,135.6 105.1,137 105.8,139.4 105.1,144 103,146.7 117.8,155.1 117.8,145.6 121.2,145.4 
				121.2,137.9 115.6,137.3 113.1,134.6 			"/>
			<polygon fill="none" stroke="#122333" stroke-width="1.5" stroke-linecap="round" stroke-linejoin="round" points="107.8,129.3 
				107.8,127.8 106,129.3 			"/>
			<polygon fill="none" stroke="#122333" stroke-width="1.5" stroke-linecap="round" stroke-linejoin="round" points="136.1,243.7 
				138.3,245.7 145.1,246 137.8,242.1 			"/>
			<polygon fill="none" stroke="#122333" stroke-width="1.5" stroke-linecap="round" stroke-linejoin="round" points="146.5,194.9 
				143.6,196.7 139.6,196.7 139.6,193.2 131.5,187.7 131,188.5 124.2,188.5 122.4,205.4 126.2,222.2 129.7,228.3 129.8,233 
				135,240.8 136.9,241 135.9,220.9 146.8,216.2 141.8,209.3 141.8,201.7 146.7,196.8 			"/>
			<polygon fill="none" stroke="#122333" stroke-width="1.5" stroke-linecap="round" stroke-linejoin="round" points="147.7,211.5 
				150.1,207.4 141.8,201.7 141.8,209.3 			"/>
			<polygon fill="none" stroke="#122333" stroke-width="1.5" stroke-linecap="round" stroke-linejoin="round" points="124.8,131.6 
				121.1,129 112.7,128.9 113.1,134.6 115.6,137.3 121.2,137.9 121.2,145.4 122.1,145.3 123.3,147.9 126.9,146.7 126.6,142.7 
				131.5,140.9 133,133.8 131.3,132.2 			"/>
			<polygon fill="none" stroke="#122333" stroke-width="1.5" stroke-linecap="round" stroke-linejoin="round" points="92.6,130.1 
				95.5,134 96.5,134.4 98,132.5 97,131.9 96.9,130.5 			"/>
			<polygon fill="none" stroke="#122333" stroke-width="1.5" stroke-linecap="round" stroke-linejoin="round" points="138.1,138.6 
				133,133.8 131.5,140.9 133.6,140.2 133.4,146.3 138.2,145.7 136.6,141.4 			"/>
			<polygon fill="none" stroke="#122333" stroke-width="1.5" stroke-linecap="round" stroke-linejoin="round" points="125.4,168.1 
				120.4,169.5 120.4,181 124.2,188.5 131,188.5 133.6,183.7 138.7,183.7 138.6,179.8 129.9,172.7 			"/>
			<polygon fill="none" stroke="#122333" stroke-width="1.5" stroke-linecap="round" stroke-linejoin="round" points="142.6,145.2 
				145.9,144.9 146.9,142.1 145.6,139.3 142.9,139.1 			"/>
			<polygon fill="none" stroke="#122333" stroke-width="1.5" stroke-linecap="round" stroke-linejoin="round" points="138.7,183.7 
				133.6,183.7 131.4,187.7 139.6,193.2 139.6,196.7 143.6,196.7 146.5,194.9 146.3,192.1 138.9,188.2 			"/>
			<polygon fill="none" stroke="#122333" stroke-width="1.5" stroke-linecap="round" stroke-linejoin="round" points="138.2,145.7 
				142.6,145.2 142.9,139.1 138.1,138.6 136.6,141.4 			"/>
			<polygon fill="none" stroke="#122333" stroke-width="1.5" stroke-linecap="round" stroke-linejoin="round" points="158.8,151.9 
				155.1,150.2 151.4,152.4 152.6,149.2 150.1,148.1 146.6,150.8 149.1,147 146.9,142.1 145.9,144.9 133.4,146.3 133.6,140.2 
				131.5,140.9 126.6,142.7 126.9,146.7 123.3,147.9 122.1,145.3 117.8,145.6 117.8,156.8 113.4,157.3 111.4,163.7 118.8,170 
				125.4,168.1 129.9,172.7 138.6,179.8 138.9,188.2 146.3,192.1 146.6,196.8 141.8,201.7 150.1,207.4 154.9,199 156,191.7 
				167.7,186.6 169.8,170.5 174.9,163.9 174.9,159.9 166.6,154.5 158.6,154.1 			"/>
			<polygon fill="none" stroke="#122333" stroke-width="1.5" stroke-linecap="round" stroke-linejoin="round" points="101.2,132.3 
				99.8,133.5 98,132.5 96.5,134.4 100.8,135.9 101.9,134.3 104.4,134.6 105.1,137 106,135.6 105.6,134 105,132 			"/>
			<polygon fill="none" stroke="#122333" stroke-width="1.5" stroke-linecap="round" stroke-linejoin="round" points="113.4,157.3 
				117.8,156.8 117.8,155.1 109.5,150.3 103.1,158.1 99.6,156.4 99.5,158.2 110.3,176.6 119.6,182.9 120.4,181 120.4,169.5 
				118.8,170 111.4,163.7 			"/>
			<polygon fill="none" stroke="#122333" stroke-width="1.5" stroke-linecap="round" stroke-linejoin="round" points="126.2,222.2 
				122.4,205.4 124.2,188.5 120.4,181 119.6,182.9 121.2,221.1 125.3,224.5 125.5,231.3 132.7,240.6 135,240.8 129.8,233 
				129.7,228.3 			"/>
			<polygon fill="none" stroke="#122333" stroke-width="1.5" stroke-linecap="round" stroke-linejoin="round" points="121.2,115 
				116.3,114.4 116.3,117.1 118,115.9 120.6,115.9 			"/>
			<polygon fill="none" stroke="#122333" stroke-width="1.5" stroke-linecap="round" stroke-linejoin="round" points="116.3,116.5 
				116.3,114.4 113.3,114.4 114.3,115.8 112.5,115.8 112.5,116.5 			"/>
		</g>
	</g>
</g>
<g id="Layer_1">
	<g id="mundo1">
		<g>
			<polygon fill="#2F455A" stroke="#122333" stroke-width="0.25" stroke-linecap="round" stroke-linejoin="round" points="
				277.1,201.8 275.7,203.3 273.4,203.3 273.4,201.1 275.2,199.9 277.1,199.9 			"/>
			<polygon fill="#2F455A" stroke="#122333" stroke-width="0.25" stroke-linecap="round" stroke-linejoin="round" points="
				281.2,195.5 281.2,197.6 279.4,196.5 279.4,194.9 281.2,194.9 281.2,188.9 276.6,188.9 265.6,196.2 263,193.2 263,199.2 
				256.3,199.2 260.2,209.8 272.8,209.8 282.6,198.5 283,195.5 			"/>
			<polygon fill="#2F455A" stroke="#122333" stroke-width="0.25" stroke-linecap="round" stroke-linejoin="round" points="
				109.6,76.1 112.1,74.4 115.1,74.4 112.6,76.1 			"/>
			<polygon fill="#2F455A" stroke="#122333" stroke-width="0.25" stroke-linecap="round" stroke-linejoin="round" points="132.6,67 
				129.3,69.8 121.9,69.8 119.6,71.3 121.3,71.3 118.9,73 117.1,73 119.6,71.3 114.7,71.3 112.6,73 110.4,73.2 110.9,69.5 
				109.2,69.5 107.3,70.8 103.7,76.1 101.5,76.1 105.6,69.5 110.4,68.5 110.2,67.6 107,67.5 105.5,66.5 103.6,67.5 101.4,67.5 
				102.3,65.5 97.8,63.4 59,63.4 46.2,76.9 46.2,87.3 50.8,91.9 67.2,94 69.3,97.3 73.9,97.2 77.7,104.6 84.8,95.8 101.6,95.8 
				102.7,104.2 105.3,104.3 105.4,93.8 132.6,70.6 134.4,70.3 135.5,67 			"/>
			<polygon fill="#2F455A" stroke="#122333" stroke-width="0.25" stroke-linecap="round" stroke-linejoin="round" points="
				148.6,65.5 158.1,65.5 156.1,62.4 154.3,62 154.3,59.7 			"/>
			<polygon fill="#2F455A" stroke="#122333" stroke-width="0.25" stroke-linecap="round" stroke-linejoin="round" points="
				78.3,116.3 74.7,108.4 77.7,104.6 73.9,97.2 69.3,97.3 67.2,94 50.8,91.9 50.9,92 51.6,99.3 56.6,108.8 58.6,107.2 54.7,98.8 
				54.7,94 57,94 57.1,98.4 64.6,116.1 76.8,121.2 79.9,120.4 82.6,123.1 83.9,120.7 86.7,120.7 86.3,117.6 88.7,117.6 91.9,115.3 
				92,111.9 88.6,111.8 85.9,116.3 			"/>
			<polygon fill="#2F455A" stroke="#122333" stroke-width="0.25" stroke-linecap="round" stroke-linejoin="round" points="
				213.7,39.9 218.3,37.7 218.3,37.1 216,34.8 212.9,35.8 209.1,35.8 208.3,36.9 206.1,36.8 206.1,38.8 			"/>
			<polygon fill="#2F455A" stroke="#122333" stroke-width="0.25" stroke-linecap="round" stroke-linejoin="round" points="
				254.1,87.9 254.2,85.7 251.7,85.7 251.7,87.2 			"/>
			<polygon fill="#2F455A" stroke="#122333" stroke-width="0.25" stroke-linecap="round" stroke-linejoin="round" points="
				162.1,19.3 162.1,21.6 173.3,21.7 176.2,26.7 176.2,31.2 170.8,34.3 171,40.4 174.4,43.8 178.4,43.8 184.5,37.4 193.2,34.8 
				196.5,32.3 203,31.9 207.6,30.6 216.3,16.8 221.6,15.7 223.5,13.8 208.1,12.3 194.8,13.8 178.7,13.8 169.5,17 			"/>
			<polygon fill="#2F455A" stroke="#122333" stroke-width="0.25" stroke-linecap="round" stroke-linejoin="round" points="
				423.7,106.3 422.4,105 420.2,108 422.4,110 			"/>
			<polygon fill="#2F455A" stroke="#122333" stroke-width="0.25" stroke-linecap="round" stroke-linejoin="round" points="403,68.4 
				403.5,66 398.9,65.3 397.2,62.5 388.6,62.5 371.1,58.1 369.1,62.5 362,60.3 356.7,64.3 374,74.5 394.1,74.7 396.5,69.8 			"/>
			<polygon fill="#2F455A" stroke="#122333" stroke-width="0.25" stroke-linecap="round" stroke-linejoin="round" points="
				406.8,114.4 404.3,115 404.3,116.5 405.3,117.8 406.8,115.8 			"/>
			<polygon fill="#2F455A" stroke="#122333" stroke-width="0.25" stroke-linecap="round" stroke-linejoin="round" points="
				397.2,62.5 398.9,65.3 403.5,66 403,68.4 396.5,69.8 394.1,74.7 374,74.5 356.7,64.3 349.2,70.1 350.4,75.9 342.9,78.7 345,83.9 
				353,87.6 353.4,94 374.3,101.3 378.2,97.7 386.4,101.3 385.3,104.3 389.6,111.6 397.2,107.7 402.2,112 404.3,110.8 404.4,112.8 
				416.9,108.4 421,99.2 413.7,87.3 417.4,83.2 413.1,83.2 411.7,84.1 409,79.6 412.5,76.6 414.8,81.1 418.1,78.9 424.5,74.5 
				424.5,66 414,63.3 406.2,55.7 398.7,55.7 400.4,61.8 			"/>
			<path fill="#2F455A" stroke="#122333" stroke-width="0.25" stroke-linecap="round" stroke-linejoin="round" d="M482.6,220l-1,3.2
				l7.3-5.2l-2.1-2.8V212l-1.2,0.5v4.5L482.6,220z M463.4,230.5l15.2-7.7v2l-11.7,7.7L463.4,230.5z M401.1,191l12.8-6l9.5-10.5
				l5.2,2.3l2.3-4.8l8.7-0.2l-2.2,4l7.2,6.2l4.8-4.8v-6.7l2.2,0.7l2.5,12l7.8,11l-0.8,8.3l-14.2,14.7l-12.3-0.7l-1.5-8.3l-4.2,1.8
				l-4-3.5l-24.3,5.3l-1.5-1.8l2-4.8V191z"/>
			<polygon fill="#2F455A" stroke="#122333" stroke-width="0.25" stroke-linecap="round" stroke-linejoin="round" points="
				440.6,75.2 443.6,75.2 444.8,73 438.3,70.3 438.4,75.7 439.7,76.5 			"/>
			<polygon fill="#2F455A" stroke="#122333" stroke-width="0.25" stroke-linecap="round" stroke-linejoin="round" points="
				432.5,87.7 432,89.3 438.5,88.4 439,90.9 440.5,90.3 440.6,88.3 445,87.2 444.7,81.5 442.8,78.1 440.8,77.5 441.9,82.7 
				437.9,86.3 			"/>
			<polygon fill="#2F455A" stroke="#122333" stroke-width="0.25" stroke-linecap="round" stroke-linejoin="round" points="
				431.4,90.9 433.7,90.6 434.5,91.7 433.6,94.4 			"/>
			<polygon fill="#2F455A" stroke="#122333" stroke-width="0.25" stroke-linecap="round" stroke-linejoin="round" points="
				437.6,89.8 436.5,91.8 435,90.2 			"/>
			<polygon fill="#2F455A" stroke="#122333" stroke-width="0.25" stroke-linecap="round" stroke-linejoin="round" points="
				430.5,124.8 427,124.5 425.7,122.9 427,119.9 425.7,117.1 423.3,117 422.8,122 426.1,126 430,126.5 			"/>
			<polygon fill="#2F455A" stroke="#122333" stroke-width="0.25" stroke-linecap="round" stroke-linejoin="round" points="
				419.3,133.7 420.9,134 423.7,131.7 423.6,129.8 			"/>
			<polygon fill="#2F455A" stroke="#122333" stroke-width="0.25" stroke-linecap="round" stroke-linejoin="round" points="
				431.6,137.3 431.6,139.5 433.9,138.8 433.1,137.4 435,136.9 433.4,131.9 432.2,135 428.4,135 			"/>
			<polygon fill="#2F455A" stroke="#122333" stroke-width="0.25" stroke-linecap="round" stroke-linejoin="round" points="
				424.7,126.2 426.4,127.8 425.8,128.8 424.5,127.5 			"/>
			<polygon fill="#2F455A" stroke="#122333" stroke-width="0.25" stroke-linecap="round" stroke-linejoin="round" points="
				426.4,130.2 427.6,131 428.8,129 427.1,128.8 			"/>
			<polygon fill="#2F455A" stroke="#122333" stroke-width="0.25" stroke-linecap="round" stroke-linejoin="round" points="
				430.8,128.1 432.4,130.2 434.2,130.2 432.5,127.5 			"/>
			<polygon fill="#2F455A" stroke="#122333" stroke-width="0.25" stroke-linecap="round" stroke-linejoin="round" points="
				430.8,129.9 431.7,131.5 431,132.4 429.7,130.5 			"/>
			<polygon fill="#2F455A" stroke="#122333" stroke-width="0.25" stroke-linecap="round" stroke-linejoin="round" points="
				428.8,131.5 429.7,132.7 428.8,133.7 427.9,132.6 			"/>
			<polygon fill="#2F455A" stroke="#122333" stroke-width="0.25" stroke-linecap="round" stroke-linejoin="round" points="
				432,164.2 433.1,165.7 436.1,165.4 436.1,164.2 			"/>
			<polygon fill="#2F455A" stroke="#122333" stroke-width="0.25" stroke-linecap="round" stroke-linejoin="round" points="
				407.4,146.6 407.6,150.9 410,155.2 417.8,155.2 421.7,150.3 421.7,141.3 418.9,141.6 416.7,145.9 409.1,147.6 407.5,146.6 			"/>
			<polygon fill="#2F455A" stroke="#122333" stroke-width="0.25" stroke-linecap="round" stroke-linejoin="round" points="
				401.8,157.9 401.8,154.6 389,141.2 384.5,139.5 399.5,159.9 			"/>
			<polygon fill="#2F455A" stroke="#122333" stroke-width="0.25" stroke-linecap="round" stroke-linejoin="round" points="
				416.9,163.8 417.1,164.9 401,162.2 403.5,160.2 407.5,161.7 411.1,160.9 			"/>
			<polygon fill="#2F455A" stroke="#122333" stroke-width="0.25" stroke-linecap="round" stroke-linejoin="round" points="
				427.2,163.8 424.7,163.8 425.2,165.4 427.6,165.4 428.6,164.6 			"/>
			<polygon fill="#2F455A" stroke="#122333" stroke-width="0.25" stroke-linecap="round" stroke-linejoin="round" points="
				422.9,166.4 423.6,167.3 425.3,167.3 424.7,166 			"/>
			<polygon fill="#2F455A" stroke="#122333" stroke-width="0.25" stroke-linecap="round" stroke-linejoin="round" points="
				432,164.2 429.5,167 431.4,167.3 433.1,165.7 			"/>
			<polygon fill="#2F455A" stroke="#122333" stroke-width="0.25" stroke-linecap="round" stroke-linejoin="round" points="
				423.7,159.3 425.6,158.8 425,155.5 426.1,154.3 427,156.7 429.2,157.5 429.2,155.7 428,153 430.3,151 426.6,151.1 425.8,150.1 
				427.3,148.4 430.1,149.4 431.4,149.3 433.5,146.8 431.7,146.8 430.5,147.6 426.6,146.6 424.1,148.9 424.3,152.6 422.8,154.6 			
				"/>
			<polygon fill="#2F455A" stroke="#122333" stroke-width="0.25" stroke-linecap="round" stroke-linejoin="round" points="
				437.6,154.1 437.2,155.6 441.4,155.2 441.4,154.1 			"/>
			<polygon fill="#2F455A" stroke="#122333" stroke-width="0.25" stroke-linecap="round" stroke-linejoin="round" points="
				438.6,144.4 437.2,145.8 436.6,149.2 438.6,149.7 438.1,146.6 439.3,145.2 			"/>
			<polygon fill="#2F455A" stroke="#122333" stroke-width="0.25" stroke-linecap="round" stroke-linejoin="round" points="
				448.1,153.5 447.5,150.6 442.9,151.2 			"/>
			<polygon fill="#2F455A" stroke="#122333" stroke-width="0.25" stroke-linecap="round" stroke-linejoin="round" points="
				447.7,156 454.1,158.7 455.3,162 453.2,163.3 458.6,165.2 458.6,154.4 454.2,152 450,155.4 445.7,153.7 445.2,156.1 			"/>
			<polygon fill="#2F455A" stroke="#122333" stroke-width="0.25" stroke-linecap="round" stroke-linejoin="round" points="
				428.7,84.8 424.4,81.3 422.5,83.1 425,88.7 428.2,88.4 			"/>
			<polygon fill="#2F455A" stroke="#122333" stroke-width="0.25" stroke-linecap="round" stroke-linejoin="round" points="
				424.4,81.3 422.5,79.7 424.9,79.4 424.5,74.5 418.1,78.9 420,82.4 422.5,83.1 			"/>
			<polygon fill="#2F455A" stroke="#122333" stroke-width="0.25" stroke-linecap="round" stroke-linejoin="round" points="
				418.8,138.3 415.4,142.9 407.5,146.6 409.1,147.6 416.7,145.9 418.9,141.6 421.7,141.3 421.7,138 			"/>
			<polygon fill="#2F455A" stroke="#122333" stroke-width="0.25" stroke-linecap="round" stroke-linejoin="round" points="
				392.5,138.3 393.9,142.8 399.6,147.6 400,145.9 394.7,138 			"/>
			<polygon fill="#2F455A" stroke="#122333" stroke-width="0.25" stroke-linecap="round" stroke-linejoin="round" points="
				460.6,165.9 464.4,162.4 469.4,167.2 473.9,168.1 468.3,162.5 468.6,159.6 458.6,154.4 458.6,165.2 			"/>
			<polygon fill="#2F455A" stroke="#122333" stroke-width="0.25" stroke-linecap="round" stroke-linejoin="round" points="
				471.1,160.1 473.1,161.3 476.6,159.3 476.6,157.3 			"/>
			<polygon fill="#2F455A" stroke="#122333" stroke-width="0.25" stroke-linecap="round" stroke-linejoin="round" points="
				473.9,154.4 477.9,157.3 479.6,156.8 475.5,154.3 			"/>
			<polygon fill="#2F455A" stroke="#122333" stroke-width="0.25" stroke-linecap="round" stroke-linejoin="round" points="
				389.6,111.6 385.3,104.3 386.4,101.3 383.9,100.2 380.5,102.6 378.9,113.6 381.4,115.7 382.4,120.7 384.1,121.3 385.4,119.7 
				387.8,122.3 389.1,127.2 388.8,132.2 390.8,128.2 387.1,115.1 389.6,113.3 			"/>
			<polygon fill="#2F455A" stroke="#122333" stroke-width="0.25" stroke-linecap="round" stroke-linejoin="round" points="
				396.9,117.8 399.8,121.7 397.1,124.5 403.2,124.5 403.2,122.9 397.3,116.6 395.9,112.5 391.8,110.5 389.6,111.6 389.6,113.3 
				391.7,114.5 391.7,117.8 			"/>
			<polygon fill="#2F455A" stroke="#122333" stroke-width="0.25" stroke-linecap="round" stroke-linejoin="round" points="
				391.7,117.8 391.7,114.5 389.6,113.3 387.1,115.1 390.8,128.2 388.8,132.2 388.6,134.2 392.2,137.2 392.5,138.3 394.7,138 
				391.2,132.9 392,125.1 395.9,128.9 395.9,125.7 399.8,121.7 396.9,117.8 			"/>
			<polygon fill="#2F455A" stroke="#122333" stroke-width="0.25" stroke-linecap="round" stroke-linejoin="round" points="
				395.9,125.7 395.9,128.9 397.8,130.8 400,130.5 403.2,128.1 403.2,124.5 397.1,124.5 			"/>
			<polygon fill="#2F455A" stroke="#122333" stroke-width="0.25" stroke-linecap="round" stroke-linejoin="round" points="
				397.3,116.6 403.2,122.9 403.2,128.1 400,130.5 400.1,134 406.2,129.9 406,123.8 399.6,117 399.9,113.3 402.2,112 397.2,107.7 
				391.8,110.5 395.9,112.5 			"/>
			<polygon fill="#2F455A" stroke="#122333" stroke-width="0.25" stroke-linecap="round" stroke-linejoin="round" points="
				371.5,103.4 370.1,104 372.1,110.1 373.3,108.9 378.9,113.6 379.2,111.1 376.3,108.4 375.8,105.1 373.5,106 			"/>
			<polygon fill="#2F455A" stroke="#122333" stroke-width="0.25" stroke-linecap="round" stroke-linejoin="round" points="
				373.5,102.9 370.1,102.1 370.6,100 369.6,99.6 367.5,102.9 356.2,98.6 356.2,95 353.4,94 353,87.6 350.6,86.5 348.3,86.5 
				344.9,88.9 344.8,90.9 346.8,92.1 347.8,96.1 343.4,100.2 340.5,100.2 340.5,103.3 342.6,104.1 342.6,106.7 338.8,107.7 
				339.1,108.1 342.3,109.1 340.8,110.7 342.2,112.5 344.7,112.8 345.2,110.7 346.2,110.7 354.3,134.1 359.5,130.9 360.3,121.5 
				372.1,110.1 370.1,104 371.5,103.4 373.5,106 375.8,105.1 376.3,108.4 379.2,111.1 380.5,102.6 383.9,100.2 378.2,97.7 
				374.3,101.3 			"/>
			<polygon fill="#2F455A" stroke="#122333" stroke-width="0.25" stroke-linecap="round" stroke-linejoin="round" points="356.2,95 
				356.2,98.6 367.5,102.9 369.6,99.6 			"/>
			<polygon fill="#2F455A" stroke="#122333" stroke-width="0.25" stroke-linecap="round" stroke-linejoin="round" points="
				370.6,100 370.1,102.1 373.5,102.9 374.3,101.3 			"/>
			<polygon fill="#2F455A" stroke="#122333" stroke-width="0.25" stroke-linecap="round" stroke-linejoin="round" points="
				306.2,72.8 308.6,74.8 311.7,74 314.4,76.2 313.9,70.3 318.1,69.4 323.6,73.2 328.2,72.3 331.6,76.7 334.9,76.6 338.1,74 
				345.6,73.6 350.4,75.9 349.2,70.1 356.7,64.3 352.3,61.8 327.1,52.9 317.2,55.2 317.2,59.6 299.5,59.6 299.5,65.5 301.9,68.4 
				306.9,66.4 309.9,68.4 306.3,70.2 			"/>
			<polygon fill="#2F455A" stroke="#122333" stroke-width="0.25" stroke-linecap="round" stroke-linejoin="round" points="
				325.5,86.7 323.8,84 317.2,81.9 313.3,83.2 313.2,84.9 308.3,84.9 305.5,80.1 299,80.7 299,82.6 306.9,96.1 309.3,96.4 
				314.8,102.1 324.9,105.1 327.7,105.1 329.7,101.6 327.4,98.8 324.2,89.4 			"/>
			<polygon fill="#2F455A" stroke="#122333" stroke-width="0.25" stroke-linecap="round" stroke-linejoin="round" points="
				314.4,76.2 311.7,74 308.6,74.8 313.5,78.9 313.3,83.2 317.2,81.9 323.8,84 325.5,86.7 331.8,83.5 321.4,75.2 317,75.2 			"/>
			<polygon fill="#2F455A" stroke="#122333" stroke-width="0.25" stroke-linecap="round" stroke-linejoin="round" points="
				340.5,100.2 343.4,100.2 347.8,96.1 346.8,92.1 344.8,90.9 344.9,88.9 348.3,86.4 350.6,86.4 345.8,84.3 340.7,85 339.1,92 
				333.2,97.4 326.9,97.3 327.4,98.8 329.7,101.6 327.7,105.1 336.5,105.1 338.8,107.7 342.6,106.7 342.6,104.1 340.5,103.3 			"/>
			<polygon fill="#2F455A" stroke="#122333" stroke-width="0.25" stroke-linecap="round" stroke-linejoin="round" points="
				323.6,73.2 318.1,69.4 313.9,70.3 314.4,76.2 317,75.2 321.4,75.2 331.8,83.5 335.2,84.4 333.6,79.8 338.4,78.5 338.7,76.4 
				331.6,76.7 328.2,72.3 			"/>
			<polygon fill="#2F455A" stroke="#122333" stroke-width="0.25" stroke-linecap="round" stroke-linejoin="round" points="
				325.5,86.7 324.2,89.4 326.9,97.3 333.2,97.4 339.1,92 340.7,85 339.7,82.1 335.2,84.4 331.8,83.5 			"/>
			<polygon fill="#2F455A" stroke="#122333" stroke-width="0.25" stroke-linecap="round" stroke-linejoin="round" points="
				339.2,80.7 335.2,79.4 333.6,79.9 335.2,84.4 339.7,82.1 340.7,85 345.8,84.3 345,83.9 343.6,80.3 			"/>
			<polygon fill="#2F455A" stroke="#122333" stroke-width="0.25" stroke-linecap="round" stroke-linejoin="round" points="338.1,74 
				334.9,76.6 338.7,76.4 338.4,78.5 335.2,79.4 339.2,80.7 343.6,80.3 342.9,78.7 350.4,75.9 345.6,73.6 			"/>
			<polygon fill="#2F455A" stroke="#122333" stroke-width="0.25" stroke-linecap="round" stroke-linejoin="round" points="
				299.5,77.7 302.4,80.4 305.5,80.1 303.3,76.2 301,75.6 			"/>
			<polygon fill="#2F455A" stroke="#122333" stroke-width="0.25" stroke-linecap="round" stroke-linejoin="round" points="
				293.3,76.7 297.6,77.7 299.5,77.7 301,75.6 295.5,73.2 293.3,73.6 			"/>
			<polygon fill="#2F455A" stroke="#122333" stroke-width="0.25" stroke-linecap="round" stroke-linejoin="round" points="299,80.7 
				302.4,80.4 299.5,77.7 297.6,77.7 			"/>
			<polygon fill="#2F455A" stroke="#122333" stroke-width="0.25" stroke-linecap="round" stroke-linejoin="round" points="266.4,48 
				265.3,48.2 265.6,48.4 265.3,49.9 262.1,48.4 262.1,50.3 266.4,51.4 269.5,52.9 270.7,51.8 270.3,48.8 268.7,49.2 			"/>
			<polygon fill="#2F455A" stroke="#122333" stroke-width="0.25" stroke-linecap="round" stroke-linejoin="round" points="
				262.1,52.5 264.5,53.3 265.2,54.6 265.7,56.1 269.5,52.9 266.4,51.4 262.1,50.3 			"/>
			<polygon fill="#2F455A" stroke="#122333" stroke-width="0.25" stroke-linecap="round" stroke-linejoin="round" points="
				274.4,51.8 270.7,51.8 265.7,56.1 266.5,58.3 273.7,59.5 278.2,58.5 275.5,57.4 277.1,56.4 			"/>
			<polygon fill="#2F455A" stroke="#122333" stroke-width="0.25" stroke-linecap="round" stroke-linejoin="round" points="
				264.3,46.2 263.9,47.2 265.3,48.2 266.4,48 268.7,49.2 270.3,48.8 269.8,45.3 268.9,46.1 			"/>
			<polygon fill="#2F455A" stroke="#122333" stroke-width="0.25" stroke-linecap="round" stroke-linejoin="round" points="
				273.7,59.5 266.5,58.3 267,59.6 264.4,62.8 264.4,64.6 274.1,64.6 275.1,66.4 273.4,69 274.9,69.6 275.3,68.4 281,68.4 
				279.8,69.7 281.5,70.8 283.9,70.6 281.7,67.7 287.7,66.4 289.2,62.9 278.2,58.5 			"/>
			<polygon fill="#2F455A" stroke="#122333" stroke-width="0.25" stroke-linecap="round" stroke-linejoin="round" points="260,31.3 
				249.9,38.7 249.9,45.3 248.5,47.5 252.3,51.8 258.5,46.4 255.6,42.8 262.1,35.6 263.4,35.6 261.6,31.3 			"/>
			<polygon fill="#2F455A" stroke="#122333" stroke-width="0.25" stroke-linecap="round" stroke-linejoin="round" points="242.2,48 
				248.1,47 248.5,47.5 249.9,45.3 249.9,38.7 260,31.3 265.6,31.3 265.6,29.5 259.9,29.7 240.2,43.3 			"/>
			<polygon fill="#2F455A" stroke="#122333" stroke-width="0.25" stroke-linecap="round" stroke-linejoin="round" points="
				265.6,31.3 261.6,31.3 263.4,35.6 264.5,35.6 261.3,42.7 265,44.6 270.6,44.6 273.7,41 268.5,29.3 265.6,29.4 			"/>
			<polygon fill="#2F455A" stroke="#122333" stroke-width="0.25" stroke-linecap="round" stroke-linejoin="round" points="435,63.7 
				436.9,63.7 430.1,56.7 428.2,56.7 433.6,63.4 436.3,68.4 438.3,68.4 			"/>
			<polygon fill="#2F455A" stroke="#122333" stroke-width="0.25" stroke-linecap="round" stroke-linejoin="round" points="
				264.5,53.3 262.1,52.5 262.1,54.1 265.1,54.7 			"/>
			<polygon fill="#2F455A" stroke="#122333" stroke-width="0.25" stroke-linecap="round" stroke-linejoin="round" points="
				408.6,29.2 406.7,26.6 395.3,24.8 392.1,27.7 382.8,27.7 379,24.8 358,24.8 356.7,20.2 337.4,20.2 320.4,27.8 324.1,32.4 
				320.9,35.7 318,26.2 312.8,25.8 315.3,31.4 295.4,32 276.8,39.6 274.4,34.9 281.5,35.2 284.9,33.5 271.4,29.2 268.5,29.3 
				273.7,41 270.6,44.6 269.8,45.3 270.3,48.8 270.7,51.8 274.3,51.8 277.1,56.4 275.5,57.4 278.2,58.5 289.2,62.9 287.6,66.4 
				288.4,68.1 286.6,68.6 286.9,71.4 293.3,73.7 295.5,73.2 301,75.6 303.3,76.2 301.9,73.7 301.9,68.4 299.5,65.5 299.5,59.7 
				317.1,59.7 317.1,55.2 327.1,52.9 352.3,61.8 356.7,64.4 362,60.3 369.1,62.5 371.1,58.1 388.6,62.5 397.2,62.5 400.4,61.8 
				398.7,55.8 406.2,55.8 414,63.3 424.5,66 424.5,74.5 429.1,73.7 431.6,70 431.6,63.1 424.5,55.1 417.6,55 418.8,46.5 433,46.6 
				434.5,41.8 440.5,44 440.5,41.8 442,42 444.6,44.4 442.1,46.1 441.8,51.2 451.9,60.7 451.9,51.5 446.2,46 459.6,41.8 459.8,40.4 
				453,38.5 455.7,36.5 461.7,37.7 465.8,37.8 462.5,34.3 441.4,30.1 			"/>
			<polygon fill="#2F455A" stroke="#122333" stroke-width="0.25" stroke-linecap="round" stroke-linejoin="round" points="
				257.5,65.1 255,67.1 258.6,68.5 262.5,67.8 265.5,64.6 264.3,64.6 264.3,63.8 			"/>
			<polygon fill="#2F455A" stroke="#122333" stroke-width="0.25" stroke-linecap="round" stroke-linejoin="round" points="
				255.6,63.3 257.5,65.1 264.3,63.8 264.3,62.8 258.1,62 257.9,61.9 			"/>
			<polygon fill="#2F455A" stroke="#122333" stroke-width="0.25" stroke-linecap="round" stroke-linejoin="round" points="
				242.6,68.3 244.8,68.5 246.8,68 246.1,65.8 244.2,65.8 243,66.4 			"/>
			<polygon fill="#2F455A" stroke="#122333" stroke-width="0.25" stroke-linecap="round" stroke-linejoin="round" points="
				251.1,63.3 255.6,63.3 257.9,61.9 253.5,60.2 249.6,61.4 			"/>
			<polygon fill="#2F455A" stroke="#122333" stroke-width="0.25" stroke-linecap="round" stroke-linejoin="round" points="
				220.4,84.3 221.3,84.4 222.4,75.6 219,75.1 218.8,81.5 			"/>
			<polygon fill="#2F455A" stroke="#122333" stroke-width="0.25" stroke-linecap="round" stroke-linejoin="round" points="273.3,69 
				275,66.4 274.1,64.6 271.2,64.6 			"/>
			<polygon fill="#2F455A" stroke="#122333" stroke-width="0.25" stroke-linecap="round" stroke-linejoin="round" points="
				265.1,54.6 262.1,54.1 258.9,54.2 258.1,53.5 253.5,54.6 253.1,54.6 253.5,60.2 257.9,61.9 258.1,62 264.3,62.8 266.9,59.6 
				266.5,58.3 265.7,56.1 			"/>
			<polygon fill="#2F455A" stroke="#122333" stroke-width="0.25" stroke-linecap="round" stroke-linejoin="round" points="
				265.5,64.6 262.5,67.8 265.2,72.4 272.1,71.6 274,72.1 274.8,69.6 273.3,69 271.2,64.6 			"/>
			<polygon fill="#2F455A" stroke="#122333" stroke-width="0.25" stroke-linecap="round" stroke-linejoin="round" points="
				253.1,54.6 247.2,54.6 246.9,53.5 244.8,53.5 245.2,54.5 242.1,56.4 241.8,61.8 243.7,62.8 243,66.4 244.2,65.8 248.6,65.8 
				249,65.7 252.2,64.8 251.1,63.3 249.6,61.4 253.5,60.2 			"/>
			<polygon fill="#2F455A" stroke="#122333" stroke-width="0.25" stroke-linecap="round" stroke-linejoin="round" points="
				244.8,53.5 246.9,53.5 246.8,53.1 247.5,49.3 245.6,49.2 244.3,52.2 			"/>
			<polygon fill="#2F455A" stroke="#122333" stroke-width="0.25" stroke-linecap="round" stroke-linejoin="round" points="
				250.4,52.2 249.2,51 248.1,51.4 247.8,53.1 249.8,53.1 			"/>
			<polygon fill="#2F455A" stroke="#122333" stroke-width="0.25" stroke-linecap="round" stroke-linejoin="round" points="
				252.2,64.8 248.6,65.8 246.1,65.8 246.8,68 250.6,67.1 255,67.1 256.8,65.6 257.5,65.1 255.6,63.3 251.1,63.3 			"/>
			<polygon fill="#2F455A" stroke="#122333" stroke-width="0.25" stroke-linecap="round" stroke-linejoin="round" points="
				254.3,82.2 250.5,82.2 250.5,83.1 251.9,84.1 254.3,84.5 			"/>
			<polygon fill="#2F455A" stroke="#122333" stroke-width="0.25" stroke-linecap="round" stroke-linejoin="round" points="
				244.2,76.7 244.2,80.7 246,80.7 246,77.3 			"/>
			<polygon fill="#2F455A" stroke="#122333" stroke-width="0.25" stroke-linecap="round" stroke-linejoin="round" points="
				242.6,68.3 242.2,70 244.5,71 247.1,71 255.1,79 255.5,82.4 256.9,81.6 257.4,79.1 259.2,78.8 249.5,70.3 252.2,70.1 250.6,67.1 
				244.8,68.5 			"/>
			<polygon fill="#2F455A" stroke="#122333" stroke-width="0.25" stroke-linecap="round" stroke-linejoin="round" points="245.1,74 
				245.1,75.6 246,76 246.5,74 			"/>
			<polygon fill="#2F455A" stroke="#122333" stroke-width="0.25" stroke-linecap="round" stroke-linejoin="round" points="226.7,64 
				226.7,65.1 230,66.9 230.4,72.8 235.3,76 236.9,74 244.1,74 244.3,71 244.5,71 242.2,70 243.7,62.8 237.2,59.4 229.5,64 			"/>
			<polygon fill="#2F455A" stroke="#122333" stroke-width="0.25" stroke-linecap="round" stroke-linejoin="round" points="239,58.3 
				237.2,59.4 240.8,61.3 241.9,60.7 241.9,59.8 			"/>
			<polygon fill="#2F455A" stroke="#122333" stroke-width="0.25" stroke-linecap="round" stroke-linejoin="round" points="
				241.9,59.8 242.1,56.4 239,58.3 			"/>
			<polygon fill="#2F455A" stroke="#122333" stroke-width="0.25" stroke-linecap="round" stroke-linejoin="round" points="
				240.8,61.3 241.8,61.8 241.9,60.7 			"/>
			<polygon fill="#2F455A" stroke="#122333" stroke-width="0.25" stroke-linecap="round" stroke-linejoin="round" points="
				228.8,52.9 228.9,55.4 227.2,56.3 228.7,58.5 225.6,61.3 229.6,60.6 233.7,60 233.9,58.5 234.8,58.5 235,56.8 232.3,56.2 
				229,48.7 226.5,48.6 226.5,52.7 			"/>
			<polygon fill="#2F455A" stroke="#122333" stroke-width="0.25" stroke-linecap="round" stroke-linejoin="round" points="
				225.6,54.7 225.6,53.1 222.7,52.9 224.4,55.1 			"/>
			<polygon fill="#2F455A" stroke="#122333" stroke-width="0.25" stroke-linecap="round" stroke-linejoin="round" points="
				219.7,55.1 219.7,59.5 221.4,59.4 221.4,57.9 224.6,58.4 224.4,55.1 222.7,52.9 			"/>
			<polygon fill="#2F455A" stroke="#122333" stroke-width="0.25" stroke-linecap="round" stroke-linejoin="round" points="
				221.3,84.4 228.4,84.9 235.3,76 230.4,72.8 219,72.9 219,75.1 222.4,75.6 			"/>
			<polygon fill="#2F455A" stroke="#122333" stroke-width="0.25" stroke-linecap="round" stroke-linejoin="round" points="237,80.6 
				237,78.7 234.8,80.6 			"/>
			<polygon fill="#2F455A" stroke="#122333" stroke-width="0.25" stroke-linecap="round" stroke-linejoin="round" points="
				262.7,78.4 267.2,77 266.2,74.6 262.5,75.3 			"/>
			<polygon fill="#2F455A" stroke="#122333" stroke-width="0.25" stroke-linecap="round" stroke-linejoin="round" points="
				259.9,68.3 260.7,72.8 262.5,75.3 266.2,74.6 265.2,72.4 262.5,67.8 			"/>
			<polygon fill="#2F455A" stroke="#122333" stroke-width="0.25" stroke-linecap="round" stroke-linejoin="round" points="
				252.2,70.1 252.6,70.1 254.7,69 255.7,67.4 255,67.1 250.6,67.1 			"/>
			<polygon fill="#2F455A" stroke="#122333" stroke-width="0.25" stroke-linecap="round" stroke-linejoin="round" points="274.6,79 
				271.2,79 274,84.5 286.6,85.2 298.9,82.6 298.9,80.7 297.5,77.7 293.3,76.7 276,77.2 			"/>
			<polygon fill="#2F455A" stroke="#122333" stroke-width="0.25" stroke-linecap="round" stroke-linejoin="round" points="
				271.2,77.7 274.3,77.7 273,75.1 271.2,75.7 			"/>
			<polygon fill="#2F455A" stroke="#122333" stroke-width="0.25" stroke-linecap="round" stroke-linejoin="round" points="
				257.5,74.2 258.6,74.4 260.7,72.8 260.1,69.5 255.6,70.1 			"/>
			<polygon fill="#2F455A" stroke="#122333" stroke-width="0.25" stroke-linecap="round" stroke-linejoin="round" points="
				261.1,78.9 262.5,80.6 265.2,81.4 263.5,82.1 265.8,84.8 267.1,82.6 265.6,79.3 268.7,77.7 271.2,77.7 271.2,75.7 			"/>
			<polygon fill="#2F455A" stroke="#122333" stroke-width="0.25" stroke-linecap="round" stroke-linejoin="round" points="
				258.6,68.5 255.7,67.4 254.7,69 252.6,70.1 253.4,70.1 256.8,74 257.5,74.2 255.6,70.1 260.1,69.5 259.9,68.3 			"/>
			<polygon fill="#2F455A" stroke="#122333" stroke-width="0.25" stroke-linecap="round" stroke-linejoin="round" points="
				259.9,74.8 261.5,73.9 260.7,72.8 258.6,74.4 260.8,78.7 261.1,79 262.7,78.4 262.5,75.3 261.5,73.9 			"/>
			<polygon fill="#2F455A" stroke="#122333" stroke-width="0.25" stroke-linecap="round" stroke-linejoin="round" points="267.2,77 
				273,75.1 274,72.1 272.1,71.6 265.2,72.4 			"/>
			<polygon fill="#2F455A" stroke="#122333" stroke-width="0.25" stroke-linecap="round" stroke-linejoin="round" points="
				310.9,105.1 312.3,106 313.2,105.1 311.6,102.9 			"/>
			<polygon fill="#2F455A" stroke="#122333" stroke-width="0.25" stroke-linecap="round" stroke-linejoin="round" points="
				283.8,86.6 280.2,87.9 282.8,88.6 			"/>
			<polygon fill="#2F455A" stroke="#122333" stroke-width="0.25" stroke-linecap="round" stroke-linejoin="round" points="
				286.1,91.2 286.1,97.6 287.4,97.8 289.5,96.8 290.1,93.2 291.6,92.6 291.7,92.5 291.3,90.6 288,92.5 			"/>
			<polygon fill="#2F455A" stroke="#122333" stroke-width="0.25" stroke-linecap="round" stroke-linejoin="round" points="
				310.5,104.8 306.9,99 305.4,99 304.3,97.6 301.2,97.6 291.6,92.6 290.1,93.2 289.5,96.8 287.4,97.8 286.1,97.6 298.6,119.4 
				298.9,120.2 300.2,117.9 304.6,118.5 304.2,120.2 310.5,116.9 319.3,114.5 319.3,109.9 314.7,109.3 313.3,106.7 			"/>
			<polygon fill="#2F455A" stroke="#122333" stroke-width="0.25" stroke-linecap="round" stroke-linejoin="round" points="
				302.9,97.6 304.3,97.6 305.4,99 306.9,99 305,96 303.3,96 			"/>
			<polygon fill="#2F455A" stroke="#122333" stroke-width="0.25" stroke-linecap="round" stroke-linejoin="round" points="293.9,89 
				291.3,90.6 291.7,92.6 301.2,97.6 302.9,97.6 303.3,96 306.8,95.9 298.9,82.7 295.3,83.4 			"/>
			<polygon fill="#2F455A" stroke="#122333" stroke-width="0.25" stroke-linecap="round" stroke-linejoin="round" points="
				316.7,107.4 313.3,106.7 314.7,109.3 317.3,109.6 321,105.9 319.3,104.4 			"/>
			<polygon fill="#2F455A" stroke="#122333" stroke-width="0.25" stroke-linecap="round" stroke-linejoin="round" points="
				317.3,109.6 319.3,109.9 319.3,114.5 314.9,115.7 314.9,118.4 317.4,120.1 325.6,109.9 321,105.9 			"/>
			<polygon fill="#2F455A" stroke="#122333" stroke-width="0.25" stroke-linecap="round" stroke-linejoin="round" points="
				287.6,88.5 286.1,91.2 288,92.5 293.9,89 295.3,83.4 286.6,85.2 286,87.9 			"/>
			<polygon fill="#2F455A" stroke="#122333" stroke-width="0.25" stroke-linecap="round" stroke-linejoin="round" points="
				310.5,116.9 304.2,120.2 304.6,118.5 300.2,117.9 298.9,120.2 301.1,127.4 317.4,120.1 314.9,118.4 314.9,115.7 			"/>
			<polygon fill="#2F455A" stroke="#122333" stroke-width="0.25" stroke-linecap="round" stroke-linejoin="round" points="
				286.1,91.2 287.6,88.5 286,87.9 285.4,90.7 			"/>
			<polygon fill="#2F455A" stroke="#122333" stroke-width="0.25" stroke-linecap="round" stroke-linejoin="round" points="
				286.1,97.7 286.1,97.6 286.1,91.2 285.4,90.7 284.3,94.8 			"/>
			<polygon fill="#2F455A" stroke="#122333" stroke-width="0.25" stroke-linecap="round" stroke-linejoin="round" points="
				299.4,189.9 301.1,193.9 305.2,194.1 312.1,171.8 309.7,171.8 301.6,180.2 300.8,186 			"/>
			<polygon fill="#2F455A" stroke="#122333" stroke-width="0.25" stroke-linecap="round" stroke-linejoin="round" points="
				254.7,135.3 253.5,131.8 255.9,131.8 253,125.6 253,129 248.8,137.7 245.1,137.9 244.6,141.4 246.2,141.4 246.1,145.1 
				256.2,145.1 256.6,143.8 256.6,143.8 253.6,139.5 			"/>
			<polygon fill="#2F455A" stroke="#122333" stroke-width="0.25" stroke-linecap="round" stroke-linejoin="round" points="
				248.9,147.7 246.1,147.7 246,152.1 249.6,156.9 249.6,152.8 254.3,152.8 251.9,145.1 248.9,145.1 248.9,145.1 246.1,145.1 
				246.1,147.7 			"/>
			<polygon fill="#2F455A" stroke="#122333" stroke-width="0.25" stroke-linecap="round" stroke-linejoin="round" points="
				239.4,138.6 240.1,141.4 244.6,141.4 245.1,137.9 248.8,137.7 253,129 253,125.6 237.3,125.6 234.8,137.9 			"/>
			<polygon fill="#2F455A" stroke="#122333" stroke-width="0.25" stroke-linecap="round" stroke-linejoin="round" points="
				216.4,136.2 217.5,137.5 217.5,142.9 226,140.4 226,132.5 217.7,130.9 217.7,135 			"/>
			<polygon fill="#2F455A" stroke="#122333" stroke-width="0.25" stroke-linecap="round" stroke-linejoin="round" points="
				217.5,142.9 217.5,137.5 214.4,134 211.7,136.6 			"/>
			<polygon fill="#2F455A" stroke="#122333" stroke-width="0.25" stroke-linecap="round" stroke-linejoin="round" points="
				268.8,167.9 265.9,166.5 265.9,161.1 262.5,161.1 261.9,163.5 258.6,163.6 257.7,160.6 252.4,160.7 252.4,172.4 249.4,177.3 
				249.7,180.6 268.2,180.6 265.2,176.8 265.2,172.6 268.9,172.6 			"/>
			<polygon fill="#2F455A" stroke="#122333" stroke-width="0.25" stroke-linecap="round" stroke-linejoin="round" points="
				231.8,138.8 230.4,130.3 226,130.3 226,140.4 			"/>
			<polygon fill="#2F455A" stroke="#122333" stroke-width="0.25" stroke-linecap="round" stroke-linejoin="round" points="
				251.9,145.1 254.3,152.8 249.6,152.8 249.6,156.9 251.4,159.3 255.9,157.3 260.5,149.6 261.3,143.8 256.6,143.8 256.2,145.1 			
				"/>
			<polygon fill="#2F455A" stroke="#122333" stroke-width="0.25" stroke-linecap="round" stroke-linejoin="round" points="
				295.3,123.8 298,128.1 299.1,127.3 292.1,115.3 288.5,123.8 			"/>
			<polygon fill="#2F455A" stroke="#122333" stroke-width="0.25" stroke-linecap="round" stroke-linejoin="round" points="
				211.7,136.6 214.4,134 211.6,130.9 208.9,133.6 			"/>
			<polygon fill="#2F455A" stroke="#122333" stroke-width="0.25" stroke-linecap="round" stroke-linejoin="round" points="
				298.8,131 300.5,129.7 299.1,127.3 297,129 			"/>
			<polygon fill="#2F455A" stroke="#122333" stroke-width="0.25" stroke-linecap="round" stroke-linejoin="round" points="
				285.8,170 285.8,172.6 288.1,174.1 288.1,177.3 285.9,179.2 285.9,175.5 283.8,173.7 283.7,173.7 279.7,176.6 283.7,179.2 
				283.7,182.9 281.2,188.9 281.2,195.5 283,195.4 283.1,194.5 287,191.9 286.7,183.9 295.6,176.5 294.7,168.2 			"/>
			<polygon fill="#2F455A" stroke="#122333" stroke-width="0.25" stroke-linecap="round" stroke-linejoin="round" points="
				300.5,129.7 298.8,131 300.5,133 307.6,135.5 296.6,144.7 296.6,152.7 313.9,132.5 313.2,129 301.1,130.8 			"/>
			<polygon fill="#2F455A" stroke="#122333" stroke-width="0.25" stroke-linecap="round" stroke-linejoin="round" points="
				256.3,199.2 263,199.2 263,182.2 271.8,182.2 270.7,180.6 249.7,180.6 			"/>
			<polygon fill="#2F455A" stroke="#122333" stroke-width="0.25" stroke-linecap="round" stroke-linejoin="round" points="
				289.3,140.9 286.2,141.3 287.1,145.1 286.7,148.2 285.3,150.6 293.6,156.1 296.6,152.7 296.6,144.7 299.8,142 290.3,142 			"/>
			<polygon fill="#2F455A" stroke="#122333" stroke-width="0.25" stroke-linecap="round" stroke-linejoin="round" points="
				285.3,150.6 284.8,151.6 281.8,151.6 282.6,150.2 281.2,150.2 278.2,157.8 283.7,165.6 285.8,165.6 285.8,170 294.7,168.2 
				293.6,156.1 			"/>
			<polygon fill="#2F455A" stroke="#122333" stroke-width="0.25" stroke-linecap="round" stroke-linejoin="round" points="
				217.2,103.1 212.3,103.1 212.3,108.8 210.5,111.6 204.4,111.6 204.1,117.9 211.6,123.3 211.6,121.4 220.7,121.4 219.8,106 
				224.5,106 217.2,100.6 			"/>
			<polygon fill="#2F455A" stroke="#122333" stroke-width="0.25" stroke-linecap="round" stroke-linejoin="round" points="
				280,153.3 281.2,150.2 278.6,150.2 277.7,153.8 			"/>
			<polygon fill="#2F455A" stroke="#122333" stroke-width="0.25" stroke-linecap="round" stroke-linejoin="round" points="
				278.2,157.8 280,153.3 277.7,153.8 277.1,156.4 			"/>
			<polygon fill="#2F455A" stroke="#122333" stroke-width="0.25" stroke-linecap="round" stroke-linejoin="round" points="
				206,130.5 208.9,133.6 211.6,130.9 214.4,134 216.4,136.2 217.7,135 217.7,130.9 217.1,128 208.5,128 			"/>
			<polygon fill="#2F455A" stroke="#122333" stroke-width="0.25" stroke-linecap="round" stroke-linejoin="round" points="
				220.7,121.4 211.6,121.4 211.6,123.3 213.7,128 217.1,128 217.7,130.9 221.9,131.7 221.9,127.6 237.8,121.1 237.8,115.8 
				224.5,106 219.8,106 			"/>
			<polygon fill="#2F455A" stroke="#122333" stroke-width="0.25" stroke-linecap="round" stroke-linejoin="round" points="
				276.2,169.1 279.4,170.4 278.3,172.6 268.8,167.9 268.9,172.6 265.2,172.6 265.2,176.8 268.2,180.6 273.9,180.6 283.7,173.7 
				283.7,165.6 282.5,163.9 277.1,164.7 			"/>
			<polygon fill="#2F455A" stroke="#122333" stroke-width="0.25" stroke-linecap="round" stroke-linejoin="round" points="
				263,193.1 265.6,196.2 276.6,188.9 271.8,182.2 263,182.2 			"/>
			<polygon fill="#2F455A" stroke="#122333" stroke-width="0.25" stroke-linecap="round" stroke-linejoin="round" points="
				221.9,131.7 226,132.5 226,130.3 230.4,130.3 235.5,128.4 230.7,124 221.9,127.6 			"/>
			<polygon fill="#2F455A" stroke="#122333" stroke-width="0.25" stroke-linecap="round" stroke-linejoin="round" points="
				283.7,165.6 283.7,173.7 283.8,173.7 285.9,175.5 285.9,179.2 288.1,177.3 288.1,174.1 285.8,172.6 285.8,165.6 			"/>
			<polygon fill="#2F455A" stroke="#122333" stroke-width="0.25" stroke-linecap="round" stroke-linejoin="round" points="
				298,128.1 295.3,123.8 288.5,123.8 283.7,135.1 290.3,142 299.8,142 307.6,135.5 300.5,133 297,129 			"/>
			<polygon fill="#2F455A" stroke="#122333" stroke-width="0.25" stroke-linecap="round" stroke-linejoin="round" points="
				278.6,150.2 282.6,150.2 283.7,148.2 286.7,148.2 287.1,145.1 286.2,141.3 280.5,142.1 			"/>
			<polygon fill="#2F455A" stroke="#122333" stroke-width="0.25" stroke-linecap="round" stroke-linejoin="round" points="
				237.8,115.8 237.8,121.1 230.7,124 235.5,128.4 236.8,128 237.3,125.6 253,125.6 256.5,118.3 255.1,108.8 248.1,108.8 			"/>
			<polygon fill="#2F455A" stroke="#122333" stroke-width="0.25" stroke-linecap="round" stroke-linejoin="round" points="
				204.4,111.6 210.5,111.6 212.3,108.8 212.3,103.1 217.2,103.1 217.2,99.7 211.8,99.7 204.4,109.3 			"/>
			<polygon fill="#2F455A" stroke="#122333" stroke-width="0.25" stroke-linecap="round" stroke-linejoin="round" points="
				203.9,124.1 208.8,125.6 203.9,125.6 203.8,128 213.7,128 211.6,123.3 204.1,117.9 			"/>
			<polygon fill="#2F455A" stroke="#122333" stroke-width="0.25" stroke-linecap="round" stroke-linejoin="round" points="
				208.8,125.6 203.9,124.1 203.9,125.6 			"/>
			<polygon fill="#2F455A" stroke="#122333" stroke-width="0.25" stroke-linecap="round" stroke-linejoin="round" points="
				256.5,118.3 253,125.6 255.9,131.8 253.5,131.8 254.7,135.3 266.4,129.7 266.4,123.7 269,121.2 269.2,115.3 259.1,108.8 
				255.1,108.8 			"/>
			<polygon fill="#2F455A" stroke="#122333" stroke-width="0.25" stroke-linecap="round" stroke-linejoin="round" points="
				256.5,94.7 254.4,92.1 249.8,91 245.6,95.6 248.3,108.8 259.1,108.8 269.2,115.3 270.2,92.9 264.3,92.1 261.9,95.7 			"/>
			<polygon fill="#2F455A" stroke="#122333" stroke-width="0.25" stroke-linecap="round" stroke-linejoin="round" points="
				216.4,99.7 217.2,99.7 217.2,99 229.5,92.3 229.5,87.5 220.4,88.4 211.8,99.7 			"/>
			<polygon fill="#2F455A" stroke="#122333" stroke-width="0.25" stroke-linecap="round" stroke-linejoin="round" points="
				229.5,87.5 229.5,92.3 217.2,99 217.2,100.6 237.8,115.8 248.1,108.8 248.3,108.8 243.3,84.6 237.4,84.5 			"/>
			<polygon fill="#2F455A" stroke="#122333" stroke-width="0.25" stroke-linecap="round" stroke-linejoin="round" points="
				243.3,84.6 245.6,95.6 249.8,91 248.1,90.6 248.4,84.8 			"/>
			<polygon fill="#2F455A" stroke="#122333" stroke-width="0.25" stroke-linecap="round" stroke-linejoin="round" points="
				270.7,180.6 276.6,188.9 281.2,188.9 283.7,182.9 283.7,179.2 279.7,176.6 273.9,180.6 			"/>
			<polygon fill="#2F455A" stroke="#122333" stroke-width="0.25" stroke-linecap="round" stroke-linejoin="round" points="
				273.4,203.2 275.7,203.2 277.1,201.8 277.1,199.9 275.2,199.9 273.4,201.1 			"/>
			<polygon fill="#2F455A" stroke="#122333" stroke-width="0.25" stroke-linecap="round" stroke-linejoin="round" points="
				281.2,194.9 279.4,194.9 279.4,196.5 281.2,197.6 			"/>
			<polygon fill="#2F455A" stroke="#122333" stroke-width="0.25" stroke-linecap="round" stroke-linejoin="round" points="286,97.8 
				286.1,97.7 284.3,94.8 270.2,92.9 269.5,109.9 284.9,109.9 288,108.1 281.6,97.2 285.1,100 			"/>
			<polygon fill="#2F455A" stroke="#122333" stroke-width="0.25" stroke-linecap="round" stroke-linejoin="round" points="
				288,108.1 284.9,109.9 269.5,109.9 269,121.2 266.4,123.7 266.4,129.7 275.6,140.3 280.5,142.1 289.3,140.9 283.7,135.1 
				288.5,123.8 292.1,115.3 			"/>
			<polygon fill="#2F455A" stroke="#122333" stroke-width="0.25" stroke-linecap="round" stroke-linejoin="round" points="
				277.1,156.4 280.5,142.1 275.6,140.3 261.7,140.7 260.5,149.6 255.9,157.3 251.4,159.3 252.4,160.7 257.7,160.6 258.6,163.6 
				261.9,163.5 262.5,161.1 265.9,161.1 265.9,166.5 278.3,172.6 279.4,170.4 276.2,169.1 277.1,164.7 282.5,163.9 			"/>
			<polygon fill="#2F455A" stroke="#122333" stroke-width="0.25" stroke-linecap="round" stroke-linejoin="round" points="
				253.6,139.5 256.6,143.8 261.3,143.8 261.7,140.7 275.6,140.3 266.4,129.7 254.7,135.3 			"/>
			<polygon fill="#2F455A" stroke="#122333" stroke-width="0.25" stroke-linecap="round" stroke-linejoin="round" points="
				236.8,128 232.5,129.6 233.9,138.2 234.8,137.9 			"/>
			<polygon fill="#2F455A" stroke="#122333" stroke-width="0.25" stroke-linecap="round" stroke-linejoin="round" points="
				232.5,129.6 230.4,130.3 231.8,138.8 233.9,138.2 			"/>
			<polygon fill="#2F455A" stroke="#122333" stroke-width="0.25" stroke-linecap="round" stroke-linejoin="round" points="
				206,130.5 208.5,128 203.8,128 203.8,128.1 			"/>
			<polygon fill="#2F455A" stroke="#122333" stroke-width="0.25" stroke-linecap="round" stroke-linejoin="round" points="
				69.7,30.2 66.1,28.7 47,28.8 39.2,31.9 39.2,35.4 30.5,35.3 28.9,37.6 36.2,37.3 26.8,40.8 22.2,47 26.1,47 18.6,51.9 21.4,52.1 
				35.8,45.2 52.4,44.7 57.4,49.7 59.3,47.7 57.7,45.9 55.8,45.9 53.9,43.8 			"/>
			<polygon fill="#2F455A" stroke="#122333" stroke-width="0.25" stroke-linecap="round" stroke-linejoin="round" points="
				57.2,62.2 54.6,60 53.5,61 55.3,63.4 57.2,63.4 			"/>
			<polygon fill="#2F455A" stroke="#122333" stroke-width="0.25" stroke-linecap="round" stroke-linejoin="round" points="158,65.5 
				156.1,62.4 154.3,61.9 154.3,59.7 148.6,65.5 			"/>
			<polygon fill="#2F455A" stroke="#122333" stroke-width="0.25" stroke-linecap="round" stroke-linejoin="round" points="155,29.2 
				143.5,24.5 141.8,24.4 137.8,27.7 139.1,24.4 137.2,24.4 132.5,29.4 143.9,28.8 150.8,35 146.1,34.9 143.8,36.8 138.5,36.8 
				138.5,38.3 143.9,38.3 148.4,42.1 149.6,41.5 148.6,39.1 151.7,40.6 152.7,40.2 152.7,35.5 156.3,36.8 158.4,35.4 157.2,33.2 
				155.1,32.5 			"/>
			<polygon fill="#2F455A" stroke="#122333" stroke-width="0.25" stroke-linecap="round" stroke-linejoin="round" points="
				116.2,71.3 119.5,71.3 121.8,69.7 129.3,69.7 132.5,66.9 135.4,66.9 134.4,70.2 139.5,69.3 136.1,71 136.4,72.3 145.6,69.1 
				141.1,68.9 139.1,67 141.1,63.8 140.1,62.9 133.6,65.8 133.6,64.1 139.8,61.1 149.8,60.7 157.3,56.7 157.3,54.9 151.9,54 
				151.2,45 144.1,47.9 144.1,43.7 140.7,40.7 136,40.7 123.4,59.1 120.3,59.1 120.4,53.1 109.5,47.2 120.4,39.1 126.5,38 
				125.3,36.1 134.8,35 138.6,31 135,30.6 130,33.9 130.6,31.1 128.2,30.9 127.7,27.4 123.6,29.2 124.7,31.4 119.3,34 109.9,32.2 
				104.9,34.6 92.8,29.7 69.7,30.2 53.9,43.8 55.7,45.9 57.6,45.9 59.3,47.7 57.4,49.7 55.4,58.6 58.9,61.7 58.9,63.4 97.7,63.4 
				102.3,65.5 110,63.8 111,67.3 112.5,68.4 115.2,68.2 			"/>
			<polygon fill="#2F455A" stroke="#122333" stroke-width="0.25" stroke-linecap="round" stroke-linejoin="round" points="
				130.1,36.8 127.2,39.2 133,39.8 133.6,38.3 			"/>
			<polygon fill="#2F455A" stroke="#122333" stroke-width="0.25" stroke-linecap="round" stroke-linejoin="round" points="
				118.7,30.7 119.8,32.1 122.5,30.7 121.7,29.4 			"/>
			<polygon fill="#2F455A" stroke="#122333" stroke-width="0.25" stroke-linecap="round" stroke-linejoin="round" points="120.8,26 
				122.5,27.7 126.3,26.5 127.3,23.8 			"/>
			<polygon fill="#2F455A" stroke="#122333" stroke-width="0.25" stroke-linecap="round" stroke-linejoin="round" points="128,24.9 
				128.5,26.6 133.6,25.2 132.6,23.8 			"/>
			<polygon fill="#2F455A" stroke="#122333" stroke-width="0.25" stroke-linecap="round" stroke-linejoin="round" points="
				141.1,21.4 138.3,20.2 135.6,22.6 146.7,23.4 149.6,21.4 			"/>
			<polygon fill="#2F455A" stroke="#122333" stroke-width="0.25" stroke-linecap="round" stroke-linejoin="round" points="
				168.2,15.1 174,11.9 150.9,13.6 150.9,14.8 158.7,14.7 157.6,16.1 149.6,16.3 150.6,18.1 147.2,17.6 148.5,19.3 142.6,19.3 
				143.5,20.2 150,20.2 151,21.1 160.5,16.7 			"/>
			<polygon fill="#2F455A" stroke="#122333" stroke-width="0.25" stroke-linecap="round" stroke-linejoin="round" points="140,16.5 
				144.3,17.3 146.7,15.7 145,14.4 			"/>
			<polygon fill="#2F455A" stroke="#122333" stroke-width="0.25" stroke-linecap="round" stroke-linejoin="round" points="
				94.7,27.7 104.8,24.3 102.4,23.2 92.9,25.7 			"/>
			<polygon fill="#2F455A" stroke="#122333" stroke-width="0.25" stroke-linecap="round" stroke-linejoin="round" points="
				106.1,24.9 100.6,26.8 103.8,28.1 98.8,29.4 105,31.8 109.3,30 114.1,31.1 117.6,30.3 114.1,28.7 116.8,25.2 114.1,25.2 
				112.5,27.3 111.9,25.2 109,26.3 			"/>
			<polygon fill="#2F455A" stroke="#122333" stroke-width="0.25" stroke-linecap="round" stroke-linejoin="round" points="
				98.2,109.8 103.1,109.8 107.1,112.4 105.6,114.1 112.5,114.1 104.3,108.2 99.9,108.2 			"/>
			<polygon fill="#2F455A" stroke="#122333" stroke-width="0.25" stroke-linecap="round" stroke-linejoin="round" points="
				105.1,117.2 106.2,118.1 109.1,118.1 109.1,117 108.1,116 105.1,116 			"/>
			<polygon fill="#2F455A" stroke="#122333" stroke-width="0.25" stroke-linecap="round" stroke-linejoin="round" points="
				123.5,116.4 122.9,117.4 124.5,117.4 125.1,116.4 			"/>
			<polygon fill="#2F455A" stroke="#122333" stroke-width="0.25" stroke-linecap="round" stroke-linejoin="round" points="
				86.7,120.7 83.9,120.7 82.5,123.1 86.5,125.1 89.2,120.2 88.7,117.6 86.3,117.6 			"/>
			<polygon fill="#2F455A" stroke="#122333" stroke-width="0.25" stroke-linecap="round" stroke-linejoin="round" points="
				89.8,124.6 89.3,126.3 90.1,126.7 96.7,121.1 88.7,121.2 87.4,123.5 			"/>
			<polygon fill="#2F455A" stroke="#122333" stroke-width="0.25" stroke-linecap="round" stroke-linejoin="round" points="
				89.3,126.3 89.8,124.6 87.4,123.5 86.5,125.1 			"/>
			<polygon fill="#2F455A" stroke="#122333" stroke-width="0.25" stroke-linecap="round" stroke-linejoin="round" points="
				91.8,115.2 88.7,117.6 89.2,120.2 			"/>
			<polygon fill="#2F455A" stroke="#122333" stroke-width="0.25" stroke-linecap="round" stroke-linejoin="round" points="
				92.6,130.1 96.9,130.5 96.7,121.1 90.1,126.7 			"/>
			<polygon fill="#2F455A" stroke="#122333" stroke-width="0.25" stroke-linecap="round" stroke-linejoin="round" points="
				99.6,156.4 103.2,158.1 109.5,150.3 103,146.7 100,150.5 			"/>
			<polygon fill="#EFB180" stroke="#122333" stroke-width="0.25" stroke-linecap="round" stroke-linejoin="round" points="
				112.7,128.9 110.9,128.9 107.4,133.7 105.5,133.8 106,135.6 105.1,137 105.8,139.4 105.1,144 103,146.7 117.8,155.1 117.8,145.6 
				121.2,145.4 121.2,137.9 115.6,137.3 113.1,134.6 			"/>
			<polygon fill="#EFB180" stroke="#122333" stroke-width="0.25" stroke-linecap="round" stroke-linejoin="round" points="
				107.8,129.3 107.8,127.8 106,129.3 			"/>
			<polygon fill="#2F455A" stroke="#122333" stroke-width="0.25" stroke-linecap="round" stroke-linejoin="round" points="
				136.1,243.7 138.3,245.7 145.1,246 137.8,242.1 			"/>
			<polygon fill="#2F455A" stroke="#122333" stroke-width="0.25" stroke-linecap="round" stroke-linejoin="round" points="
				146.5,194.9 143.6,196.7 139.6,196.7 139.6,193.2 131.5,187.7 131,188.5 124.2,188.5 122.4,205.4 126.2,222.2 129.7,228.3 
				129.8,233 135,240.8 136.9,241 135.9,220.9 146.8,216.2 141.8,209.3 141.8,201.7 146.7,196.8 			"/>
			<polygon fill="#2F455A" stroke="#122333" stroke-width="0.25" stroke-linecap="round" stroke-linejoin="round" points="
				147.7,211.5 150.1,207.4 141.8,201.7 141.8,209.3 			"/>
			<polygon fill="#2F455A" stroke="#122333" stroke-width="0.25" stroke-linecap="round" stroke-linejoin="round" points="
				124.8,131.6 121.1,129 112.7,128.9 113.1,134.6 115.6,137.3 121.2,137.9 121.2,145.4 122.1,145.3 123.3,147.9 126.9,146.7 
				126.6,142.7 131.5,140.9 133,133.8 131.3,132.2 			"/>
			<polygon fill="#2F455A" stroke="#122333" stroke-width="0.25" stroke-linecap="round" stroke-linejoin="round" points="
				92.6,130.1 95.5,134 96.5,134.4 98,132.5 97,131.9 96.9,130.5 			"/>
			<polygon fill="#2F455A" stroke="#122333" stroke-width="0.25" stroke-linecap="round" stroke-linejoin="round" points="
				138.1,138.6 133,133.8 131.5,140.9 133.6,140.2 133.4,146.3 138.2,145.7 136.6,141.4 			"/>
			<polygon fill="#2F455A" stroke="#122333" stroke-width="0.25" stroke-linecap="round" stroke-linejoin="round" points="
				125.4,168.1 120.4,169.5 120.4,181 124.2,188.5 131,188.5 133.6,183.7 138.7,183.7 138.6,179.8 129.9,172.7 			"/>
			<polygon fill="#2F455A" stroke="#122333" stroke-width="0.25" stroke-linecap="round" stroke-linejoin="round" points="
				142.6,145.2 145.9,144.9 146.9,142.1 145.6,139.3 142.9,139.1 			"/>
			<polygon fill="#2F455A" stroke="#122333" stroke-width="0.25" stroke-linecap="round" stroke-linejoin="round" points="
				138.7,183.7 133.6,183.7 131.4,187.7 139.6,193.2 139.6,196.7 143.6,196.7 146.5,194.9 146.3,192.1 138.9,188.2 			"/>
			<polygon fill="#2F455A" stroke="#122333" stroke-width="0.25" stroke-linecap="round" stroke-linejoin="round" points="
				138.2,145.7 142.6,145.2 142.9,139.1 138.1,138.6 136.6,141.4 			"/>
			<polygon fill="#2F455A" stroke="#122333" stroke-width="0.25" stroke-linecap="round" stroke-linejoin="round" points="
				158.8,151.9 155.1,150.2 151.4,152.4 152.6,149.2 150.1,148.1 146.6,150.8 149.1,147 146.9,142.1 145.9,144.9 133.4,146.3 
				133.6,140.2 131.5,140.9 126.6,142.7 126.9,146.7 123.3,147.9 122.1,145.3 117.8,145.6 117.8,156.8 113.4,157.3 111.4,163.7 
				118.8,170 125.4,168.1 129.9,172.7 138.6,179.8 138.9,188.2 146.3,192.1 146.6,196.8 141.8,201.7 150.1,207.4 154.9,199 
				156,191.7 167.7,186.6 169.8,170.5 174.9,163.9 174.9,159.9 166.6,154.5 158.6,154.1 			"/>
			<polygon fill="#2F455A" stroke="#122333" stroke-width="0.25" stroke-linecap="round" stroke-linejoin="round" points="
				101.2,132.3 99.8,133.5 98,132.5 96.5,134.4 100.8,135.9 101.9,134.3 104.4,134.6 105.1,137 106,135.6 105.6,134 105,132 			"/>
			<polygon fill="#2F455A" stroke="#122333" stroke-width="0.25" stroke-linecap="round" stroke-linejoin="round" points="
				113.4,157.3 117.8,156.8 117.8,155.1 109.5,150.3 103.1,158.1 99.6,156.4 99.5,158.2 110.3,176.6 119.6,182.9 120.4,181 
				120.4,169.5 118.8,170 111.4,163.7 			"/>
			<polygon fill="#2F455A" stroke="#122333" stroke-width="0.25" stroke-linecap="round" stroke-linejoin="round" points="
				126.2,222.2 122.4,205.4 124.2,188.5 120.4,181 119.6,182.9 121.2,221.1 125.3,224.5 125.5,231.3 132.7,240.6 135,240.8 
				129.8,233 129.7,228.3 			"/>
			<polygon fill="#2F455A" stroke="#122333" stroke-width="0.25" stroke-linecap="round" stroke-linejoin="round" points="
				121.2,115 116.3,114.4 116.3,117.1 118,115.9 120.6,115.9 			"/>
			<polygon fill="#2F455A" stroke="#122333" stroke-width="0.25" stroke-linecap="round" stroke-linejoin="round" points="
				116.3,116.5 116.3,114.4 113.3,114.4 114.3,115.8 112.5,115.8 112.5,116.5 			"/>
		</g>
	</g>
</g>
</svg>
